<svg width="30" height="30" viewBox="0 0 30 30" fill="none" xmlns="http://www.w3.org/2000/svg">
<path d="M1.4379 0H18.9777C19.7923 0 20.4155 0.623101 20.4155 1.43777V18.9776C20.4155 19.7922 19.7924 20.4153 18.9777 20.4153H1.4379C0.623249 20.4153 0.00012207 19.7922 0.00012207 18.9776V1.43777C0.00012207 0.67093 0.671027 0 1.4379 0Z" fill="#0D014F"/>
<path d="M28.5624 9.58441H22.3324V12.46H27.1247V27.1244H12.4603V22.3321H9.58472V28.5621C9.58472 29.3768 10.2078 29.9999 11.0225 29.9999H28.5623C29.3769 29.9999 30 29.3768 30 28.5621V11.0224C30 10.2077 29.3291 9.58458 28.5623 9.58458L28.5624 9.58441Z" fill="#0D014F"/>
</svg>
