<svg width="278" height="279" viewBox="0 0 278 279" fill="none" xmlns="http://www.w3.org/2000/svg">
<g style="mix-blend-mode:screen">
<path opacity="0.5" d="M137.819 152.194C138.957 152.817 139.988 153.618 140.876 154.566C141.45 155.752 141.825 157.024 141.987 158.332C141.987 160.146 140.181 158.332 138.931 155.961C137.68 153.589 136.291 151.218 137.819 152.194Z" fill="#7D7A7C"/>
<path d="M137.958 153.311C137.958 153.311 138.93 154.148 139.764 155.403C140.598 156.659 141.153 157.775 141.014 157.914C140.875 158.054 139.903 157.077 139.069 155.822C138.236 154.566 137.68 153.45 137.958 153.311Z" fill="#F9E6CF"/>
<path opacity="0.5" d="M130.317 158.751C131.683 158.997 132.97 159.572 134.068 160.425C134.645 161.743 134.93 163.171 134.901 164.61C134.901 166.423 132.401 164.61 131.15 162.796C129.9 160.983 128.233 158.193 130.317 158.751Z" fill="#7D7A7C"/>
<path d="M130.178 160.286C130.178 160.286 131.428 160.286 132.401 162.099C133.373 163.913 133.79 164.331 133.512 164.61C133.234 164.889 132.262 164.61 131.289 162.797C130.317 160.983 129.9 160.286 130.178 160.286Z" fill="#F9E6CF"/>
<path opacity="0.5" d="M135.179 184.14C136.43 182.605 138.097 181.21 138.931 181.21C140.408 181.787 141.67 182.811 142.543 184.14C144.071 186.093 140.876 187.069 138.931 187.069C136.986 187.069 133.512 186.232 135.179 184.14Z" fill="#7D7A7C"/>
<path d="M136.152 185.675C136.152 185.675 137.402 184.559 138.791 184.559C140.181 184.559 141.57 184.559 141.57 185.675C141.57 186.791 140.32 186.651 138.791 186.651C137.263 186.651 136.152 186.233 136.152 185.675Z" fill="#F9E6CF"/>
<path opacity="0.5" d="M161.298 182.187C160.377 180.378 159.945 178.357 160.048 176.328C160.048 176.328 163.382 176.328 166.022 176.328C168.662 176.328 168.523 180.652 167.272 182.187C166.022 183.721 162.688 185.535 161.298 182.187Z" fill="#7D7A7C"/>
<path d="M163.799 182.884C163.799 182.884 163.799 180.931 163.799 179.676C163.799 178.42 166.022 178.141 166.717 178.699C167.411 179.257 166.717 180.652 166.717 181.768C166.717 182.884 164.355 183.442 163.799 182.884Z" fill="#F9E6CF"/>
<path opacity="0.5" d="M159.631 173.12C159.29 171.746 159.29 170.309 159.631 168.935C160.611 167.844 161.856 167.027 163.243 166.563C165.05 165.866 164.216 168.935 163.243 170.748C162.271 172.562 160.048 175.352 159.631 173.12Z" fill="#7D7A7C"/>
<path d="M160.882 172.841C160.882 172.841 160.882 171.306 160.882 170.051C160.882 168.795 162.41 167.818 162.827 167.958C163.243 168.097 162.827 169.353 162.132 170.748C161.437 172.143 161.298 172.98 160.882 172.841Z" fill="#F9E6CF"/>
<path opacity="0.5" d="M166.994 144.382C165.409 144.359 163.865 143.874 162.549 142.987C162.549 142.987 162.549 140.197 162.549 138.244C162.549 136.291 166.022 138.244 166.994 139.639C167.967 141.034 169.495 144.801 166.994 144.382Z" fill="#7D7A7C"/>
<path d="M168.384 142.848C168.384 142.848 166.856 142.848 166.022 141.035C165.188 139.221 164.911 138.524 165.327 138.245C165.744 137.966 166.856 138.245 167.689 139.919C168.523 141.593 168.384 142.43 168.384 142.848Z" fill="#F9E6CF"/>
<path opacity="0.5" d="M158.242 135.315C157.065 134.693 156.025 133.839 155.185 132.804C154.639 131.575 154.355 130.244 154.352 128.898C154.352 127.224 156.297 129.735 157.269 131.548C158.242 133.362 159.909 136.291 158.242 135.315Z" fill="#7D7A7C"/>
<path d="M158.242 134.199C158.242 134.199 157.269 133.362 156.436 132.106C155.602 130.851 155.186 129.735 155.463 129.595C155.741 129.456 156.436 130.293 157.131 131.548C157.825 132.804 158.52 134.06 158.242 134.199Z" fill="#F9E6CF"/>
<path opacity="0.5" d="M161.576 118.436C160.046 119.595 158.21 120.274 156.297 120.389C155.282 118.717 154.842 116.756 155.046 114.809C155.046 111.6 158.52 112.019 160.326 112.995C162.132 113.972 164.494 117.041 161.576 118.436Z" fill="#7D7A7C"/>
<path d="M161.715 116.343C161.715 116.343 160.048 116.343 158.659 116.343C157.269 116.343 156.714 114.529 157.13 113.692C157.547 112.855 158.798 113.692 160.187 113.692C161.576 113.692 162.132 115.645 161.715 116.343Z" fill="#F9E6CF"/>
<path opacity="0.5" d="M144.071 129.317C142.821 131.409 141.154 133.223 140.459 133.223C139.764 133.223 137.819 131.409 136.708 129.317C135.596 127.224 138.375 125.411 140.459 125.411C142.543 125.411 145.877 126.527 144.071 129.317Z" fill="#7D7A7C"/>
<path d="M143.098 127.363C143.098 127.363 141.987 128.759 140.459 128.759C138.931 128.759 137.68 128.061 137.68 127.363C137.68 126.666 138.931 125.969 140.459 125.969C141.987 125.969 143.098 126.526 143.098 127.363Z" fill="#F9E6CF"/>
<path opacity="0.5" d="M115.451 141.313C116.339 142.775 116.683 144.504 116.424 146.196C116.424 146.196 113.923 147.591 111.7 147.73C109.477 147.87 109.616 144.522 110.589 142.709C111.561 140.895 114.34 138.663 115.451 141.313Z" fill="#7D7A7C"/>
<path d="M113.506 141.313C113.506 141.313 113.506 142.848 113.506 144.243C113.506 145.638 111.7 146.196 111.144 145.917C110.589 145.638 111.144 144.243 111.144 142.987C111.144 141.732 112.812 140.895 113.506 141.313Z" fill="#F9E6CF"/>
<path opacity="0.5" d="M128.094 209.25C129.761 206.32 131.845 203.81 132.54 203.949C133.234 204.089 134.763 206.879 135.457 210.227C135.695 210.902 135.756 211.627 135.635 212.332C135.514 213.038 135.215 213.701 134.766 214.257C134.317 214.813 133.733 215.245 133.071 215.51C132.408 215.775 131.689 215.865 130.982 215.771C130.275 215.677 129.604 215.403 129.033 214.974C128.462 214.545 128.009 213.977 127.72 213.322C127.43 212.668 127.312 211.95 127.377 211.237C127.443 210.524 127.69 209.84 128.094 209.25Z" fill="#7D7A7C"/>
<path d="M128.788 212.459C128.953 211.84 129.346 211.307 129.889 210.97C130.431 210.633 131.081 210.517 131.706 210.645C133.095 210.645 134.207 211.901 134.068 213.017C133.929 214.133 132.679 214.97 131.15 214.83C130.524 214.83 129.923 214.58 129.48 214.135C129.037 213.691 128.788 213.088 128.788 212.459Z" fill="#F9E6CF"/>
<path opacity="0.5" d="M142.959 197.393C143.297 195.786 144.122 194.324 145.321 193.208C146.973 193.217 148.579 193.755 149.906 194.742C151.99 196.137 149.906 198.23 147.405 198.927C144.904 199.625 142.126 200.043 142.959 197.393Z" fill="#7D7A7C"/>
<path d="M144.349 198.509C144.349 198.509 145.182 197.113 146.572 196.555C147.961 195.997 149.211 196.555 149.489 196.555C149.767 196.555 148.656 197.951 147.266 198.509C145.877 199.067 144.627 199.067 144.349 198.509Z" fill="#F9E6CF"/>
<path opacity="0.5" d="M183.527 205.205C181.86 201.996 180.749 198.788 181.304 198.23C183.783 197.931 186.294 198.367 188.529 199.485C189.213 199.697 189.836 200.072 190.345 200.578C190.855 201.083 191.234 201.705 191.452 202.39C191.671 203.075 191.721 203.803 191.599 204.511C191.477 205.22 191.186 205.888 190.752 206.46C190.265 207.013 189.645 207.431 188.952 207.676C188.259 207.92 187.514 207.983 186.79 207.857C186.066 207.731 185.386 207.421 184.815 206.957C184.244 206.493 183.801 205.889 183.527 205.205Z" fill="#7D7A7C"/>
<path d="M186.584 206.46C186.134 205.992 185.882 205.367 185.882 204.716C185.882 204.066 186.134 203.441 186.584 202.973C187.05 202.521 187.672 202.268 188.32 202.268C188.968 202.268 189.591 202.521 190.057 202.973C190.477 203.456 190.709 204.075 190.709 204.716C190.709 205.358 190.477 205.977 190.057 206.46C189.591 206.912 188.968 207.164 188.32 207.164C187.672 207.164 187.05 206.912 186.584 206.46Z" fill="#F9E6CF"/>
<path opacity="0.5" d="M196.17 94.581C193.245 97.7101 189.694 100.182 185.75 101.835C186.414 97.6201 187.927 93.5854 190.196 89.9775C193.808 82.863 198.948 81.6075 200.477 82.863C202.005 84.1185 203.116 89.001 196.17 94.581Z" fill="#7D7A7C"/>
<path d="M199.643 89.28C198.115 91.0935 196.031 91.791 194.92 90.954C193.808 90.117 193.947 87.7455 194.92 85.932C195.892 84.1185 198.532 83.2815 199.643 84.258C200.755 85.2345 201.033 87.327 199.643 89.28Z" fill="#F9E6CF"/>
<path opacity="0.5" d="M185.194 125.829C182.277 126.945 179.359 127.503 178.804 126.945C178.248 126.387 178.804 123.458 179.915 120.528C180.148 119.9 180.539 119.342 181.049 118.909C181.559 118.476 182.172 118.183 182.828 118.057C183.484 117.93 184.162 117.976 184.795 118.189C185.428 118.402 185.997 118.775 186.445 119.273C186.981 119.7 187.391 120.267 187.629 120.912C187.868 121.557 187.926 122.255 187.797 122.931C187.668 123.607 187.357 124.234 186.898 124.745C186.44 125.256 185.85 125.631 185.194 125.829Z" fill="#7D7A7C"/>
<path d="M186.445 123.179C185.75 123.179 184.222 123.179 183.249 123.179C182.277 123.179 181.86 120.667 183.249 119.83C184.639 118.993 185.333 119.83 186.445 119.83C186.855 120.291 187.082 120.887 187.082 121.505C187.082 122.122 186.855 122.718 186.445 123.179Z" fill="#F9E6CF"/>
<path opacity="0.5" d="M186.723 169.772C184.083 167.679 181.999 165.308 182.277 164.61C182.555 163.913 185.333 162.797 188.668 162.518C189.348 162.391 190.05 162.443 190.705 162.668C191.36 162.894 191.946 163.284 192.406 163.803C192.867 164.322 193.187 164.951 193.335 165.63C193.483 166.309 193.455 167.014 193.252 167.679C193.124 168.373 192.81 169.019 192.345 169.549C191.88 170.078 191.281 170.471 190.611 170.686C189.941 170.9 189.226 170.929 188.541 170.768C187.856 170.607 187.228 170.263 186.723 169.772Z" fill="#7D7A7C"/>
<path d="M189.779 169.492C189.212 169.246 188.765 168.787 188.531 168.214C188.297 167.64 188.296 166.998 188.529 166.423C188.529 164.889 190.196 164.052 191.168 164.331C191.735 164.577 192.183 165.036 192.416 165.61C192.65 166.183 192.651 166.826 192.419 167.4C192.002 168.934 190.89 169.771 189.779 169.492Z" fill="#F9E6CF"/>
<path opacity="0.5" d="M183.666 180.513C181.86 178.281 180.61 175.909 180.888 175.212C181.165 174.514 183.805 173.677 186.584 173.538C189.362 173.398 190.196 176.886 189.362 178.839C188.529 180.792 186.028 183.303 183.666 180.513Z" fill="#7D7A7C"/>
<path d="M186.306 180.374C185.472 180.374 185.194 178.7 186.306 177.305C187.417 175.91 188.112 175.073 188.945 175.491C189.779 175.91 189.918 177.165 188.945 178.56C187.973 179.955 187.139 180.792 186.306 180.374Z" fill="#F9E6CF"/>
<path opacity="0.5" d="M181.304 226.827C180.292 224.455 179.956 221.847 180.332 219.294C180.332 219.294 184.222 220.131 187.278 222.223C187.933 222.576 188.491 223.084 188.907 223.701C189.323 224.319 189.583 225.029 189.665 225.77C189.747 226.511 189.648 227.261 189.378 227.956C189.107 228.65 188.673 229.268 188.112 229.756C187.508 230.198 186.801 230.475 186.058 230.559C185.316 230.644 184.565 230.533 183.878 230.237C183.191 229.942 182.593 229.472 182.142 228.874C181.69 228.276 181.402 227.571 181.304 226.827Z" fill="#7D7A7C"/>
<path d="M184.083 228.78C183.761 228.199 183.669 227.519 183.823 226.873C183.977 226.227 184.368 225.663 184.916 225.292C185.383 224.841 186.005 224.588 186.653 224.588C187.301 224.588 187.924 224.841 188.39 225.292C188.566 225.575 188.685 225.891 188.739 226.221C188.792 226.55 188.78 226.887 188.702 227.212C188.625 227.537 188.484 227.843 188.287 228.112C188.09 228.381 187.842 228.608 187.556 228.78C187.09 229.232 186.467 229.484 185.82 229.484C185.172 229.484 184.549 229.232 184.083 228.78Z" fill="#F9E6CF"/>
<path opacity="0.5" d="M186.028 257.935C185.038 254.876 184.8 251.621 185.333 248.449C186.028 248.449 189.362 250.821 192.697 254.448C196.031 258.075 195.197 262.818 193.391 263.794C191.585 264.771 187.417 264.213 186.028 257.935Z" fill="#7D7A7C"/>
<path d="M189.084 261.423C188.879 261.113 188.738 260.765 188.669 260.399C188.599 260.034 188.604 259.658 188.681 259.294C188.759 258.93 188.908 258.585 189.121 258.28C189.333 257.975 189.604 257.715 189.918 257.517C190.265 257.352 190.64 257.257 191.023 257.237C191.407 257.218 191.79 257.275 192.151 257.404C192.512 257.534 192.845 257.734 193.129 257.993C193.414 258.251 193.644 258.564 193.808 258.912C194.182 259.586 194.289 260.376 194.109 261.126C193.929 261.875 193.474 262.529 192.835 262.958C192.49 263.116 192.117 263.202 191.737 263.211C191.358 263.219 190.981 263.149 190.629 263.005C190.278 262.861 189.959 262.647 189.694 262.375C189.428 262.103 189.221 261.779 189.084 261.423Z" fill="#F9E6CF"/>
<path opacity="0.5" d="M157.408 234.778C156.996 231.71 157.378 228.587 158.52 225.711C159.353 225.711 162.132 228.64 164.633 232.686C167.133 236.731 165.466 241.195 163.521 241.753C161.576 242.311 157.547 240.916 157.408 234.778Z" fill="#7D7A7C"/>
<path d="M159.631 238.684C159.502 238.328 159.446 237.948 159.467 237.569C159.489 237.19 159.587 236.82 159.756 236.48C159.925 236.141 160.162 235.84 160.451 235.595C160.74 235.35 161.075 235.167 161.437 235.058C161.784 234.953 162.149 234.921 162.508 234.964C162.868 235.007 163.214 235.123 163.527 235.306C163.84 235.49 164.112 235.735 164.326 236.029C164.54 236.322 164.692 236.656 164.772 237.011C164.904 237.358 164.966 237.729 164.954 238.101C164.941 238.473 164.855 238.839 164.699 239.177C164.544 239.515 164.323 239.818 164.049 240.069C163.775 240.32 163.454 240.513 163.104 240.637C162.749 240.743 162.375 240.777 162.007 240.735C161.638 240.694 161.281 240.579 160.958 240.397C160.634 240.215 160.35 239.969 160.122 239.675C159.894 239.381 159.727 239.044 159.631 238.684Z" fill="#F9E6CF"/>
<path opacity="0.5" d="M204.506 233.662C203.637 231.742 203.301 229.621 203.533 227.524C205.513 226.833 207.666 226.833 209.646 227.524C213.119 228.64 212.147 232.128 210.618 233.662C209.09 235.197 205.895 237.289 204.506 233.662Z" fill="#7D7A7C"/>
<path d="M207.006 234.639C206.312 234.639 207.007 232.546 207.701 231.43C208.396 230.314 210.063 230.035 210.758 230.733C211.452 231.43 210.758 232.825 210.758 233.802C210.758 234.778 207.701 235.336 207.006 234.639Z" fill="#F9E6CF"/>
<path opacity="0.5" d="M139.625 211.761C140.597 208.552 141.987 205.902 142.82 205.762C143.654 205.623 145.599 207.994 147.127 210.924C147.492 211.498 147.7 212.158 147.732 212.839C147.764 213.519 147.619 214.196 147.31 214.802C147.001 215.408 146.539 215.923 145.971 216.295C145.403 216.667 144.748 216.883 144.071 216.922C143.392 217.064 142.689 217.021 142.032 216.798C141.376 216.574 140.791 216.179 140.338 215.653C139.885 215.127 139.579 214.489 139.454 213.804C139.329 213.12 139.388 212.415 139.625 211.761Z" fill="#7D7A7C"/>
<path d="M140.598 214.412C140.598 213.435 141.57 212.319 143.098 212.18C144.627 212.04 145.877 212.18 146.016 213.854C145.947 214.47 145.654 215.039 145.192 215.451C144.73 215.863 144.133 216.089 143.515 216.086C143.214 216.17 142.9 216.194 142.589 216.155C142.279 216.116 141.98 216.016 141.708 215.86C141.437 215.705 141.199 215.497 141.008 215.248C140.818 214.999 140.678 214.715 140.598 214.412Z" fill="#F9E6CF"/>
<path opacity="0.5" d="M158.103 252.216C157.808 248.826 158.382 245.416 159.77 242.312C160.465 242.312 163.104 245.939 165.327 250.542C167.55 255.146 165.327 259.888 163.799 260.307C162.271 260.725 157.825 258.912 158.103 252.216Z" fill="#7D7A7C"/>
<path d="M160.048 256.54C159.867 256.165 159.772 255.752 159.77 255.335C159.769 254.917 159.861 254.504 160.039 254.127C160.218 253.75 160.479 253.418 160.802 253.155C161.126 252.893 161.504 252.706 161.909 252.61C162.313 252.514 162.735 252.51 163.141 252.599C163.547 252.688 163.929 252.867 164.257 253.124C164.585 253.381 164.852 253.708 165.037 254.082C165.222 254.456 165.321 254.867 165.327 255.285C165.456 255.66 165.507 256.058 165.478 256.453C165.449 256.849 165.34 257.234 165.159 257.587C164.977 257.939 164.726 258.25 164.42 258.502C164.115 258.754 163.762 258.941 163.382 259.051C161.993 259.47 160.465 257.935 160.048 256.54Z" fill="#F9E6CF"/>
<path opacity="0.5" d="M129.622 266.724C130.873 262.12 132.54 258.075 133.373 258.075C135.294 260.615 136.581 263.581 137.125 266.724C138.514 272.443 135.318 275.373 133.373 275.373C131.428 275.373 127.955 272.722 129.622 266.724Z" fill="#7D7A7C"/>
<path d="M130.595 271.885C130.623 271.335 130.813 270.805 131.141 270.362C131.469 269.92 131.92 269.585 132.438 269.4C132.955 269.215 133.515 269.188 134.048 269.323C134.581 269.457 135.062 269.747 135.43 270.156C135.799 270.565 136.038 271.075 136.119 271.62C136.199 272.166 136.116 272.723 135.881 273.222C135.646 273.72 135.269 274.138 134.798 274.421C134.327 274.705 133.783 274.842 133.234 274.815C132.869 274.797 132.511 274.707 132.181 274.55C131.851 274.393 131.555 274.172 131.309 273.9C131.064 273.628 130.875 273.31 130.752 272.964C130.629 272.619 130.576 272.252 130.595 271.885Z" fill="#F9E6CF"/>
<path opacity="0.5" d="M140.598 239.382C141.709 235.476 143.237 231.989 144.071 231.989C144.905 231.989 146.711 235.197 148.1 239.103C149.489 243.009 146.711 246.497 144.627 246.497C142.543 246.497 138.514 244.683 140.598 239.382Z" fill="#7D7A7C"/>
<path d="M140.598 243.148C140.628 242.442 140.912 241.77 141.397 241.257C141.882 240.744 142.536 240.425 143.237 240.358C143.625 240.267 144.027 240.265 144.416 240.353C144.804 240.44 145.167 240.614 145.479 240.862C145.791 241.111 146.043 241.426 146.216 241.786C146.389 242.146 146.479 242.54 146.479 242.939C146.479 243.339 146.389 243.733 146.216 244.093C146.043 244.452 145.791 244.768 145.479 245.016C145.167 245.264 144.804 245.438 144.416 245.526C144.027 245.613 143.625 245.611 143.237 245.52C142.583 245.524 141.95 245.283 141.463 244.845C140.975 244.407 140.667 243.802 140.598 243.148Z" fill="#F9E6CF"/>
<path opacity="0.5" d="M146.016 266.864C146.048 262.931 147 259.06 148.794 255.564C151.065 258.725 152.629 262.342 153.379 266.166C155.602 273.281 153.379 277.326 150.739 277.466C148.1 277.605 145.043 274.676 146.016 266.864Z" fill="#7D7A7C"/>
<path d="M147.544 271.885C147.544 269.793 148.378 267.979 149.767 267.84C151.156 267.7 152.685 269.374 152.824 271.467C152.963 273.559 151.99 275.512 150.462 275.652C148.934 275.791 147.683 274.536 147.544 271.885Z" fill="#F9E6CF"/>
<path opacity="0.5" d="M119.897 263.376C120.846 259.501 122.545 255.851 124.898 252.635C126.516 256.28 127.368 260.222 127.399 264.213C127.399 271.746 124.482 275.234 122.398 274.955C120.314 274.676 117.396 271.049 119.897 263.376Z" fill="#7D7A7C"/>
<path d="M120.314 269.235C120.314 267.003 121.981 265.469 123.37 265.608C124.759 265.748 125.871 267.701 125.732 269.793C125.593 271.886 124.065 273.56 122.537 273.42C121.008 273.281 120.036 271.886 120.314 269.235Z" fill="#F9E6CF"/>
<path opacity="0.5" d="M113.506 230.036C115.59 227.106 118.091 224.735 118.786 224.874C120.124 227.045 120.756 229.58 120.592 232.128C120.773 232.849 120.76 233.606 120.554 234.32C120.348 235.034 119.955 235.681 119.417 236.192C118.88 236.704 118.216 237.062 117.494 237.23C116.773 237.399 116.02 237.371 115.312 237.15C114.588 236.963 113.927 236.584 113.399 236.053C112.871 235.522 112.495 234.858 112.31 234.13C112.125 233.403 112.139 232.639 112.349 231.918C112.56 231.198 112.959 230.547 113.506 230.036Z" fill="#7D7A7C"/>
<path d="M113.506 233.244C113.779 232.661 114.254 232.199 114.842 231.942C115.43 231.685 116.091 231.652 116.702 231.849C117.032 231.9 117.349 232.016 117.634 232.192C117.919 232.367 118.165 232.599 118.36 232.872C118.554 233.145 118.692 233.454 118.765 233.782C118.838 234.109 118.845 234.448 118.785 234.778C118.538 235.383 118.066 235.866 117.47 236.127C116.873 236.387 116.199 236.404 115.59 236.173C115.26 236.123 114.943 236.006 114.658 235.831C114.373 235.655 114.126 235.424 113.932 235.151C113.738 234.877 113.6 234.568 113.527 234.241C113.454 233.913 113.447 233.574 113.506 233.244Z" fill="#F9E6CF"/>
<path opacity="0.5" d="M111.422 213.993C113.645 211.621 116.285 209.948 116.979 210.227C117.674 210.506 118.23 213.575 118.23 216.923C118.247 217.59 118.093 218.25 117.783 218.841C117.473 219.431 117.018 219.932 116.461 220.296C115.904 220.66 115.263 220.874 114.6 220.918C113.936 220.963 113.273 220.836 112.673 220.55C112.017 220.351 111.427 219.976 110.968 219.465C110.51 218.954 110.199 218.327 110.07 217.651C109.941 216.976 109.999 216.278 110.238 215.633C110.476 214.988 110.886 214.421 111.422 213.993Z" fill="#7D7A7C"/>
<path d="M111.144 216.922C111.144 215.946 113.089 215.667 114.479 216.225C115.868 216.783 116.563 218.038 116.146 219.015C115.828 219.546 115.315 219.931 114.718 220.087C114.121 220.244 113.486 220.159 112.95 219.852C111.561 219.294 110.728 218.038 111.144 216.922Z" fill="#F9E6CF"/>
<path opacity="0.5" d="M100.03 255.704C101.756 251.151 104.352 246.981 107.671 243.427C108.496 248.041 108.496 252.764 107.671 257.377C106.421 266.724 101.975 270.351 100.03 269.793C98.0849 269.235 95.4452 264.771 100.03 255.704Z" fill="#7D7A7C"/>
<path d="M98.9186 262.957C99.6133 260.307 101.419 258.493 102.948 258.912C104.476 259.33 104.893 261.842 104.059 264.492C103.225 267.143 101.419 268.956 100.03 268.398C98.6408 267.84 98.085 265.608 98.9186 262.957Z" fill="#F9E6CF"/>
<path opacity="0.5" d="M210.063 223.339C207.145 219.015 205.339 214.83 205.895 214.272C209.177 214.799 212.306 216.037 215.064 217.899C220.622 220.968 220.761 225.432 219.232 226.966C217.704 228.501 213.814 229.059 210.063 223.339Z" fill="#7D7A7C"/>
<path d="M214.37 225.851C213.842 225.282 213.549 224.535 213.549 223.758C213.549 222.981 213.842 222.234 214.37 221.666C214.958 221.126 215.726 220.828 216.523 220.828C217.32 220.828 218.088 221.126 218.677 221.666C219.186 222.27 219.465 223.036 219.465 223.828C219.465 224.619 219.186 225.386 218.677 225.99C218.071 226.51 217.293 226.785 216.496 226.759C215.699 226.733 214.941 226.409 214.37 225.851Z" fill="#F9E6CF"/>
<path opacity="0.5" d="M201.588 207.576C199.504 204.786 198.254 201.717 198.67 201.019C200.984 200.341 203.442 200.341 205.756 201.019C206.471 201.106 207.152 201.376 207.732 201.805C208.312 202.234 208.771 202.807 209.065 203.468C209.359 204.128 209.478 204.854 209.409 205.574C209.34 206.294 209.087 206.984 208.673 207.576C208.328 208.217 207.816 208.752 207.193 209.125C206.569 209.498 205.857 209.695 205.131 209.695C204.405 209.695 203.693 209.498 203.069 209.125C202.445 208.752 201.934 208.217 201.588 207.576Z" fill="#7D7A7C"/>
<path d="M204.645 208.552C204.195 208.084 203.943 207.459 203.943 206.809C203.943 206.158 204.195 205.533 204.645 205.065C204.966 204.5 205.493 204.083 206.115 203.901C206.737 203.718 207.406 203.786 207.979 204.088C208.429 204.556 208.68 205.182 208.68 205.832C208.68 206.483 208.429 207.108 207.979 207.576C207.657 208.141 207.13 208.558 206.508 208.74C205.886 208.922 205.218 208.855 204.645 208.552Z" fill="#F9E6CF"/>
<path opacity="0.5" d="M216.871 219.852C215.62 217.759 214.787 215.527 215.203 214.83C215.62 214.132 217.843 213.295 220.344 213.295C222.845 213.295 222.984 216.504 222.011 218.317C221.039 220.131 218.538 222.642 216.871 219.852Z" fill="#7D7A7C"/>
<path d="M219.093 219.852C218.399 219.852 218.399 218.178 219.093 216.923C219.788 215.667 220.899 214.691 221.594 215.109C222.289 215.528 221.594 216.783 221.594 218.178C221.594 219.573 219.788 220.271 219.093 219.852Z" fill="#F9E6CF"/>
<path opacity="0.5" d="M208.674 199.066C205.478 195.858 203.116 192.51 203.533 191.952C203.95 191.394 207.84 191.952 212.286 191.952C216.732 191.952 218.538 197.253 217.426 199.066C216.315 200.88 212.841 203.251 208.674 199.066Z" fill="#7D7A7C"/>
<path d="M212.703 200.182C212.06 199.829 211.583 199.234 211.375 198.529C211.167 197.824 211.244 197.064 211.591 196.416C211.967 195.795 212.569 195.345 213.269 195.163C213.97 194.98 214.714 195.08 215.342 195.439C215.985 195.793 216.462 196.388 216.67 197.093C216.878 197.798 216.801 198.558 216.454 199.206C216.078 199.827 215.476 200.277 214.776 200.459C214.075 200.642 213.331 200.542 212.703 200.182Z" fill="#F9E6CF"/>
<path opacity="0.5" d="M246.602 216.085C241.461 212.319 237.571 208.552 237.849 207.855C241.895 207.505 245.969 208.029 249.797 209.389C257.16 211.063 259.244 215.667 258.411 217.48C257.577 219.294 253.131 220.41 246.602 216.085Z" fill="#7D7A7C"/>
<path d="M251.742 217.062C249.658 216.225 248.547 214.272 249.241 212.877C249.936 211.482 252.02 211.203 253.965 212.179C255.91 213.156 257.021 214.969 256.466 216.364C255.91 217.759 254.243 218.038 251.742 217.062Z" fill="#F9E6CF"/>
<path opacity="0.5" d="M241.183 197.113C236.134 194.97 231.447 192.052 227.29 188.464C232.802 188.05 238.344 188.569 243.684 189.999C254.243 191.812 258.55 196.555 257.577 198.648C256.605 200.74 251.742 202.135 241.183 197.113Z" fill="#7D7A7C"/>
<path d="M249.38 198.648C246.324 197.672 244.379 195.719 244.796 194.324C245.212 192.929 247.991 192.51 251.048 193.487C254.104 194.463 256.049 196.556 255.632 197.951C255.215 199.346 251.742 199.625 249.38 198.648Z" fill="#F9E6CF"/>
<path opacity="0.5" d="M221.177 181.35C218.26 178.978 216.037 176.328 216.315 175.63C218.659 174.39 221.327 173.903 223.956 174.235C224.684 174.159 225.42 174.264 226.098 174.541C226.776 174.818 227.375 175.26 227.843 175.825C228.31 176.391 228.631 177.064 228.777 177.785C228.923 178.505 228.889 179.251 228.68 179.955C228.448 180.709 228.015 181.385 227.428 181.91C226.84 182.434 226.122 182.787 225.349 182.931C224.576 183.075 223.779 183.003 223.043 182.725C222.308 182.446 221.663 181.971 221.177 181.35Z" fill="#7D7A7C"/>
<path d="M223.956 181.49C223.369 181.189 222.915 180.679 222.684 180.059C222.452 179.44 222.46 178.756 222.706 178.142C222.899 177.512 223.32 176.977 223.885 176.642C224.45 176.306 225.119 176.195 225.762 176.328C226.065 176.464 226.337 176.658 226.564 176.901C226.791 177.143 226.968 177.428 227.085 177.74C227.201 178.051 227.254 178.383 227.242 178.715C227.23 179.047 227.152 179.374 227.012 179.676C226.819 180.306 226.398 180.841 225.833 181.176C225.268 181.511 224.599 181.623 223.956 181.49Z" fill="#F9E6CF"/>
<path opacity="0.5" d="M189.084 157.496C187.417 156.24 185.889 154.566 185.889 153.869C185.889 153.171 187.417 151.218 189.084 150.102C190.752 148.986 192.28 151.776 192.28 153.869C192.28 155.961 191.446 159.309 189.084 157.496Z" fill="#7D7A7C"/>
<path d="M190.752 156.519C190.752 156.519 189.64 155.403 189.64 153.869C189.64 152.334 189.64 151.078 190.752 151.078C191.863 151.078 191.863 152.334 191.863 153.869C191.863 155.403 191.446 156.519 190.752 156.519Z" fill="#F9E6CF"/>
<path opacity="0.5" d="M258.133 191.673C254.689 190.358 251.598 188.256 249.102 185.535C252.59 184.373 256.289 183.992 259.939 184.419C266.885 184.419 269.525 188.604 268.969 190.557C268.414 192.51 264.663 195.161 258.133 191.673Z" fill="#7D7A7C"/>
<path d="M263.412 191.952C261.467 191.952 260.217 189.999 260.634 188.464C261.05 186.93 262.857 186.232 264.802 186.79C266.747 187.348 267.997 188.883 267.58 190.278C267.244 191.051 266.618 191.66 265.838 191.974C265.058 192.287 264.187 192.279 263.412 191.952Z" fill="#F9E6CF"/>
<path opacity="0.5" d="M254.382 180.374C251.054 179.497 247.966 177.876 245.351 175.631C248.343 173.874 251.75 172.959 255.215 172.98C261.467 172.143 264.246 175.631 264.107 177.723C263.968 179.816 260.634 182.745 254.382 180.374Z" fill="#7D7A7C"/>
<path d="M259.244 179.955C257.299 179.955 256.049 178.281 256.188 176.886C256.355 176.091 256.829 175.395 257.506 174.951C258.183 174.506 259.008 174.349 259.8 174.515C261.606 174.515 262.995 176.189 262.717 177.584C262.651 177.972 262.508 178.342 262.295 178.673C262.083 179.004 261.807 179.289 261.483 179.51C261.158 179.732 260.793 179.885 260.409 179.961C260.024 180.038 259.628 180.036 259.244 179.955Z" fill="#F9E6CF"/>
<path opacity="0.5" d="M210.063 153.869C207.145 152.753 204.783 151.218 204.783 150.52C204.783 149.823 206.729 147.731 209.368 146.336C212.008 144.941 214.509 147.591 214.648 149.684C214.787 151.776 212.98 155.264 210.063 153.869Z" fill="#7D7A7C"/>
<path d="M211.73 152.613C210.757 152.613 209.924 151.497 209.785 150.102C209.646 148.707 209.785 147.312 211.313 147.172C212.841 147.033 213.119 148.288 213.258 149.823C213.397 151.357 212.702 152.473 211.73 152.613Z" fill="#F9E6CF"/>
<path opacity="0.5" d="M217.565 147.173C213.675 146.336 210.202 145.08 210.202 144.382C210.202 143.685 212.98 141.453 216.732 139.779C220.483 138.105 223.956 139.779 224.234 142.569C224.512 145.359 222.706 148.289 217.565 147.173Z" fill="#7D7A7C"/>
<path d="M221.038 146.335C220.36 146.375 219.693 146.151 219.176 145.709C218.658 145.267 218.33 144.642 218.26 143.964C218.26 143.298 218.523 142.659 218.992 142.188C219.461 141.718 220.097 141.453 220.761 141.453C221.424 141.453 222.06 141.718 222.529 142.188C222.998 142.659 223.261 143.298 223.261 143.964C223.185 144.543 222.929 145.084 222.53 145.509C222.132 145.935 221.61 146.224 221.038 146.335Z" fill="#F9E6CF"/>
<path opacity="0.5" d="M238.822 153.869C235.547 153.487 232.406 152.34 229.652 150.521C231.999 148.469 234.815 147.031 237.849 146.336C243.684 144.522 246.879 147.591 247.018 149.684C247.157 151.776 245.073 155.264 238.822 153.869Z" fill="#7D7A7C"/>
<path d="M243.267 152.613C242.498 152.696 241.726 152.483 241.108 152.017C240.489 151.551 240.069 150.866 239.933 150.102C240 149.324 240.347 148.597 240.91 148.058C241.473 147.518 242.212 147.204 242.989 147.172C243.779 147.093 244.569 147.325 245.191 147.82C245.813 148.315 246.219 149.033 246.324 149.823C246.226 150.576 245.865 151.27 245.305 151.781C244.745 152.291 244.023 152.586 243.267 152.613Z" fill="#F9E6CF"/>
<path opacity="0.5" d="M266.747 162.797C263.278 162.322 259.958 161.083 257.021 159.17C257.021 158.333 261.467 156.519 266.747 155.403C272.026 154.287 276.611 157.077 276.611 159.17C276.611 161.262 273.693 164.61 266.747 162.797Z" fill="#7D7A7C"/>
<path d="M271.748 161.82C269.942 161.82 268.275 160.704 268.275 159.169C268.379 158.342 268.8 157.589 269.449 157.068C270.097 156.547 270.922 156.3 271.748 156.379C272.575 156.3 273.399 156.547 274.048 157.068C274.696 157.589 275.117 158.342 275.221 159.169C275.221 160.285 273.693 161.82 271.748 161.82Z" fill="#F9E6CF"/>
<path opacity="0.5" d="M260.495 142.987C256.493 143.063 252.519 142.303 248.824 140.755C251.962 138.254 255.617 136.491 259.522 135.594C266.608 133.083 270.915 135.594 271.053 137.826C271.192 140.058 268.553 143.685 260.495 142.987Z" fill="#7D7A7C"/>
<path d="M265.635 141.313C263.412 141.313 261.467 141.313 261.328 139.081C261.189 136.849 262.718 136.152 264.94 135.873C267.163 135.594 268.969 135.873 269.108 138.105C269.247 140.337 268.136 141.034 265.635 141.313Z" fill="#F9E6CF"/>
<path opacity="0.5" d="M229.235 129.177C225.345 129.177 221.872 129.177 221.594 128.34C221.316 127.503 223.4 124.853 226.179 122.202C226.662 121.608 227.285 121.145 227.992 120.855C228.699 120.565 229.467 120.456 230.226 120.539C230.985 120.622 231.711 120.895 232.339 121.331C232.966 121.768 233.476 122.355 233.82 123.039C234.074 123.755 234.147 124.522 234.033 125.273C233.919 126.024 233.622 126.736 233.168 127.343C232.714 127.951 232.117 128.436 231.431 128.756C230.745 129.076 229.991 129.221 229.235 129.177Z" fill="#7D7A7C"/>
<path d="M231.875 126.805C231.567 126.937 231.234 127.001 230.899 126.994C230.564 126.986 230.235 126.907 229.932 126.762C229.63 126.617 229.362 126.409 229.146 126.152C228.93 125.895 228.771 125.595 228.68 125.271C228.516 124.982 228.414 124.661 228.382 124.33C228.349 123.998 228.387 123.664 228.492 123.348C228.597 123.032 228.767 122.742 228.99 122.497C229.214 122.251 229.487 122.056 229.791 121.923C230.436 121.646 231.164 121.637 231.815 121.898C232.467 122.16 232.988 122.671 233.264 123.318C233.541 123.965 233.55 124.697 233.289 125.351C233.029 126.005 232.52 126.528 231.875 126.805Z" fill="#F9E6CF"/>
<path opacity="0.5" d="M265.635 117.319C261.46 118.133 257.168 118.133 252.992 117.319C255.923 114.197 259.472 111.726 263.412 110.066C270.498 106.299 275.36 108.113 276.055 110.066C276.75 112.019 274.527 116.343 265.635 117.319Z" fill="#7D7A7C"/>
<path d="M271.47 114.529C269.247 115.227 267.024 114.529 266.608 113.134C266.191 111.739 267.58 110.065 269.803 109.368C272.026 108.67 274.249 109.368 274.665 110.623C275.082 111.879 273.693 113.832 271.47 114.529Z" fill="#F9E6CF"/>
<path opacity="0.5" d="M196.17 131.269C192.419 131.269 188.946 131.27 188.668 130.572C188.39 129.875 190.335 126.945 193.252 124.434C193.739 123.871 194.354 123.434 195.046 123.163C195.737 122.891 196.484 122.792 197.222 122.875C197.96 122.957 198.667 123.218 199.283 123.636C199.898 124.053 200.403 124.614 200.755 125.271C202.144 127.085 201.588 130.99 196.17 131.269Z" fill="#7D7A7C"/>
<path d="M199.365 129.037C199.055 129.148 198.726 129.196 198.398 129.178C198.069 129.161 197.747 129.079 197.45 128.936C197.153 128.794 196.888 128.594 196.668 128.348C196.448 128.102 196.279 127.815 196.17 127.503C195.873 126.89 195.822 126.185 196.029 125.535C196.236 124.886 196.685 124.342 197.281 124.015C197.909 123.858 198.571 123.925 199.154 124.205C199.737 124.485 200.205 124.961 200.477 125.55C200.774 126.163 200.824 126.868 200.617 127.517C200.41 128.167 199.962 128.711 199.365 129.037Z" fill="#F9E6CF"/>
<path opacity="0.5" d="M227.985 113.553C224.699 114.363 221.268 114.363 217.982 113.553C217.982 113.553 220.622 109.508 224.79 106.16C228.957 102.812 233.82 103.649 234.793 106.16C235.765 108.671 234.515 112.158 227.985 113.553Z" fill="#7D7A7C"/>
<path d="M231.736 110.623C231.4 110.851 231.017 111.002 230.617 111.065C230.216 111.128 229.807 111.103 229.417 110.99C229.027 110.877 228.666 110.68 228.36 110.413C228.054 110.146 227.81 109.814 227.646 109.442C227.481 109.07 227.4 108.666 227.407 108.259C227.414 107.851 227.51 107.451 227.688 107.085C227.866 106.719 228.122 106.396 228.437 106.14C228.752 105.884 229.12 105.7 229.513 105.602C229.849 105.404 230.222 105.276 230.608 105.225C230.994 105.175 231.387 105.202 231.762 105.306C232.138 105.41 232.489 105.589 232.794 105.831C233.1 106.073 233.354 106.375 233.542 106.718C233.812 107.476 233.774 108.311 233.436 109.042C233.098 109.773 232.488 110.341 231.736 110.623Z" fill="#F9E6CF"/>
<path opacity="0.5" d="M232.847 102.114C230.161 103.719 227.082 104.541 223.956 104.485C223.956 104.485 225.206 100.3 227.846 96.6735C230.486 93.0465 235.07 93.186 236.321 94.86C237.571 96.534 237.849 100.161 232.847 102.114Z" fill="#7D7A7C"/>
<path d="M235.487 98.9055C234.968 99.4167 234.27 99.7031 233.542 99.7031C232.815 99.7031 232.117 99.4167 231.597 98.9055C231.088 98.384 230.803 97.6828 230.803 96.9525C230.803 96.2222 231.088 95.5211 231.597 94.9995C232.172 94.7142 232.827 94.6374 233.452 94.7819C234.077 94.9265 234.633 95.2837 235.026 95.7928C235.418 96.3019 235.623 96.9316 235.606 97.5752C235.589 98.2189 235.35 98.8367 234.931 99.3241L235.487 98.9055Z" fill="#F9E6CF"/>
<path opacity="0.5" d="M255.493 91.5119C250.909 93.1859 246.602 94.023 246.185 93.3255C245.768 92.628 248.13 89.0009 251.464 85.2344C254.798 81.4679 259.661 81.7469 260.772 83.5604C261.884 85.3739 261.606 89.4194 255.493 91.5119Z" fill="#7D7A7C"/>
<path d="M258.689 88.1641C258.146 88.6842 257.424 88.9745 256.674 88.9745C255.924 88.9745 255.202 88.6842 254.66 88.1641C254.299 87.4741 254.213 86.672 254.419 85.9207C254.626 85.1694 255.109 84.5251 255.771 84.1185C256.031 83.8442 256.343 83.6257 256.689 83.4764C257.036 83.3271 257.409 83.2501 257.786 83.2501C258.162 83.2501 258.535 83.3271 258.882 83.4764C259.228 83.6257 259.541 83.8442 259.8 84.1185C260.018 84.4504 260.162 84.8251 260.224 85.2176C260.285 85.6101 260.263 86.0112 260.158 86.3942C260.052 86.7772 259.867 87.1332 259.614 87.4385C259.36 87.7437 259.045 87.9911 258.689 88.1641Z" fill="#F9E6CF"/>
<path opacity="0.5" d="M245.49 72.9585C241.843 75.7701 237.693 77.8537 233.264 79.0965C234.848 74.735 237.307 70.7466 240.489 67.3785C245.768 60.4035 251.186 59.8455 252.576 61.38C253.965 62.9145 253.409 67.9365 245.49 72.9585Z" fill="#7D7A7C"/>
<path d="M249.658 67.6575C247.852 69.471 245.49 69.8895 244.518 68.7735C243.545 67.6575 244.518 65.4256 246.046 63.7516C247.574 62.0776 250.353 61.5195 251.325 62.6355C252.298 63.7515 251.742 65.9835 249.658 67.6575Z" fill="#F9E6CF"/>
<path opacity="0.5" d="M239.655 66.123C236.672 68.5892 233.148 70.3103 229.374 71.145C230.206 67.3555 231.92 63.8178 234.376 60.822C238.405 54.684 243.267 54.4049 244.796 55.7999C246.324 57.1949 246.324 62.6355 239.655 66.123Z" fill="#7D7A7C"/>
<path d="M242.851 61.5195C241.322 63.054 239.377 63.4726 238.266 62.3566C237.779 61.6319 237.593 60.7446 237.749 59.8843C237.905 59.0241 238.389 58.2592 239.099 57.7531C239.624 57.0678 240.384 56.6026 241.231 56.448C242.078 56.2933 242.952 56.4601 243.684 56.9161C244.171 57.6407 244.357 58.528 244.201 59.3883C244.045 60.2485 243.561 61.0135 242.851 61.5195Z" fill="#F9E6CF"/>
<path opacity="0.5" d="M214.37 78.3989C210.896 80.9099 207.423 82.7234 206.868 82.3049C206.589 79.4264 207.118 76.5269 208.396 73.9349C210.202 68.9129 214.231 68.7734 215.898 70.0289C217.565 71.2844 218.954 75.0509 214.37 78.3989Z" fill="#7D7A7C"/>
<path d="M215.898 74.6325C215.474 75.2059 214.841 75.5869 214.138 75.6916C213.434 75.7962 212.718 75.616 212.147 75.1905C211.576 74.765 211.196 74.1291 211.092 73.4228C210.988 72.7164 211.167 71.9974 211.591 71.424C211.801 71.14 212.064 70.9003 212.366 70.7186C212.668 70.5369 213.003 70.4167 213.351 70.3649C213.7 70.3131 214.055 70.3306 214.397 70.4166C214.738 70.5026 215.059 70.6553 215.342 70.866C215.625 71.0766 215.864 71.3412 216.045 71.6445C216.226 71.9478 216.345 72.2839 216.397 72.6337C216.449 72.9834 216.431 73.3399 216.345 73.6829C216.26 74.0259 216.108 74.3485 215.898 74.6325Z" fill="#F9E6CF"/>
<path opacity="0.5" d="M221.316 46.593C218.653 49.6849 215.392 52.2004 211.73 53.9865C212.03 49.9367 213.166 45.9937 215.064 42.408C218.121 35.2935 222.983 33.759 224.651 35.0145C226.318 36.27 227.151 40.8735 221.316 46.593Z" fill="#7D7A7C"/>
<path d="M223.956 41.1525C222.706 43.1055 220.76 43.803 219.51 42.966C218.26 42.129 218.26 40.0366 219.51 38.0836C220.76 36.1306 222.844 35.433 224.095 36.27C225.345 37.107 225.067 39.339 223.956 41.1525Z" fill="#F9E6CF"/>
<path opacity="0.5" d="M189.085 80.0729C185.889 83.0024 182.833 85.2344 182.138 84.8159C181.443 84.3974 182.138 80.631 182.138 76.446C182.138 72.261 187.279 70.5869 189.085 71.5634C190.891 72.5399 193.114 76.5854 189.085 80.0729Z" fill="#7D7A7C"/>
<path d="M190.057 76.5856C189.707 77.2145 189.122 77.6781 188.432 77.8743C187.742 78.0705 187.002 77.9833 186.375 77.6318C185.749 77.2803 185.287 76.6934 185.092 76.0001C184.896 75.3069 184.983 74.564 185.333 73.9351C185.506 73.6323 185.737 73.3667 186.012 73.1536C186.287 72.9405 186.602 72.7841 186.937 72.6934C187.273 72.6027 187.623 72.5794 187.968 72.6249C188.312 72.6704 188.645 72.7838 188.945 72.9586C189.259 73.1201 189.537 73.343 189.763 73.614C189.989 73.8851 190.159 74.1988 190.263 74.5368C190.366 74.8748 190.401 75.2302 190.366 75.5821C190.331 75.9339 190.226 76.2751 190.057 76.5856Z" fill="#F9E6CF"/>
<path opacity="0.5" d="M172.691 109.507C169.356 112.018 166.022 113.692 165.466 113.274C165.095 110.526 165.479 107.728 166.578 105.183C168.106 100.44 172.135 100.161 173.802 101.416C175.469 102.672 176.998 106.299 172.691 109.507Z" fill="#7D7A7C"/>
<path d="M173.941 105.88C173.452 106.341 172.806 106.598 172.135 106.598C171.464 106.598 170.818 106.341 170.329 105.88C170.085 105.646 169.891 105.365 169.758 105.053C169.626 104.741 169.558 104.406 169.558 104.067C169.558 103.728 169.626 103.393 169.758 103.081C169.891 102.769 170.085 102.488 170.329 102.253C170.818 101.792 171.464 101.536 172.135 101.536C172.806 101.536 173.452 101.792 173.941 102.253C174.185 102.488 174.379 102.769 174.511 103.081C174.644 103.393 174.712 103.728 174.712 104.067C174.712 104.406 174.644 104.741 174.511 105.053C174.379 105.365 174.185 105.646 173.941 105.88Z" fill="#F9E6CF"/>
<path opacity="0.5" d="M218.954 38.223C215.992 42.2431 212.375 45.733 208.257 48.546C208.822 43.6502 210.332 38.9119 212.703 34.596C216.454 25.8075 221.733 23.2964 223.4 24.4124C225.067 25.5284 225.762 30.5505 218.954 38.223Z" fill="#7D7A7C"/>
<path d="M222.011 31.527C220.622 33.8985 218.399 35.154 217.009 34.4565C215.62 33.759 216.037 31.1085 217.009 28.737C217.982 26.3655 220.761 24.9705 222.011 25.8075C223.261 26.6445 223.956 29.1555 222.011 31.527Z" fill="#F9E6CF"/>
<path opacity="0.5" d="M194.503 60.1245C190.752 64.728 187 68.355 186.306 68.076C185.963 64.1846 186.534 60.2666 187.973 56.637C189.779 49.5225 194.364 47.709 196.17 48.6855C197.976 49.662 199.504 53.9865 194.503 60.1245Z" fill="#7D7A7C"/>
<path d="M196.17 54.684C195.197 56.4975 193.391 57.6135 192.002 56.916C191.435 56.2571 191.123 55.4153 191.123 54.5444C191.123 53.6736 191.435 52.8319 192.002 52.173C192.974 50.3595 194.92 49.3829 196.17 50.0804C197.42 50.7779 197.142 52.731 196.17 54.684Z" fill="#F9E6CF"/>
<path opacity="0.5" d="M168.384 95.5574C166.161 96.9524 163.66 97.7894 162.965 97.3709C161.948 95.6507 161.602 93.6131 161.993 91.6515C161.993 88.443 165.605 88.8614 167.411 89.8379C169.217 90.8144 171.162 93.7439 168.384 95.5574Z" fill="#7D7A7C"/>
<path d="M168.384 93.0465C168.384 93.8835 166.578 93.0465 165.188 93.0465C163.799 93.0465 163.243 91.0935 163.66 90.396C164.077 89.6985 165.466 89.6985 166.855 90.396C168.245 91.0935 168.384 92.349 168.384 93.0465Z" fill="#F9E6CF"/>
<path opacity="0.5" d="M188.529 37.2465C185.055 42.408 181.443 46.4535 180.749 46.1745C180.458 42.2962 180.979 38.3999 182.277 34.7355C183.666 27.342 188.112 24.9705 190.057 25.8075C192.002 26.6445 193.113 30.5505 188.529 37.2465Z" fill="#7D7A7C"/>
<path d="M189.779 31.5269C188.945 33.6194 187.139 34.7354 185.889 34.1774C184.639 33.6194 183.944 31.5269 184.916 29.4344C185.889 27.3419 187.556 26.2259 188.807 26.9234C189.539 27.408 190.052 28.1629 190.234 29.0247C190.416 29.8864 190.253 30.7854 189.779 31.5269Z" fill="#F9E6CF"/>
<path opacity="0.5" d="M118.23 165.447C119.302 166.189 120.164 167.199 120.731 168.376C121.025 169.709 121.025 171.09 120.731 172.422C120.731 174.096 118.924 171.306 118.23 169.353C117.535 167.4 116.702 164.191 118.23 165.447Z" fill="#7D7A7C"/>
<path d="M117.952 166.563C117.952 166.563 118.786 167.539 119.341 168.934C119.897 170.329 120.175 171.585 119.341 171.585C118.508 171.585 118.508 170.748 117.952 169.353C117.396 167.958 117.674 166.702 117.952 166.563Z" fill="#F9E6CF"/>
<path opacity="0.5" d="M108.088 162.936C109.75 163.014 111.349 163.598 112.673 164.61C112.932 166.302 112.588 168.031 111.7 169.492C110.589 171.724 108.088 169.492 107.115 167.679C106.143 165.865 105.448 162.378 108.088 162.936Z" fill="#7D7A7C"/>
<path d="M107.254 164.47C107.254 164.47 108.782 164.47 109.477 166.423C110.172 168.376 110.311 168.934 109.477 169.353C108.643 169.771 107.949 169.353 107.254 167.4C106.56 165.447 106.699 164.749 107.254 164.47Z" fill="#F9E6CF"/>
<path opacity="0.5" d="M112.812 193.905C114.27 192.563 116.122 191.732 118.091 191.534C118.091 191.534 119.48 194.463 119.48 197.253C119.48 200.043 115.868 200.601 114.062 199.764C112.256 198.927 109.477 195.998 112.812 193.905Z" fill="#7D7A7C"/>
<path d="M112.812 196.416C112.812 195.718 114.618 195.579 116.007 196.416C117.396 197.253 118.091 198.229 117.674 199.066C117.257 199.903 115.868 199.903 114.618 199.066C113.367 198.229 111.978 197.253 112.812 196.416Z" fill="#F9E6CF"/>
<path opacity="0.5" d="M91.4163 196.555C93.3568 195.917 95.4497 195.917 97.3902 196.555C97.5534 198.626 97.0148 200.69 95.862 202.415C94.1948 205.484 90.9994 203.949 89.749 202.415C88.4986 200.88 87.6652 197.253 91.4163 196.555Z" fill="#7D7A7C"/>
<path d="M90.0268 198.787C90.0268 198.787 92.1109 198.787 92.9445 200.043C93.7781 201.298 94.0559 202.694 92.9445 203.252C92.3886 203.414 91.7937 203.377 91.2617 203.148C90.7297 202.919 90.2933 202.512 90.0268 201.996C89.4711 200.88 89.3322 199.345 90.0268 198.787Z" fill="#F9E6CF"/>
<path opacity="0.5" d="M86.6925 150.52C89.3322 151.915 91.4163 153.868 91.4163 154.566C91.4163 155.263 89.0544 156.937 86.1369 158.053C83.2194 159.169 81.4132 155.961 81.5522 153.868C81.6911 151.776 83.3582 148.567 86.6925 150.52Z" fill="#7D7A7C"/>
<path d="M84.0527 151.357C85.0252 151.357 85.72 152.613 85.72 154.147C85.72 155.682 84.7475 156.798 83.775 156.798C82.8024 156.798 82.1078 155.403 82.2467 153.868C82.3856 152.334 83.2191 151.218 84.0527 151.357Z" fill="#F9E6CF"/>
<path opacity="0.5" d="M117.952 128.2C118.487 129.927 118.487 131.775 117.952 133.501C116.227 133.998 114.398 133.998 112.673 133.501C109.894 132.664 111.284 129.595 112.673 128.2C114.062 126.805 117.257 125.131 117.952 128.2Z" fill="#7D7A7C"/>
<path d="M115.868 127.503C115.868 127.503 115.868 129.177 114.757 130.293C113.645 131.409 112.395 131.688 111.978 131.13C111.561 130.572 111.978 129.456 112.95 128.34C113.923 127.224 115.312 126.945 115.868 127.503Z" fill="#F9E6CF"/>
<path opacity="0.5" d="M118.785 117.18C119.463 119.217 119.463 121.42 118.785 123.457C116.667 123.694 114.528 123.255 112.673 122.202C109.338 120.946 110.589 117.459 112.673 116.064C114.757 114.669 117.674 113.413 118.785 117.18Z" fill="#7D7A7C"/>
<path d="M116.424 116.064C117.118 116.762 116.424 118.156 115.59 119.133C114.757 120.109 113.089 120.388 112.395 119.133C111.7 117.877 112.395 117.04 113.228 115.924C114.062 114.808 115.729 115.227 116.424 116.064Z" fill="#F9E6CF"/>
<path opacity="0.5" d="M102.947 129.316C103.461 131.093 103.461 132.98 102.947 134.757C101.185 135.323 99.2912 135.323 97.5291 134.757C94.6116 134.757 95.723 130.851 97.5291 129.316C99.3352 127.782 101.975 126.247 102.947 129.316Z" fill="#7D7A7C"/>
<path d="M100.725 128.759C100.725 128.759 100.725 130.572 100.725 131.688C100.725 132.804 98.5015 133.362 97.9458 132.944C97.3901 132.525 97.9459 131.13 98.6405 130.014C99.3352 128.898 100.169 128.34 100.725 128.759Z" fill="#F9E6CF"/>
<path opacity="0.5" d="M98.9185 108.112C100.169 111.46 100.864 114.529 100.308 115.087C99.7521 115.645 96.5567 115.087 93.5002 113.134C92.8357 112.885 92.2456 112.47 91.7858 111.927C91.326 111.385 91.0117 110.734 90.8726 110.035C90.7334 109.337 90.7742 108.614 90.9909 107.936C91.2076 107.258 91.593 106.646 92.1108 106.159C92.6186 105.64 93.2566 105.268 93.9575 105.082C94.6583 104.896 95.3961 104.904 96.0931 105.104C96.79 105.303 97.4204 105.689 97.9177 106.218C98.4149 106.748 98.7606 107.402 98.9185 108.112Z" fill="#7D7A7C"/>
<path d="M95.584 106.578C96.0251 107.022 96.2729 107.624 96.2729 108.252C96.2729 108.879 96.0251 109.481 95.584 109.926C95.103 110.348 94.486 110.58 93.8473 110.58C93.2087 110.58 92.5917 110.348 92.1107 109.926C91.8095 109.374 91.7031 108.736 91.8088 108.115C91.9145 107.495 92.226 106.928 92.6928 106.508C93.1596 106.088 93.7543 105.839 94.3801 105.801C95.0058 105.763 95.626 105.938 96.1398 106.299L95.584 106.578Z" fill="#F9E6CF"/>
<path opacity="0.5" d="M101.975 106.02C102.67 108.95 102.67 111.74 101.975 112.158C101.28 112.577 98.6406 112.158 96.0009 110.484C93.3612 108.81 94.3337 105.602 96.0009 104.207C97.668 102.812 101.141 102.114 101.975 106.02Z" fill="#7D7A7C"/>
<path d="M99.6132 104.486C99.8548 105.043 99.8741 105.672 99.6673 106.243C99.4604 106.814 99.0433 107.283 98.5017 107.555C97.3903 108.531 95.8621 108.671 95.3064 107.555C94.7507 106.439 95.3064 105.462 96.4179 104.486C96.8668 104.111 97.4319 103.906 98.0154 103.906C98.599 103.906 99.1643 104.111 99.6132 104.486Z" fill="#F9E6CF"/>
<path opacity="0.5" d="M116.007 92.628C116.007 95.976 115.173 99.045 114.479 99.324C113.784 99.603 111.283 97.65 109.06 95.139C108.6 94.6509 108.269 94.0554 108.095 93.4064C107.922 92.7574 107.912 92.0752 108.067 91.4215C108.222 90.7678 108.537 90.1632 108.983 89.6622C109.429 89.1612 109.993 88.7797 110.622 88.5521C111.252 88.3245 111.928 88.258 112.59 88.3585C113.251 88.4591 113.878 88.7235 114.412 89.128C114.947 89.5325 115.372 90.0644 115.651 90.6754C115.929 91.2865 116.051 91.9576 116.007 92.628Z" fill="#7D7A7C"/>
<path d="M114.062 90.5355C114.062 91.6515 114.062 92.907 112.256 93.465C111.672 93.7068 111.024 93.7418 110.418 93.5644C109.812 93.3869 109.284 93.0074 108.921 92.4885C108.91 91.8842 109.085 91.291 109.422 90.7904C109.76 90.2898 110.243 89.9063 110.806 89.6924C111.369 89.4785 111.984 89.4447 112.567 89.5956C113.15 89.7466 113.672 90.0749 114.062 90.5355Z" fill="#F9E6CF"/>
<path opacity="0.5" d="M143.515 97.7895C142.126 101.556 140.042 104.764 139.347 104.625C138.653 104.485 137.124 101.277 136.152 97.2315C135.179 93.186 138.236 90.2565 140.32 90.396C142.404 90.5355 145.599 92.907 143.515 97.7895Z" fill="#7D7A7C"/>
<path d="M142.821 94.0231C142.786 94.3719 142.683 94.7103 142.517 95.0188C142.351 95.3273 142.126 95.5997 141.855 95.8203C141.583 96.0409 141.271 96.2052 140.936 96.3038C140.601 96.4023 140.25 96.4332 139.903 96.3945C139.227 96.3588 138.591 96.0639 138.126 95.5706C137.66 95.0774 137.401 94.4235 137.402 93.7441C137.437 93.3953 137.54 93.0568 137.706 92.7483C137.872 92.4398 138.097 92.1674 138.368 91.9468C138.639 91.7263 138.952 91.562 139.287 91.4634C139.622 91.3648 139.973 91.334 140.32 91.3726C140.66 91.3721 140.997 91.4413 141.31 91.5761C141.623 91.711 141.905 91.9085 142.139 92.1567C142.373 92.4048 142.554 92.6983 142.672 93.0193C142.789 93.3402 142.84 93.6818 142.821 94.0231Z" fill="#F9E6CF"/>
<path opacity="0.5" d="M78.0788 168.934C80.752 168.633 83.4547 169.118 85.8589 170.33C85.8589 171.027 83.6361 173.817 80.3018 176.049C79.7493 176.62 79.0662 177.046 78.312 177.291C77.5579 177.536 76.7554 177.592 75.9746 177.455C75.1939 177.317 74.4585 176.99 73.8324 176.502C73.2064 176.014 72.7086 175.379 72.3826 174.654C71.8269 172.701 72.7995 168.795 78.0788 168.934Z" fill="#7D7A7C"/>
<path d="M74.8836 171.027C75.5465 170.854 76.2504 170.946 76.8466 171.285C77.4429 171.623 77.8847 172.181 78.079 172.841C78.3061 173.489 78.2737 174.2 77.9886 174.825C77.7035 175.449 77.1879 175.938 76.5507 176.189C75.8878 176.362 75.1839 176.269 74.5877 175.931C73.9914 175.592 73.5496 175.034 73.3554 174.375C73.1283 173.727 73.1606 173.016 73.4457 172.391C73.7308 171.766 74.2464 171.277 74.8836 171.027Z" fill="#F9E6CF"/>
<path opacity="0.5" d="M71.1323 177.305C73.2366 177.305 75.284 177.99 76.9674 179.258C76.3983 181.242 75.2922 183.028 73.7721 184.419C71.4102 186.93 68.7705 184.419 68.0759 182.466C67.3812 180.513 68.0759 176.886 71.1323 177.305Z" fill="#7D7A7C"/>
<path d="M69.8819 179.118C70.7155 179.118 71.8269 179.118 72.3826 181.071C72.9383 183.024 72.3825 183.861 71.6879 184.14C70.9932 184.419 69.743 184.14 69.1872 182.187C68.6315 180.234 69.0483 179.397 69.8819 179.118Z" fill="#F9E6CF"/>
<path opacity="0.5" d="M69.1874 199.206C71.7495 198.204 74.5334 197.915 77.2454 198.369C77.2454 199.066 75.856 202.275 73.2163 205.484C72.8051 206.173 72.2395 206.756 71.5643 207.187C70.8891 207.618 70.1229 207.884 69.3269 207.966C68.531 208.047 67.7271 207.941 66.9793 207.655C66.2315 207.369 65.5604 206.912 65.0195 206.32C63.908 204.507 63.9081 200.462 69.1874 199.206Z" fill="#7D7A7C"/>
<path d="M66.5477 202.135C67.1628 201.817 67.8739 201.741 68.5419 201.922C69.21 202.102 69.7869 202.527 70.1598 203.112C70.3652 203.391 70.5109 203.71 70.5874 204.048C70.6639 204.387 70.6697 204.737 70.6044 205.078C70.5391 205.419 70.4042 205.743 70.2082 206.028C70.0121 206.314 69.7592 206.556 69.4654 206.739C68.8745 207.104 68.1643 207.221 67.4883 207.064C66.8123 206.908 66.2248 206.49 65.853 205.902C65.4682 205.304 65.3258 204.58 65.4549 203.88C65.5841 203.18 65.9751 202.556 66.5477 202.135Z" fill="#F9E6CF"/>
<path opacity="0.5" d="M88.0819 256.122C91.1384 252.077 94.1949 249.008 94.8896 249.287C95.7717 252.481 95.7717 255.857 94.8896 259.052C94.056 265.05 89.888 266.585 88.0819 265.748C86.2758 264.911 84.0529 261.144 88.0819 256.122Z" fill="#7D7A7C"/>
<path d="M87.2484 260.586C87.3944 260.265 87.6017 259.977 87.8588 259.737C88.1158 259.497 88.4174 259.31 88.7464 259.187C89.0753 259.064 89.4252 259.007 89.776 259.019C90.1268 259.032 90.4717 259.114 90.791 259.261C91.1103 259.407 91.3977 259.616 91.6369 259.874C91.876 260.132 92.0623 260.435 92.1849 260.765C92.3074 261.095 92.3639 261.446 92.3513 261.799C92.3386 262.151 92.2568 262.497 92.1109 262.818C92.0015 263.181 91.8195 263.518 91.5758 263.809C91.3321 264.099 91.0321 264.336 90.6939 264.506C90.3558 264.676 89.9866 264.774 89.6092 264.796C89.2317 264.818 88.8539 264.762 88.4988 264.631C88.1458 264.455 87.8321 264.209 87.5766 263.907C87.3211 263.606 87.1291 263.255 87.0123 262.877C86.8954 262.499 86.8561 262.101 86.8967 261.707C86.9373 261.313 87.0569 260.932 87.2484 260.586Z" fill="#F9E6CF"/>
<path opacity="0.5" d="M93.3613 216.923C94.9871 215.588 96.9679 214.763 99.0573 214.551C99.752 214.551 100.03 217.899 99.752 220.829C99.4741 223.758 95.723 224.037 94.0558 223.061C92.3886 222.084 90.1659 219.015 93.3613 216.923Z" fill="#7D7A7C"/>
<path d="M92.9445 219.573C92.9445 218.736 94.8895 218.736 96.1399 219.573C97.3903 220.41 98.0848 221.666 97.5291 222.503C96.9733 223.34 95.5841 223.34 94.3337 222.503C93.0833 221.666 92.3888 220.41 92.9445 219.573Z" fill="#F9E6CF"/>
<path opacity="0.5" d="M76.9674 228.78C80.3017 226.129 83.6361 224.176 84.1918 224.595C84.5656 227.435 84.1821 230.323 83.0804 232.965C81.6911 237.847 77.5231 238.266 75.8559 237.01C74.1888 235.755 72.6605 232.128 76.9674 228.78Z" fill="#7D7A7C"/>
<path d="M75.7171 232.546C75.9506 232.302 76.231 232.107 76.5414 231.974C76.8518 231.841 77.1858 231.772 77.5233 231.772C77.8608 231.772 78.1946 231.841 78.505 231.974C78.8154 232.107 79.0958 232.302 79.3293 232.546C79.915 232.92 80.3309 233.51 80.4869 234.188C80.6429 234.867 80.5264 235.58 80.1628 236.173C79.9174 236.422 79.6253 236.62 79.3034 236.755C78.9815 236.889 78.6361 236.959 78.2873 236.959C77.9385 236.959 77.5932 236.889 77.2712 236.755C76.9493 236.62 76.6573 236.422 76.4118 236.173C76.118 235.991 75.8649 235.749 75.6688 235.463C75.4727 235.177 75.3379 234.854 75.2726 234.513C75.2073 234.172 75.2133 233.821 75.2898 233.483C75.3663 233.144 75.5117 232.826 75.7171 232.546Z" fill="#F9E6CF"/>
<path opacity="0.5" d="M61.4072 232.965C65.7141 230.454 69.8819 228.78 70.4376 229.338C70.9933 229.896 69.3262 233.941 66.5476 238.266C63.769 242.59 58.9065 243.567 57.5172 242.032C56.1279 240.498 55.7111 236.313 61.4072 232.965Z" fill="#7D7A7C"/>
<path d="M58.7675 237.011C59.3333 236.481 60.0779 236.187 60.8514 236.187C61.6249 236.187 62.3697 236.481 62.9355 237.011C63.2127 237.283 63.433 237.609 63.5833 237.968C63.7337 238.327 63.8112 238.713 63.8112 239.103C63.8112 239.493 63.7337 239.879 63.5833 240.238C63.433 240.597 63.2127 240.923 62.9355 241.195C62.438 241.695 61.7633 241.976 61.0598 241.976C60.3563 241.976 59.6817 241.695 59.1843 241.195C58.6869 240.696 58.4073 240.019 58.4073 239.312C58.4073 238.606 58.6869 237.928 59.1843 237.429L58.7675 237.011Z" fill="#F9E6CF"/>
<path opacity="0.5" d="M48.6256 226.269C51.4083 224.578 54.5507 223.574 57.7949 223.339C57.0309 226.541 55.5055 229.509 53.3492 231.988C49.876 237.01 45.4301 236.592 44.1798 234.918C42.9294 233.244 43.3463 229.059 48.6256 226.269Z" fill="#7D7A7C"/>
<path d="M45.7081 230.035C45.9624 229.705 46.2874 229.436 46.659 229.248C47.0307 229.061 47.4396 228.959 47.8555 228.952C48.2714 228.944 48.6839 229.03 49.0622 229.204C49.4405 229.378 49.7751 229.634 50.0414 229.955C50.3077 230.276 50.4989 230.653 50.6008 231.058C50.7027 231.463 50.7128 231.886 50.6303 232.295C50.5477 232.704 50.3746 233.09 50.1238 233.423C49.8731 233.756 49.551 234.029 49.1813 234.22C48.9097 234.499 48.5854 234.72 48.2276 234.871C47.8697 235.022 47.4856 235.1 47.0974 235.1C46.7093 235.1 46.3249 235.022 45.9671 234.871C45.6093 234.72 45.285 234.499 45.0134 234.22C44.5702 233.567 44.3951 232.768 44.5245 231.988C44.6539 231.208 45.0779 230.509 45.7081 230.035Z" fill="#F9E6CF"/>
<path opacity="0.5" d="M31.3983 200.043C34.8845 198.87 38.5963 198.536 42.2348 199.066C42.2348 199.066 39.1783 203.391 34.5936 206.879C30.0089 210.366 24.7296 209.808 23.757 207.855C22.7845 205.902 24.1739 202.135 31.3983 200.043Z" fill="#7D7A7C"/>
<path d="M27.0915 203.251C28.8975 202.414 30.9814 203.251 31.5371 204.088C31.6665 204.491 31.7153 204.916 31.6804 205.338C31.6456 205.76 31.5278 206.171 31.334 206.547C31.1403 206.923 30.8744 207.257 30.5516 207.529C30.2288 207.802 29.8555 208.007 29.4532 208.134C28.7348 208.551 27.8914 208.695 27.076 208.542C26.2605 208.388 25.5267 207.947 25.0074 207.297C24.8142 206.484 24.9185 205.628 25.301 204.885C25.6835 204.143 26.3189 203.563 27.0915 203.251Z" fill="#F9E6CF"/>
<path opacity="0.5" d="M58.6287 169.911C60.5299 169.987 62.3863 170.513 64.047 171.445C64.047 171.445 64.0469 174.096 62.5187 176.189C60.9905 178.281 57.934 176.189 57.1004 174.794C56.2668 173.399 55.5722 169.353 58.6287 169.911Z" fill="#7D7A7C"/>
<path d="M57.2394 171.445C57.2394 171.445 58.9065 171.445 59.74 173.259C60.5736 175.072 60.5736 175.909 59.74 176.328C58.9065 176.746 57.9341 176.328 57.2394 174.514C56.5447 172.701 57.2394 171.864 57.2394 171.445Z" fill="#F9E6CF"/>
<path opacity="0.5" d="M33.4821 164.749C37.7889 165.586 41.5401 166.842 41.5401 167.679C41.5401 168.516 38.3448 170.469 34.3158 172.143C30.2869 173.817 26.3966 171.446 26.1188 169.353C25.8409 167.261 27.9249 163.633 33.4821 164.749Z" fill="#7D7A7C"/>
<path d="M29.4533 166.145C30.1696 166.065 30.8886 166.267 31.4589 166.71C32.0292 167.152 32.4061 167.8 32.5098 168.516C32.5685 168.875 32.553 169.242 32.4642 169.595C32.3754 169.948 32.2153 170.279 31.9938 170.566C31.7722 170.854 31.4939 171.093 31.1763 171.269C30.8588 171.444 30.5088 171.552 30.148 171.585C29.7596 171.711 29.3483 171.749 28.9434 171.698C28.5386 171.646 28.1501 171.505 27.8055 171.286C27.4609 171.066 27.1687 170.773 26.9497 170.427C26.7306 170.081 26.5901 169.691 26.5382 169.285C26.4863 168.878 26.5242 168.465 26.6493 168.075C26.7743 167.685 26.9834 167.327 27.2617 167.028C27.54 166.728 27.8806 166.493 28.2593 166.341C28.6381 166.188 29.0458 166.121 29.4533 166.145Z" fill="#F9E6CF"/>
<path opacity="0.5" d="M17.644 158.472C21.3134 158.741 24.8752 159.837 28.0638 161.68C25.1211 163.903 21.6911 165.386 18.0608 166.005C11.3921 167.958 7.64099 164.889 7.64099 162.797C7.64099 160.704 10.2807 157.217 17.644 158.472Z" fill="#7D7A7C"/>
<path d="M12.5037 160.285C13.3325 160.121 14.1924 160.293 14.8953 160.763C15.5983 161.234 16.0872 161.965 16.2548 162.796C16.2548 164.191 14.7266 165.586 12.7816 165.586C10.8366 165.586 9.0304 164.61 9.0304 163.075C9.0304 161.541 10.4197 160.285 12.5037 160.285Z" fill="#F9E6CF"/>
<path opacity="0.5" d="M53.6272 146.335C57.6562 147.73 60.9905 149.544 60.9905 150.241C60.9905 150.939 57.5172 152.752 53.3493 153.868C49.1813 154.984 45.986 151.915 45.986 149.823C45.986 147.73 48.3478 145.08 53.6272 146.335Z" fill="#7D7A7C"/>
<path d="M49.7372 147.73C50.3511 147.871 50.8991 148.217 51.2918 148.711C51.6844 149.205 51.8983 149.819 51.8983 150.451C51.8983 151.083 51.6844 151.696 51.2918 152.191C50.8991 152.685 50.3511 153.031 49.7372 153.171C49.3786 153.172 49.0235 153.099 48.6938 152.957C48.3642 152.815 48.0668 152.607 47.8198 152.346C47.5728 152.085 47.3813 151.776 47.2572 151.438C47.133 151.1 47.0787 150.741 47.0975 150.381C47.1596 149.699 47.4575 149.061 47.9398 148.576C48.422 148.092 49.0581 147.793 49.7372 147.73Z" fill="#F9E6CF"/>
<path opacity="0.5" d="M20.4228 142.15C24.8257 142.7 29.0758 144.122 32.9264 146.335C28.9625 148.248 24.6716 149.385 20.2837 149.683C11.9479 150.939 7.77996 147.591 7.91889 145.498C8.05782 143.406 11.8091 140.197 20.4228 142.15Z" fill="#7D7A7C"/>
<path d="M14.1708 142.987C16.5326 142.987 18.4778 144.243 18.4778 145.777C18.4778 147.312 16.3939 148.428 13.8931 148.428C11.3924 148.428 9.5863 147.033 9.5863 145.498C9.5863 143.964 11.6701 142.848 14.1708 142.987Z" fill="#F9E6CF"/>
<path opacity="0.5" d="M7.91894 148.289C11.6701 149.405 15.0045 151.079 15.0045 151.776C15.0045 152.474 11.948 154.427 8.19686 155.822C7.51238 156.216 6.74254 156.437 5.95399 156.465C5.16545 156.494 4.38178 156.33 3.67064 155.987C2.95949 155.643 2.34241 155.131 1.87231 154.495C1.40222 153.859 1.09327 153.117 0.972412 152.334C1.66706 150.242 2.91744 146.336 7.91894 148.289Z" fill="#7D7A7C"/>
<path d="M4.3068 149.405C4.996 149.438 5.64793 149.728 6.13586 150.218C6.62378 150.708 6.91283 151.363 6.94651 152.055C6.98591 152.736 6.76229 153.406 6.32241 153.925C5.88253 154.445 5.26026 154.774 4.58472 154.845C3.89551 154.811 3.24337 154.521 2.75544 154.031C2.26752 153.541 1.97868 152.887 1.945 152.194C1.93743 151.522 2.17218 150.869 2.6062 150.356C3.04022 149.843 3.64423 149.505 4.3068 149.405Z" fill="#F9E6CF"/>
<path opacity="0.5" d="M65.8528 121.365C70.9932 124.713 74.8834 128.201 74.6055 128.898C70.8131 129.79 66.8667 129.79 63.0742 128.898C55.8498 127.643 53.6269 123.318 54.3215 121.365C55.0162 119.412 59.3231 116.901 65.8528 121.365Z" fill="#7D7A7C"/>
<path d="M60.2957 120.249C62.3797 121.086 63.4911 122.76 62.9354 124.155C62.4515 124.886 61.7106 125.408 60.8607 125.614C60.0108 125.821 59.1145 125.699 58.3507 125.271C56.4057 124.434 55.1553 122.76 55.711 121.365C56.1949 120.634 56.9358 120.112 57.7857 119.906C58.6356 119.699 59.5319 119.821 60.2957 120.249Z" fill="#F9E6CF"/>
<path opacity="0.5" d="M43.3463 118.436C48.07 121.923 51.821 125.55 51.5432 126.248C47.7667 126.778 43.9196 126.444 40.2898 125.271C33.2044 123.737 31.2594 119.273 32.093 117.459C32.9266 115.646 36.8166 113.832 43.3463 118.436Z" fill="#7D7A7C"/>
<path d="M37.5111 117.041C39.4561 117.878 40.5676 119.691 39.8729 121.086C39.1783 122.481 37.2332 122.899 35.2882 122.062C33.3431 121.225 32.3706 119.412 33.0652 118.017C33.7599 116.622 35.705 116.204 37.5111 117.041Z" fill="#F9E6CF"/>
<path opacity="0.5" d="M23.4792 119.83C26.777 121.258 29.7186 123.402 32.0929 126.108C28.6509 127.271 24.9751 127.559 21.3952 126.945C14.7265 126.945 12.3647 122.62 12.9204 120.667C13.4761 118.714 17.2274 116.203 23.4792 119.83Z" fill="#7D7A7C"/>
<path d="M18.3386 119.273C19.1639 119.41 19.9027 119.867 20.3962 120.545C20.8898 121.223 21.0987 122.068 20.9783 122.9C20.6423 123.673 20.0165 124.282 19.2364 124.595C18.4564 124.908 17.5848 124.901 16.8104 124.573C15.0043 124.573 13.7539 122.342 14.1707 120.947C14.5558 120.217 15.1861 119.649 15.9493 119.343C16.7124 119.036 17.559 119.011 18.3386 119.273Z" fill="#F9E6CF"/>
<path opacity="0.5" d="M78.0789 98.6265C79.885 102.254 80.9965 105.881 80.4407 106.439C77.7136 106.315 75.0717 105.447 72.7995 103.928C72.038 103.707 71.3418 103.302 70.7716 102.749C70.2014 102.196 69.7744 101.512 69.5279 100.756C69.2813 99.9991 69.2226 99.1936 69.357 98.4092C69.4914 97.6248 69.8148 96.8853 70.2989 96.255C70.9181 95.7363 71.6562 95.3803 72.4465 95.2192C73.2369 95.0581 74.0547 95.0969 74.8264 95.3321C75.5981 95.5673 76.2994 95.9916 76.8672 96.5667C77.435 97.1418 77.8514 97.8497 78.0789 98.6265Z" fill="#7D7A7C"/>
<path d="M74.7445 96.813C74.9883 97.0474 75.1823 97.3289 75.3148 97.6405C75.4473 97.9522 75.5158 98.2876 75.5158 98.6265C75.5158 98.9654 75.4473 99.3007 75.3148 99.6124C75.1823 99.9241 74.9883 100.206 74.7445 100.44C74.5228 100.704 74.2465 100.917 73.9345 101.062C73.6225 101.208 73.2826 101.283 72.9386 101.283C72.5945 101.283 72.2546 101.208 71.9426 101.062C71.6307 100.917 71.3541 100.704 71.1324 100.44C70.635 99.9405 70.3555 99.2631 70.3555 98.5567C70.3555 97.8504 70.635 97.1729 71.1324 96.6735C71.6298 96.174 72.3044 95.8934 73.0079 95.8934C73.7114 95.8934 74.3862 96.174 74.8836 96.6735L74.7445 96.813Z" fill="#F9E6CF"/>
<path opacity="0.5" d="M60.9904 92.7674C64.1858 96.8129 66.4086 100.719 65.8529 101.277C65.2971 101.835 61.1293 101.277 56.4057 98.7659C51.6821 96.2549 50.1538 91.7909 51.4042 90.1169C52.6546 88.4429 57.2393 87.4664 60.9904 92.7674Z" fill="#7D7A7C"/>
<path d="M57.2393 90.5355C57.5426 90.9272 57.7304 91.3965 57.7812 91.89C57.832 92.3835 57.7437 92.8814 57.5266 93.3271C57.3094 93.7727 56.9721 94.1483 56.5529 94.4109C56.1337 94.6736 55.6496 94.8128 55.1555 94.8128C54.6613 94.8128 54.177 94.6736 53.7578 94.4109C53.3386 94.1483 53.0013 93.7727 52.7841 93.3271C52.567 92.8814 52.479 92.3835 52.5297 91.89C52.5805 91.3965 52.7681 90.9272 53.0714 90.5355C53.3321 90.2386 53.6529 90.0009 54.0122 89.838C54.3715 89.6752 54.7612 89.5909 55.1555 89.5909C55.5497 89.5909 55.9392 89.6752 56.2985 89.838C56.6578 90.0009 56.9786 90.2386 57.2393 90.5355Z" fill="#F9E6CF"/>
<path opacity="0.5" d="M37.3723 95.4179C40.5677 98.7659 42.9295 102.253 42.5127 102.811C42.0959 103.369 38.0668 102.811 33.4821 101.835C28.8974 100.858 27.2303 96.1155 28.3417 94.302C29.4532 92.4885 33.2044 90.5354 37.3723 95.4179Z" fill="#7D7A7C"/>
<path d="M33.2045 94.1624C33.5367 94.3227 33.8316 94.5511 34.0705 94.8329C34.3094 95.1146 34.4871 95.4435 34.5918 95.7983C34.6965 96.1531 34.726 96.526 34.6785 96.8929C34.631 97.2599 34.5075 97.6128 34.316 97.9289C34.1185 98.244 33.8601 98.5162 33.5562 98.7294C33.2523 98.9427 32.909 99.0928 32.5465 99.1708C32.184 99.2488 31.8096 99.2531 31.4454 99.1836C31.0812 99.1141 30.7347 98.9721 30.4259 98.7659C29.7737 98.3854 29.2936 97.766 29.0864 97.0378C28.8791 96.3095 28.9609 95.529 29.3145 94.86C29.5229 94.556 29.7892 94.2966 30.0982 94.0968C30.4072 93.897 30.7527 93.7607 31.1145 93.6958C31.4763 93.6309 31.8473 93.6388 32.206 93.7189C32.5648 93.799 32.9042 93.9497 33.2045 94.1624Z" fill="#F9E6CF"/>
<path opacity="0.5" d="M39.5951 82.4445C43.9024 85.9151 47.5701 90.1173 50.4317 94.8601C45.0745 93.5482 39.9618 91.3816 35.2883 88.443C25.7021 83.5605 23.0625 77.7015 24.3129 76.0275C25.5633 74.3535 31.2593 74.3535 39.5951 82.4445Z" fill="#7D7A7C"/>
<path d="M32.3708 78.399C34.8716 80.2125 36.2607 82.7234 35.4271 83.9789C34.5935 85.2344 31.676 83.979 29.1753 82.863C26.6745 81.747 25.2852 78.5384 26.1188 77.2829C26.9524 76.0274 29.4533 76.5855 32.3708 78.399Z" fill="#F9E6CF"/>
<path opacity="0.5" d="M55.5723 59.148C57.5755 62.3787 58.8993 65.9866 59.4623 69.75C59.4623 69.75 54.3219 67.6575 49.7372 63.891C45.1525 60.1245 44.3187 54.6841 45.8469 53.2891C47.3752 51.8941 52.099 52.3125 55.5723 59.148Z" fill="#7D7A7C"/>
<path d="M51.2654 55.6606C51.5721 55.9596 51.8159 56.3174 51.9824 56.7128C52.1489 57.1082 52.2347 57.5331 52.2347 57.9623C52.2347 58.3916 52.1489 58.8164 51.9824 59.2118C51.8159 59.6072 51.5721 59.965 51.2654 60.2641C50.154 61.2406 48.2089 60.2641 46.8196 59.1481C46.2525 58.4892 45.9404 57.6474 45.9404 56.7766C45.9404 55.9058 46.2525 55.064 46.8196 54.4051C47.931 53.4286 50.0151 53.9866 51.2654 55.6606Z" fill="#F9E6CF"/>
<path opacity="0.5" d="M91.9719 81.0496C93.2222 85.2346 93.6391 89.001 92.9445 89.4195C92.2498 89.838 89.0544 87.885 85.72 85.2345C82.3857 82.584 83.0804 77.9806 84.8865 76.8646C86.6926 75.7486 90.5826 75.7486 91.9719 81.0496Z" fill="#7D7A7C"/>
<path d="M89.0544 78.399C89.3022 78.6455 89.499 78.9388 89.6333 79.262C89.7676 79.5853 89.8366 79.932 89.8366 80.2823C89.8366 80.6325 89.7676 80.9793 89.6333 81.3025C89.499 81.6258 89.3022 81.9191 89.0544 82.1656C88.5421 82.6361 87.8731 82.897 87.1789 82.897C86.4846 82.897 85.8156 82.6361 85.3034 82.1656C84.9323 81.5508 84.8119 80.816 84.9672 80.1143C85.1225 79.4126 85.5415 78.7981 86.1369 78.399C86.5694 78.1111 87.0767 77.9575 87.5956 77.9575C88.1145 77.9575 88.6219 78.1111 89.0544 78.399Z" fill="#F9E6CF"/>
<path opacity="0.5" d="M100.308 83.1421C101.141 87.0481 101.419 90.5355 100.308 90.954C99.1964 91.3725 96.5567 89.6985 93.5002 87.048C92.8698 86.612 92.3543 86.0287 91.9982 85.3482C91.6422 84.6678 91.4562 83.9107 91.4562 83.1421C91.4562 82.3734 91.6422 81.6162 91.9982 80.9358C92.3543 80.2554 92.8698 79.6721 93.5002 79.236C95.4452 78.12 98.9186 78.1201 100.308 83.1421Z" fill="#7D7A7C"/>
<path d="M97.668 80.6309C97.8341 80.9309 97.9371 81.2617 97.9708 81.6032C98.0045 81.9446 97.9681 82.2894 97.8639 82.6162C97.7598 82.943 97.5902 83.245 97.3653 83.5033C97.1404 83.7617 96.8652 83.971 96.5566 84.1184C96.3354 84.3594 96.0669 84.5517 95.768 84.6832C95.4691 84.8148 95.1463 84.8827 94.8199 84.8827C94.4936 84.8827 94.1708 84.8148 93.8719 84.6832C93.573 84.5517 93.3045 84.3594 93.0833 84.1184C92.9173 83.8185 92.8141 83.4876 92.7804 83.1462C92.7467 82.8047 92.7831 82.46 92.8872 82.1332C92.9914 81.8063 93.1612 81.5044 93.386 81.2461C93.6109 80.9877 93.8862 80.7784 94.1948 80.6309C94.6758 80.2091 95.2928 79.9766 95.9314 79.9766C96.5701 79.9766 97.1871 80.2091 97.668 80.6309Z" fill="#F9E6CF"/>
<path opacity="0.5" d="M68.7707 53.289C70.4172 56.4351 71.3205 59.9196 71.4104 63.4725C70.7158 63.4725 66.6867 61.2405 62.6577 57.474C58.6287 53.7075 58.2119 48.4065 60.018 47.2905C61.8241 46.1745 66.131 46.593 68.7707 53.289Z" fill="#7D7A7C"/>
<path d="M65.0194 49.662C65.5966 50.2605 65.9193 51.0609 65.9193 51.894C65.9193 52.7271 65.5966 53.5275 65.0194 54.126C64.6559 54.3161 64.258 54.4309 63.8494 54.4635C63.4408 54.496 63.0299 54.4458 62.6411 54.3156C62.2522 54.1855 61.8934 53.9781 61.586 53.7059C61.2786 53.4337 61.0287 53.1021 60.8515 52.731C60.3145 52.14 60.0168 51.3688 60.0168 50.5688C60.0168 49.7687 60.3145 48.9976 60.8515 48.4065C61.5756 48.0485 62.4081 47.979 63.1812 48.2119C63.9544 48.4448 64.6111 48.9628 65.0194 49.662Z" fill="#F9E6CF"/>
<path opacity="0.5" d="M88.3599 55.1025C89.7074 58.6089 90.2304 62.3803 89.8881 66.123C89.8881 66.123 85.4422 63.054 81.6911 58.59C77.9399 54.126 78.3567 48.4065 80.1628 47.43C81.9689 46.4535 86.4148 47.709 88.3599 55.1025Z" fill="#7D7A7C"/>
<path d="M85.0255 50.7781C85.5823 51.4145 85.8893 52.2326 85.8893 53.0798C85.8893 53.9269 85.5823 54.7451 85.0255 55.3815C84.1965 55.5829 83.3232 55.4833 82.5604 55.1004C81.7976 54.7174 81.1944 54.0758 80.8575 53.2891C80.2712 52.6673 79.9445 51.8436 79.9445 50.9873C79.9445 50.1311 80.2712 49.3073 80.8575 48.6855C82.1079 48.6855 84.0529 48.6856 85.0255 50.7781Z" fill="#F9E6CF"/>
<path opacity="0.5" d="M102.809 22.32C103.137 25.6739 102.71 29.059 101.558 32.2245C100.864 32.2245 98.0848 28.8765 95.5841 24.273C93.0833 19.6695 94.7505 14.9265 96.6956 14.3685C98.6406 13.8105 102.67 15.624 102.809 22.32Z" fill="#7D7A7C"/>
<path d="M100.586 17.9954C100.821 18.7555 100.766 19.5761 100.432 20.2979C100.098 21.0197 99.5095 21.5912 98.7796 21.9015C97.9886 22.0228 97.1815 21.8277 96.5321 21.3582C95.8827 20.8887 95.4427 20.1822 95.3064 19.3905C95.175 19.0243 95.1175 18.6355 95.1374 18.2469C95.1574 17.8582 95.2544 17.4775 95.4225 17.1268C95.5907 16.7762 95.8266 16.4626 96.1168 16.2046C96.407 15.9466 96.7453 15.7492 97.1123 15.624C97.8834 15.4988 98.673 15.6747 99.3189 16.1158C99.9649 16.5568 100.418 17.2294 100.586 17.9954Z" fill="#F9E6CF"/>
<path opacity="0.5" d="M110.311 26.7841C111.174 30.8301 111.174 35.014 110.311 39.0601C110.311 39.0601 106.421 34.7356 103.642 28.8766C100.863 23.0176 102.114 17.0191 103.642 16.6006C105.17 16.1821 109.755 18.4141 110.311 26.7841Z" fill="#7D7A7C"/>
<path d="M107.81 20.7855C107.81 23.0175 107.81 25.11 106.282 25.5285C104.753 25.947 103.225 24.4125 102.67 22.1805C102.114 19.9485 102.669 17.9955 104.059 17.577C105.448 17.1585 107.254 19.1115 107.81 20.7855Z" fill="#F9E6CF"/>
<path opacity="0.5" d="M122.537 49.9411C122.537 54.8236 121.703 59.148 120.87 59.2875C120.036 59.427 117.535 56.0791 115.173 51.7546C112.812 47.4301 115.173 42.8266 116.84 42.2686C118.508 41.7106 122.676 43.5241 122.537 49.9411Z" fill="#7D7A7C"/>
<path d="M120.453 45.8955C120.676 46.6172 120.612 47.3976 120.276 48.0735C119.939 48.7494 119.355 49.2685 118.647 49.5225C117.876 49.6477 117.086 49.4717 116.44 49.0307C115.794 48.5897 115.341 47.917 115.173 47.151C114.957 46.4111 115.04 45.6152 115.404 44.9362C115.768 44.2572 116.384 43.7498 117.118 43.524C117.873 43.4022 118.645 43.5823 119.268 44.0258C119.891 44.4692 120.317 45.1405 120.453 45.8955Z" fill="#F9E6CF"/>
<path opacity="0.5" d="M139.347 65.007C138.825 68.1985 137.538 71.2146 135.596 73.7955C133.655 71.2146 132.367 68.1985 131.845 65.007C130.317 59.148 133.512 56.079 135.596 56.079C137.68 56.079 140.598 58.7295 139.347 65.007Z" fill="#7D7A7C"/>
<path d="M138.375 60.4035C138.467 60.8121 138.467 61.2364 138.374 61.6449C138.281 62.0535 138.098 62.4357 137.838 62.7633C137.577 63.0909 137.247 63.3554 136.871 63.5372C136.495 63.719 136.083 63.8135 135.666 63.8135C135.248 63.8135 134.836 63.719 134.46 63.5372C134.084 63.3554 133.754 63.0909 133.493 62.7633C133.233 62.4357 133.05 62.0535 132.957 61.6449C132.864 61.2364 132.864 60.8121 132.956 60.4035C132.864 59.9949 132.864 59.5706 132.957 59.162C133.05 58.7535 133.233 58.3713 133.493 58.0437C133.754 57.7161 134.084 57.4515 134.46 57.2697C134.836 57.0879 135.248 56.9935 135.666 56.9935C136.083 56.9935 136.495 57.0879 136.871 57.2697C137.247 57.4515 137.577 57.7161 137.838 58.0437C138.098 58.3713 138.281 58.7535 138.374 59.162C138.467 59.5706 138.467 59.9949 138.375 60.4035Z" fill="#F9E6CF"/>
<path opacity="0.5" d="M147.405 39.339C147.045 43.2636 145.862 47.0671 143.932 50.499C141.78 47.1888 140.446 43.4105 140.042 39.4785C138.375 32.2245 141.431 28.3185 143.515 28.3185C145.599 28.3185 149.072 31.527 147.405 39.339Z" fill="#7D7A7C"/>
<path d="M146.433 33.759C146.433 35.8515 145.182 37.665 143.654 37.665C142.126 37.665 141.014 35.991 141.014 33.759C141.014 31.527 142.126 29.853 143.654 29.853C145.182 29.853 146.294 31.527 146.433 33.759Z" fill="#F9E6CF"/>
<path opacity="0.5" d="M133.651 29.2949C133.383 33.0673 132.292 36.7343 130.456 40.0365C128.23 36.9467 126.798 33.3528 126.288 29.574C124.482 22.7385 127.399 18.9719 129.483 18.9719C131.567 18.9719 135.04 21.7619 133.651 29.2949Z" fill="#7D7A7C"/>
<path d="M132.54 23.994C132.54 26.0865 131.428 27.7605 129.9 27.7605C128.372 27.7605 127.121 26.2261 127.121 24.1336C127.121 22.0411 128.094 20.3671 129.622 20.3671C131.15 20.3671 132.401 21.9015 132.54 23.994Z" fill="#F9E6CF"/>
<path opacity="0.5" d="M156.019 16.0425C155.115 20.9542 153.377 25.6731 150.879 29.9925C149.186 25.5466 148.429 20.7968 148.656 16.0425C148.656 6.83553 151.712 2.09253 153.796 2.09253C155.88 2.09253 158.659 6.83553 156.019 16.0425Z" fill="#7D7A7C"/>
<path d="M155.741 8.92802C155.741 11.5785 154.074 13.671 152.546 13.392C151.018 13.113 150.045 11.0205 150.323 8.37C150.601 5.7195 152.129 3.62698 153.518 3.76648C154.907 3.90598 156.019 6.83552 155.741 8.92802Z" fill="#F9E6CF"/>
<path opacity="0.5" d="M171.44 39.7576C169.619 44.5041 166.986 48.8946 163.66 52.7311C162.874 47.6671 163.11 42.496 164.355 37.5256C165.744 27.7606 170.19 23.5755 172.135 24.4125C174.08 25.2495 176.025 30.2716 171.44 39.7576Z" fill="#7D7A7C"/>
<path d="M172.69 32.2245C171.857 35.0145 170.051 36.828 168.523 36.4095C166.994 35.991 166.717 33.3405 167.55 30.69C168.384 28.0395 170.19 25.947 171.579 26.505C172.968 27.063 173.524 29.4345 172.69 32.2245Z" fill="#F9E6CF"/>
</g>
</svg>
