<svg width="358" height="365" viewBox="0 0 358 365" fill="none" xmlns="http://www.w3.org/2000/svg">
<g style="mix-blend-mode:screen">
<path opacity="0.5" d="M194.689 178.881C196.892 178.222 199.239 178.222 201.442 178.881C199.769 180.269 197.936 181.452 195.982 182.403C192.462 184.559 189.875 183.912 189.444 182.978C189.013 182.043 190.091 179.6 194.689 178.881Z" fill="#7D7A7C"/>
<path d="M191.815 180.534C192.964 180.031 194.114 180.534 194.401 180.965C194.689 181.397 193.97 182.618 192.821 183.121C191.671 183.625 190.522 183.121 190.234 182.69C189.947 182.259 190.594 180.965 191.815 180.534Z" fill="#F9E6CF"/>
<path opacity="0.5" d="M199.358 196.417C200.066 194.363 200.239 192.161 199.861 190.021C199.861 188.296 198.64 187.434 198.855 187.29C199.071 187.146 200.292 187.29 201.442 189.23C202.787 191.531 203.389 194.192 203.166 196.849C202.735 204.035 199.358 206.695 198.496 206.335C197.634 205.976 197.347 202.67 199.358 196.417Z" fill="#7D7A7C"/>
<path d="M198.784 201.232C199.286 199.436 200.364 198.07 201.011 198.214C201.657 198.358 202.016 200.083 201.442 202.023C200.867 203.964 199.646 205.257 198.999 205.042C198.353 204.826 198.353 203.101 198.784 201.232Z" fill="#F9E6CF"/>
<path opacity="0.5" d="M184.631 160.699C186.366 162.263 187.529 164.363 187.936 166.664C188.295 168.245 188.295 169.323 187.936 169.323C187.576 169.323 185.493 165.514 182.26 163.933C179.027 162.352 176.154 164.436 175.507 163.286C174.861 162.136 175.507 161.848 176.441 160.699C177.327 160.014 178.36 159.547 179.458 159.333C180.367 159.136 181.31 159.157 182.209 159.395C183.108 159.632 183.938 160.079 184.631 160.699Z" fill="#7D7A7C"/>
<path d="M179.458 160.124C181.542 160.124 183.05 161.058 182.691 161.705C182.332 162.351 181.183 162.639 179.961 162.855C178.74 163.07 177.303 162.855 176.944 162.855C176.585 162.855 177.231 160.698 179.458 160.124Z" fill="#F9E6CF"/>
<path opacity="0.5" d="M166.886 170.76C168.615 170.375 170.405 170.362 172.139 170.721C173.873 171.08 175.511 171.804 176.944 172.844C173.922 173.016 170.932 173.547 168.036 174.425C163.51 176.941 160.852 179.097 160.061 178.45C159.271 177.803 159.415 177.085 160.061 175.503C160.769 174.25 161.75 173.172 162.931 172.351C164.113 171.529 165.465 170.986 166.886 170.76Z" fill="#7D7A7C"/>
<path d="M162.289 173.779C164.013 172.557 165.737 172.341 166.096 173.132C166.455 173.922 165.378 175 164.013 176.007C162.648 177.013 161.355 177.731 160.852 177.3C160.349 176.869 160.78 175.216 162.289 173.779Z" fill="#F9E6CF"/>
<path opacity="0.5" d="M156.326 194.549C160.413 192.078 164.917 190.373 169.616 189.518C169.616 189.518 164.228 193.183 158.481 197.783C151.297 203.317 148.711 206.335 147.777 206.048C146.843 205.76 146.986 204.467 148.136 202.239C150.048 198.923 152.897 196.248 156.326 194.549Z" fill="#7D7A7C"/>
<path d="M150.722 199.579C152.805 197.639 154.961 196.777 155.463 197.423C155.966 198.07 154.53 199.795 152.662 201.592C150.794 203.389 149.213 204.754 148.495 204.323C147.777 203.892 148.782 201.592 150.722 199.579Z" fill="#F9E6CF"/>
<path opacity="0.5" d="M208.195 163.933C206.243 166.184 203.779 167.934 201.011 169.035C202.114 166.528 203.436 164.123 204.962 161.848C206.183 159.549 206.614 158.183 206.974 158.183C207.333 158.183 206.974 157.68 206.974 157.249C206.85 156.95 206.85 156.614 206.974 156.314C206.974 156.314 207.907 154.805 209.991 156.314C210.435 156.888 210.721 157.568 210.822 158.286C210.923 159.005 210.834 159.737 210.566 160.411C210.033 161.739 209.225 162.939 208.195 163.933Z" fill="#7D7A7C"/>
<path d="M210.134 159.477C209.488 161.417 208.123 162.136 207.548 161.705C206.973 161.274 207.045 159.908 207.548 158.758C207.476 158.524 207.476 158.274 207.548 158.039C207.492 157.901 207.492 157.747 207.548 157.608C207.548 157.249 207.548 156.89 207.548 156.53C207.636 156.425 207.746 156.34 207.87 156.281C207.994 156.223 208.129 156.193 208.267 156.193C208.404 156.193 208.539 156.223 208.663 156.281C208.787 156.34 208.897 156.425 208.985 156.53C209.321 156.912 209.589 157.35 209.775 157.824C209.97 158.356 210.091 158.912 210.134 159.477Z" fill="#F9E6CF"/>
<path opacity="0.5" d="M192.031 147.978C191.667 151.976 190.389 155.837 188.295 159.261C187.864 159.261 188.295 153.799 188.295 147.906C188.252 145.443 187.765 143.009 186.858 140.719C186.469 140.242 186.154 139.709 185.924 139.138C185.565 138.778 185.421 138.491 185.493 138.204C185.565 137.916 186.714 136.982 189.013 138.204C190.37 139.395 191.37 140.939 191.902 142.664C192.435 144.389 192.479 146.229 192.031 147.978Z" fill="#7D7A7C"/>
<path d="M190.594 141.653C191.599 144.169 190.594 146.109 190.091 146.181C189.588 146.253 188.726 144.384 188.007 142.731C187.289 141.078 187.217 141.222 187.145 140.503C186.953 140.337 186.806 140.124 186.719 139.885C186.631 139.647 186.604 139.389 186.642 139.138C186.642 138.779 187.433 138.779 188.367 139.138C189.352 139.725 190.13 140.604 190.594 141.653Z" fill="#F9E6CF"/>
<path opacity="0.5" d="M195.191 145.175C196.269 139.21 197.275 133.748 197.993 129.651C198.249 127.458 198.706 125.293 199.358 123.183C199.75 125.364 199.871 127.585 199.717 129.795C199.717 133.891 199.717 139.569 199.071 145.678C197.85 160.411 194.76 167.67 193.755 167.239C192.749 166.807 192.246 160.483 195.191 145.175Z" fill="#7D7A7C"/>
<path d="M193.827 156.458C194.473 152.146 195.623 148.768 196.341 148.84C197.059 148.912 197.275 152.505 196.341 156.889C195.407 161.273 194.401 164.579 193.683 164.076C192.964 163.573 193.827 160.698 193.827 156.458Z" fill="#F9E6CF"/>
<path opacity="0.5" d="M211.571 131.376C209.775 136.551 207.907 141.15 206.399 144.528C205.725 146.413 204.808 148.201 203.669 149.846C203.309 149.846 205.537 140.863 207.835 130.298C208.894 123.918 210.505 117.642 212.649 111.54C213.08 111.54 214.301 112.906 214.517 116.355C214.416 121.496 213.419 126.579 211.571 131.376Z" fill="#7D7A7C"/>
<path d="M213.439 121.243C212.721 125.124 211.284 128.43 210.494 127.855C209.703 127.28 209.991 124.477 210.494 120.668C210.997 116.859 211.931 113.984 212.721 113.984C213.511 113.984 214.229 117.362 213.439 121.243Z" fill="#F9E6CF"/>
<path opacity="0.5" d="M155.104 184.774C159.421 183.091 164.067 182.427 168.682 182.834C168.682 183.265 162.791 184.918 156.613 188.296C149.429 192.393 145.909 194.764 144.975 194.117C144.041 193.471 144.616 192.393 146.124 190.596C148.46 187.791 151.591 185.761 155.104 184.774Z" fill="#7D7A7C"/>
<path d="M149.142 188.655C151.369 187.002 153.668 186.787 153.955 187.434C154.242 188.08 152.662 189.518 150.65 190.955C148.639 192.393 146.771 193.327 146.196 192.68C145.621 192.033 146.843 190.165 149.142 188.655Z" fill="#F9E6CF"/>
<path opacity="0.5" d="M123.494 164.651C129.156 165.048 134.764 166.011 140.233 167.526C142.579 167.945 144.852 168.695 146.986 169.754C146.986 170.257 136.138 168.173 123.423 168.46C117.669 168.585 111.932 169.113 106.253 170.041C102.445 170.616 100.434 171.048 100.218 170.544C100.003 170.041 101.152 168.46 104.96 166.951C110.857 164.68 117.221 163.89 123.494 164.651Z" fill="#7D7A7C"/>
<path d="M111.138 165.873C115.879 165.082 119.759 165.873 119.759 166.448C119.759 167.023 116.023 167.885 111.569 168.604C107.115 169.323 103.523 170.113 103.163 169.251C102.804 168.388 106.324 166.448 111.138 165.873Z" fill="#F9E6CF"/>
<path opacity="0.5" d="M236.931 149.774L223.066 157.536C221.206 158.773 219.234 159.832 217.175 160.698C218.641 158.997 220.305 157.477 222.132 156.171C225.293 153.512 229.747 149.99 234.776 146.468C239.4 143.074 244.543 140.453 250.006 138.707C253.885 137.557 256.256 138.707 256.113 138.707C255.969 138.707 250.581 142.013 236.931 149.774Z" fill="#7D7A7C"/>
<path d="M246.414 143.737C242.535 145.678 239.23 146.972 238.799 146.325C238.368 145.678 241.17 143.234 245.121 141.222C249.072 139.21 252.88 138.635 253.095 139.425C253.311 140.216 250.222 141.725 246.414 143.737Z" fill="#F9E6CF"/>
<path opacity="0.5" d="M237.578 170.616C230.393 170.616 224.215 171.623 224.143 171.191C228.227 168.893 232.715 167.405 237.362 166.807C239.248 166.293 241.233 166.254 243.138 166.693C245.043 167.132 246.81 168.035 248.282 169.323C250.293 171.766 249.359 173.491 248.928 173.491C248.497 173.491 247.707 172.629 246.27 171.982C243.489 170.964 240.536 170.5 237.578 170.616Z" fill="#7D7A7C"/>
<path d="M244.115 170.545C241.888 169.97 239.733 169.395 239.733 168.676C239.733 167.957 241.96 167.095 244.834 167.814C247.707 168.532 249.216 171.479 248.426 171.766C247.635 172.054 246.199 171.048 244.115 170.545Z" fill="#F9E6CF"/>
<path opacity="0.5" d="M228.023 125.339C224.574 130.514 220.839 135.113 218.755 138.419C217.512 140.296 216.066 142.032 214.445 143.594C215.147 141.459 216.087 139.41 217.247 137.485C219.186 133.748 221.844 128.789 224.431 123.111C231.758 110.247 236.069 104.353 236.931 104.353C237.793 104.353 236.931 112.115 228.023 125.339Z" fill="#7D7A7C"/>
<path d="M233.339 115.062C231.184 118.943 228.813 121.746 228.166 121.314C227.52 120.883 228.741 117.577 230.896 113.696C233.052 109.815 235.063 107.013 235.782 107.3C236.5 107.588 235.494 111.54 233.339 115.062Z" fill="#F9E6CF"/>
<path opacity="0.5" d="M187.936 106.581C188.87 113.768 189.301 120.955 189.516 125.698C189.723 128.378 189.723 131.069 189.516 133.748C188.72 131.19 188.143 128.57 187.792 125.914C186.858 121.027 185.709 114.415 184.128 107.3C182.26 98.6758 180.68 92.2795 179.458 88.0392C178.237 83.799 177.375 81.8585 177.806 81.4992C178.237 81.1398 180.321 82.2897 182.404 86.3863C185.435 92.7347 187.309 99.5738 187.936 106.581Z" fill="#7D7A7C"/>
<path d="M184.416 93.1419C185.852 98.3165 185.996 102.7 185.278 102.844C184.559 102.988 183.122 98.8914 181.757 93.9325C180.392 88.9735 179.458 85.0208 179.458 84.5896C179.458 84.1583 183.051 87.9674 184.416 93.1419Z" fill="#F9E6CF"/>
<path opacity="0.5" d="M170.406 203.963C172.383 201.304 174.815 199.017 177.591 197.208C176.484 200.302 175.089 203.286 173.424 206.119C172.381 208.222 171.104 210.199 169.616 212.013C168.754 213.163 167.82 213.738 167.317 213.666C166.814 213.594 166.312 212.588 166.527 210.791C167.162 208.199 168.505 205.835 170.406 203.963Z" fill="#7D7A7C"/>
<path d="M168.179 208.563C169.113 206.838 170.478 205.832 171.125 206.263C171.771 206.695 171.484 208.276 170.622 209.929C169.76 211.582 168.61 212.588 167.964 212.372C167.317 212.157 167.174 210.288 168.179 208.563Z" fill="#F9E6CF"/>
<path opacity="0.5" d="M143.538 283.091L157.906 253.697L162.36 244.785C162.884 243.667 163.484 242.586 164.156 241.551C163.909 242.765 163.523 243.946 163.007 245.072C162.217 247.3 160.995 250.534 159.487 254.415C156.398 262.249 152.303 273.029 147.417 284.672C135.995 312.916 128.164 326.643 127.23 326.212C126.296 325.781 129.96 312.773 143.538 283.091Z" fill="#7D7A7C"/>
<path d="M134.845 304.867C136.612 299.662 139.261 294.8 142.676 290.493C141.765 295.924 139.969 301.168 137.36 306.017C135.6 311.211 132.977 316.07 129.601 320.391C130.467 314.959 132.24 309.711 134.845 304.867Z" fill="#F9E6CF"/>
<path opacity="0.5" d="M129.17 291.212L146.843 260.668C149.213 256.787 151.081 253.481 152.446 251.397C153.108 250.22 153.853 249.091 154.673 248.019C154.249 249.283 153.721 250.509 153.093 251.684C152.015 254.056 150.363 257.362 148.423 261.458L132.546 293.009C117.603 322.403 107.977 336.705 107.043 336.13C106.109 335.555 111.712 321.684 129.17 291.212Z" fill="#7D7A7C"/>
<path d="M117.604 313.779C119.973 308.324 123.226 303.298 127.23 298.902C125.683 304.653 123.26 310.131 120.046 315.144C117.592 320.553 114.347 325.567 110.419 330.021C111.928 324.257 114.354 318.773 117.604 313.779Z" fill="#F9E6CF"/>
<path opacity="0.5" d="M114.155 296.602C120.621 286.972 126.583 278.132 131.109 271.807L136.498 264.621C137.791 262.896 138.509 261.89 138.653 261.961C138.226 263.04 137.697 264.075 137.072 265.052L132.546 273.029C128.595 279.785 123.279 288.984 117.388 298.974C103.02 323.05 94.6143 334.908 93.4649 334.261C92.3154 333.615 97.2724 321.325 114.155 296.602Z" fill="#7D7A7C"/>
<path d="M103.02 315.216C105.354 310.705 108.467 306.642 112.215 303.214C110.69 308.129 108.253 312.713 105.031 316.725C102.825 321.283 99.8064 325.399 96.123 328.871C97.5444 323.927 99.8841 319.294 103.02 315.216Z" fill="#F9E6CF"/>
<path opacity="0.5" d="M121.986 272.598L135.42 254.847C137.252 252.306 139.269 249.903 141.455 247.66C140.145 250.51 138.608 253.25 136.857 255.853C133.911 260.812 129.673 267.495 125.147 274.826C114.011 292.434 106.612 300.339 105.678 299.764C104.744 299.19 108.551 290.422 121.986 272.598Z" fill="#7D7A7C"/>
<path d="M113.149 286.181C116.67 281.079 119.974 277.341 120.333 277.773C120.693 278.204 118.681 282.66 115.161 287.762C111.641 292.865 108.336 296.602 107.977 296.171C107.618 295.74 109.701 291.212 113.149 286.181Z" fill="#F9E6CF"/>
<path opacity="0.5" d="M124.931 233.717C132.115 227.896 138.509 222.793 143.394 219.343C145.95 217.244 148.664 215.346 151.512 213.666C151.512 213.666 150.938 214.456 149.716 215.678L144.544 220.637L127.517 236.808C111.497 251.828 103.307 259.231 102.445 258.368C101.583 257.506 106.684 248.666 124.931 233.717Z" fill="#7D7A7C"/>
<path d="M112.718 245.719C117.46 241.263 121.77 238.173 122.345 238.532C122.92 238.892 119.328 243.276 114.802 248.091C110.276 252.906 106.181 255.996 105.606 255.278C105.031 254.559 107.977 250.247 112.718 245.719Z" fill="#F9E6CF"/>
<path opacity="0.5" d="M91.2379 273.532C101.08 264.549 110.276 256.499 117.029 250.75L125.075 243.922C126.049 243.03 127.107 242.236 128.236 241.551C127.464 242.63 126.573 243.619 125.578 244.497L118.394 252.044C112.072 258.296 103.379 266.92 94.0397 276.335C82.641 287.69 73.9003 296.123 67.8178 301.633C61.855 307.167 58.694 309.898 58.3348 309.539C57.9756 309.179 65.7344 296.53 91.2379 273.532Z" fill="#7D7A7C"/>
<path d="M73.7088 291.212C77.5197 286.808 82.0353 283.068 87.0712 280.144C83.9714 285.055 80.1164 289.445 75.6485 293.153C71.8672 297.528 67.49 301.351 62.6453 304.508C65.5308 299.465 69.2749 294.965 73.7088 291.212Z" fill="#F9E6CF"/>
<path opacity="0.5" d="M102.445 276.838L121.986 256.428L128.02 250.391C128.743 249.601 129.536 248.879 130.391 248.235C129.893 249.185 129.291 250.077 128.595 250.894L123.279 257.578L105.606 279.138C88.7951 299.261 78.6656 308.245 77.8035 307.886C76.9414 307.526 83.3352 296.962 102.445 276.838Z" fill="#7D7A7C"/>
<path d="M89.4418 292.146C94.6144 286.325 99.2122 282.013 99.7869 282.588C97.8277 286.874 95.0449 290.732 91.597 293.943C86.4245 299.764 81.8267 304.005 81.252 303.502C83.2112 299.216 85.994 295.358 89.4418 292.146Z" fill="#F9E6CF"/>
<path opacity="0.5" d="M95.3327 248.091C105.39 240.185 114.802 233.717 121.986 228.614L130.247 223.009C131.213 222.228 132.275 221.576 133.408 221.068C132.569 221.98 131.656 222.821 130.678 223.584L123.063 229.98L97.9908 250.822C74.4988 270.226 62.6451 280.216 62.0703 279.569C61.4956 278.923 69.1826 267.28 95.3327 248.091Z" fill="#7D7A7C"/>
<path d="M77.3725 263.111C81.2876 259.224 85.8603 256.06 90.8786 253.769C91.3815 254.415 86.0653 259.446 79.1685 265.268C75.2902 269.123 70.8887 272.414 66.0935 275.042C69.0699 270.391 72.8964 266.343 77.3725 263.111Z" fill="#F9E6CF"/>
<path opacity="0.5" d="M61.7112 224.949C74.0678 219.918 85.6342 215.966 94.0396 213.163L104.097 210C105.332 209.563 106.608 209.25 107.905 209.066C106.769 209.694 105.593 210.246 104.385 210.719L94.6861 214.816C86.4963 218.265 75.2891 222.937 63.2198 228.471C48.8516 235.155 37.86 240.473 30.8196 244.354C27.3884 246.578 23.8123 248.571 20.1153 250.319C19.6842 250.319 21.7676 246.653 28.3052 241.91C38.7513 234.99 49.9607 229.299 61.7112 224.949Z" fill="#7D7A7C"/>
<path d="M39.3687 235.945C44.3076 232.861 49.7967 230.762 55.5329 229.764C50.9528 233.265 45.958 236.185 40.6618 238.46C35.7855 241.499 30.6097 244.028 25.2161 246.007C29.1469 241.664 33.9765 238.23 39.3687 235.945Z" fill="#F9E6CF"/>
<path opacity="0.5" d="M66.5964 237.095C76.5104 232.352 85.8497 228.399 92.6028 225.596L100.433 222.362C101.426 221.922 102.461 221.585 103.523 221.356C103.523 221.356 102.589 222.074 100.793 223.081L93.2493 227.177L68.3206 240.904C56.7542 247.3 47.9896 252.116 42.2423 255.278C39.4481 257.249 36.4345 258.889 33.2622 260.165C32.2564 259.087 40.7337 249.097 66.5964 237.095Z" fill="#7D7A7C"/>
<path d="M48.7081 247.444C52.6431 244.634 57.1207 242.676 61.8549 241.694C62.286 242.413 56.8979 245.863 50.1449 249.816C46.258 252.579 42.0015 254.78 37.5009 256.356C36.998 255.709 41.8832 251.397 48.7081 247.444Z" fill="#F9E6CF"/>
<path opacity="0.5" d="M78.8811 239.179C86.9273 235.011 94.3987 231.417 99.8586 228.902L106.396 226.027C107.199 225.628 108.042 225.315 108.911 225.093C108.272 225.721 107.546 226.253 106.755 226.674L100.649 230.483L80.7489 242.557C71.668 248.809 62.0517 254.244 52.0126 258.799C51.2942 257.937 58.1909 249.816 78.8811 239.179Z" fill="#7D7A7C"/>
<path d="M64.5131 248.091C70.0449 244.641 74.8582 242.629 75.2893 243.276C75.7203 243.922 71.4099 247.085 65.95 250.462C62.8422 252.874 59.3083 254.678 55.533 255.781C55.2457 255.278 59.1969 251.684 64.5131 248.091Z" fill="#F9E6CF"/>
<path opacity="0.5" d="M67.2431 173.779C78.3066 173.779 88.4361 174.497 95.9794 175.216L104.672 176.222C105.741 176.32 106.799 176.512 107.833 176.797C106.758 176.904 105.675 176.904 104.6 176.797H95.6921C88.508 176.797 78.2347 176.797 67.3149 177.516C57.4378 177.964 47.5994 179.045 37.8602 180.75C31.3945 182.044 28.3053 183.481 27.9461 182.906C27.5869 182.331 29.8858 180.031 36.2797 177.731C46.3144 174.725 56.7751 173.389 67.2431 173.779Z" fill="#7D7A7C"/>
<path d="M46.6247 176.222C51.3482 175.098 56.2694 175.098 60.9929 176.222C56.4898 177.842 51.7655 178.763 46.9839 178.953C42.3777 180.009 37.6921 180.682 32.975 180.966C32.6157 179.887 38.6504 177.156 46.6247 176.222Z" fill="#F9E6CF"/>
<path opacity="0.5" d="M86.0652 186.212C93.9677 185.421 101.224 185.134 106.468 185.134C109.347 185.022 112.23 185.142 115.089 185.493C112.31 186.202 109.473 186.659 106.612 186.859C101.439 187.577 94.2551 188.584 86.64 190.021C77.3725 191.818 70.4758 193.471 66.0216 194.836C61.5675 196.202 59.4123 197.352 58.8375 196.92C58.2628 196.489 59.7715 194.333 64.0819 191.961C70.9723 188.65 78.4362 186.697 86.0652 186.212Z" fill="#7D7A7C"/>
<path d="M71.6972 189.733C77.229 188.224 81.8986 188.152 82.0423 188.871C82.186 189.59 77.7319 190.955 72.4156 192.464C69.2641 193.705 65.9485 194.48 62.5734 194.764C62.0705 193.974 66.0936 191.243 71.6972 189.733Z" fill="#F9E6CF"/>
<path opacity="0.5" d="M145.19 159.189C149.284 160.074 153.316 161.227 157.26 162.639C158.946 163.158 160.563 163.882 162.073 164.795C162.073 165.226 154.027 163.789 144.616 162.998C138.895 163.056 133.179 162.672 127.518 161.848C127.518 161.273 128.308 160.195 131.325 159.117C135.888 158.046 140.639 158.07 145.19 159.189Z" fill="#7D7A7C"/>
<path d="M136.354 159.046C139.874 159.046 142.604 160.052 142.532 160.77C142.46 161.489 139.659 161.777 136.354 161.848C133.049 161.92 130.391 161.848 130.176 161.058C129.96 160.267 132.403 159.046 136.354 159.046Z" fill="#F9E6CF"/>
<path opacity="0.5" d="M119.759 136.766C125.201 138.586 130.487 140.845 135.564 143.522C137.728 144.544 139.775 145.797 141.67 147.259C139.341 146.757 137.058 146.06 134.845 145.175C129.595 143.264 124.247 141.632 118.825 140.288C111.196 138.846 103.455 138.076 95.6919 137.988C95.6919 137.988 95.6919 137.269 96.6977 136.551C98.0539 135.864 99.4734 135.311 100.936 134.898C107.266 133.855 113.758 134.499 119.759 136.766Z" fill="#7D7A7C"/>
<path d="M107.618 135.185C112.431 135.616 116.095 136.982 115.951 137.844C115.807 138.707 112 138.347 107.474 137.844C105.247 137.844 103.163 137.844 101.655 137.844C100.146 137.844 99.2122 137.844 99.1404 137.269C99.0686 136.694 99.9306 136.407 101.439 135.832C103.463 135.357 105.539 135.14 107.618 135.185Z" fill="#F9E6CF"/>
<path opacity="0.5" d="M99.4995 145.247C106.1 146.945 112.58 149.082 118.896 151.643C121.555 152.622 124.127 153.824 126.583 155.236C123.777 154.841 121.011 154.192 118.322 153.296C113.293 152.074 106.324 150.206 98.7092 149.056C91.8758 147.844 84.9578 147.171 78.019 147.043C75.6395 147.425 73.2145 147.425 70.835 147.043C70.835 146.397 72.3436 145.031 77.157 143.666C84.6305 142.554 92.2568 143.093 99.4995 145.247Z" fill="#7D7A7C"/>
<path d="M84.7004 143.809C90.4476 143.809 94.8299 145.606 94.6862 146.325C94.5426 147.043 90.0884 146.828 84.6285 146.325C81.8986 146.325 79.456 146.325 77.4444 146.325C75.4329 146.325 74.5708 146.325 74.4271 145.894C74.2834 145.462 75.4329 144.887 77.2289 144.312C79.6944 143.879 82.1991 143.711 84.7004 143.809Z" fill="#F9E6CF"/>
<path opacity="0.5" d="M57.9755 153.871C70.3321 155.883 81.6112 158.327 89.6573 160.339C93.7523 161.273 96.8414 162.136 99.284 162.783C100.5 163.02 101.682 163.406 102.804 163.933C101.573 163.894 100.347 163.75 99.1403 163.501L89.37 161.848C81.1083 160.627 69.8293 158.902 57.4726 157.608C46.2653 156.254 34.9948 155.486 23.7074 155.308C19.8787 155.516 16.0416 155.516 12.2129 155.308C12.2129 154.877 15.1584 152.793 22.7017 151.787C34.4992 150.827 46.3729 151.529 57.9755 153.871Z" fill="#7D7A7C"/>
<path d="M34.5553 152.29C40.0259 151.953 45.5065 152.761 50.6477 154.662C45.2846 155.396 39.8465 155.396 34.4835 154.662C29.1271 155.07 23.7474 155.07 18.3911 154.662C23.4607 152.406 29.0518 151.586 34.5553 152.29Z" fill="#F9E6CF"/>
<path opacity="0.5" d="M168.61 149.415C170.939 150.869 172.904 152.836 174.358 155.165C175.507 156.889 175.938 158.111 175.795 158.183C173.011 156.154 170.054 154.375 166.958 152.865C164.91 152.139 162.728 151.87 160.564 152.074C158.912 152.074 157.906 152.074 157.619 151.715C157.331 151.356 157.619 149.99 159.271 148.984C160.704 148.15 162.348 147.747 164.004 147.823C165.661 147.899 167.26 148.452 168.61 149.415Z" fill="#7D7A7C"/>
<path d="M162.432 148.625C164.946 148.625 166.527 149.846 166.24 150.421C165.952 150.996 164.372 151.14 162.576 151.356C160.78 151.571 159.199 151.356 158.84 150.924C158.481 150.493 159.989 148.768 162.432 148.625Z" fill="#F9E6CF"/>
<path opacity="0.5" d="M169.688 125.339C172.398 130.392 174.635 135.685 176.369 141.15C177.29 143.449 177.87 145.87 178.093 148.337C177.662 148.337 173.567 138.275 166.383 127.639C163.368 122.856 159.581 118.606 155.176 115.062C152.231 112.834 150.219 112.331 150.291 111.756C150.363 111.181 152.374 110.39 156.397 111.756C162.239 114.645 166.925 119.435 169.688 125.339Z" fill="#7D7A7C"/>
<path d="M161.498 115.781C165.018 119.158 166.599 122.967 166.024 122.967C165.449 122.967 162.791 120.596 159.559 117.505C156.326 114.415 153.237 112.69 153.452 111.972C153.668 111.253 157.906 112.259 161.498 115.781Z" fill="#F9E6CF"/>
<path opacity="0.5" d="M239.23 196.848C229.532 191.099 220.049 188.368 220.192 187.865C222.327 187.89 224.451 188.18 226.514 188.727C231.464 189.772 236.283 191.363 240.882 193.471C246.17 195.627 250.557 199.534 253.311 204.538C253.88 205.87 254.266 207.272 254.46 208.707C254.46 209.785 254.46 210.288 253.886 210.36C253.311 210.432 252.593 209.066 250.581 206.551C247.39 202.681 243.549 199.397 239.23 196.848Z" fill="#7D7A7C"/>
<path d="M247.923 202.454C246.486 201.089 245.121 199.867 244.259 198.861C243.397 197.855 242.75 197.208 242.966 196.848C243.181 196.489 244.115 196.848 245.408 197.208C246.999 198.132 248.491 199.215 249.863 200.442C253.024 203.676 253.814 207.629 253.095 207.629C252.377 207.629 250.653 204.97 247.923 202.454Z" fill="#F9E6CF"/>
<path opacity="0.5" d="M217.031 205.76C216.615 202.513 215.668 199.357 214.229 196.417C215.871 197.297 217.309 198.513 218.448 199.987C219.587 201.461 220.402 203.159 220.839 204.97C222.994 212.156 219.905 215.822 219.043 215.534C218.181 215.247 217.319 212.156 217.031 205.76Z" fill="#7D7A7C"/>
<path d="M218.037 210.504C218.037 208.635 218.037 207.054 219.186 206.91C220.336 206.766 220.91 208.419 220.839 210.504C220.767 212.588 219.977 214.169 219.186 214.097C218.396 214.025 218.037 212.156 218.037 210.504Z" fill="#F9E6CF"/>
<path opacity="0.5" d="M203.453 232.855C203.187 226.448 202.37 220.076 201.011 213.809C202.202 215.359 203.103 217.113 203.669 218.984C205.473 223.374 206.658 227.994 207.189 232.711C207.785 237.772 207.144 242.901 205.321 247.66C204.028 250.894 202.591 252.115 202.16 251.972C201.729 251.828 202.807 246.007 203.453 232.855Z" fill="#7D7A7C"/>
<path d="M203.453 242.485C203.956 238.82 204.675 235.873 205.393 235.873C206.111 235.873 206.758 239.035 206.183 243.06C205.609 247.085 204.028 249.888 203.238 249.6C202.448 249.313 202.663 246.079 203.453 242.485Z" fill="#F9E6CF"/>
<path opacity="0.5" d="M157.044 271.592L167.461 248.522C168.898 245.647 170.047 243.204 170.838 241.335C171.628 239.467 172.131 238.748 172.274 238.82C172.105 239.771 171.865 240.708 171.556 241.623L169.113 248.81C166.886 255.062 163.869 263.183 160.636 272.67C152.518 294.949 146.268 305.658 145.406 305.227C144.544 304.795 146.771 294.662 157.044 271.592Z" fill="#7D7A7C"/>
<path d="M150.722 288.697C151.926 284.578 153.982 280.758 156.757 277.485C156.528 281.786 155.35 285.983 153.308 289.775C152.138 293.907 150.078 297.734 147.274 300.986C147.551 296.694 148.726 292.507 150.722 288.697Z" fill="#F9E6CF"/>
<path opacity="0.5" d="M177.734 275.688C179.171 267.567 180.392 260.021 181.326 254.487C181.728 251.498 182.352 248.543 183.194 245.647C183.394 248.663 183.394 251.688 183.194 254.703C182.835 260.237 182.476 267.855 181.685 276.263C180.033 296.387 175.938 306.448 174.861 306.089C173.783 305.73 174.286 296.746 177.734 275.688Z" fill="#7D7A7C"/>
<path d="M176.154 291.212C177.159 285.391 178.237 280.647 179.027 280.719C180.002 284.295 180.002 288.067 179.027 291.643C178.093 297.465 176.728 302.136 175.866 301.992C175.158 298.422 175.257 294.739 176.154 291.212Z" fill="#F9E6CF"/>
<path opacity="0.5" d="M185.924 307.67C186.786 294.087 187.648 281.653 188.223 272.526C188.582 267.998 188.869 264.261 189.013 261.674C189.024 260.341 189.192 259.014 189.516 257.721C189.589 259.062 189.589 260.405 189.516 261.746C189.516 264.333 189.516 267.998 189.516 272.526C189.516 281.653 189.516 294.087 189.516 307.814C189.013 340.873 184.703 358.122 183.553 357.619C182.404 357.116 183.625 342.742 185.924 307.67Z" fill="#7D7A7C"/>
<path d="M184.99 333.112C184.948 327.179 185.771 321.271 187.433 315.576C188.533 321.408 188.654 327.383 187.792 333.255C187.823 339.226 186.827 345.158 184.847 350.791C184.085 344.919 184.134 338.97 184.99 333.112Z" fill="#F9E6CF"/>
<path opacity="0.5" d="M193.324 269.652C194.401 261.674 195.192 254.272 195.479 248.81C195.57 245.85 195.834 242.898 196.269 239.97C196.494 240.743 196.638 241.538 196.7 242.341C196.7 243.851 197.059 246.079 197.203 248.81C197.683 255.988 197.683 263.191 197.203 270.37C196.838 278.025 195.085 285.55 192.031 292.578C191.051 294.293 189.972 295.948 188.798 297.537C187.936 298.543 187.217 298.83 187.002 298.686C186.786 298.543 190.091 290.422 193.324 269.652Z" fill="#7D7A7C"/>
<path d="M191.24 284.744C191.688 281.232 192.81 277.84 194.545 274.754C195.407 274.754 195.264 279.641 193.899 285.463C193.188 287.929 192.275 290.333 191.169 292.649C190.091 294.374 189.229 295.309 188.942 295.093C188.654 294.877 188.942 293.727 189.301 291.931C189.66 290.134 190.306 287.475 191.24 284.744Z" fill="#F9E6CF"/>
<path opacity="0.5" d="M217.462 232.927C216.169 226.53 214.732 220.709 213.655 216.469L212.218 211.51C212.13 210.866 212.13 210.213 212.218 209.569C213.612 211.534 214.77 213.657 215.666 215.894C217.939 221.142 219.906 226.517 221.557 231.992C226.083 247.372 225.508 255.925 224.575 256.068C223.641 256.212 220.551 249.456 217.462 232.927Z" fill="#7D7A7C"/>
<path d="M220.623 244.713C219.617 240.113 219.474 236.304 220.192 236.089C220.911 235.873 222.347 239.538 223.353 244.138C224.359 248.738 224.287 252.69 223.353 252.762C222.419 252.834 221.629 249.313 220.623 244.713Z" fill="#F9E6CF"/>
<path opacity="0.5" d="M205.034 312.773C204.531 302.424 204.028 292.793 203.669 285.75C203.669 282.3 203.669 279.426 203.31 277.485C203.215 276.457 203.215 275.423 203.31 274.395C203.705 275.332 203.948 276.327 204.028 277.341C204.028 279.354 204.818 282.157 205.393 285.606C206.471 292.793 207.836 302.064 208.913 312.485C211.787 337.855 208.913 351.294 207.548 351.079C206.183 350.863 206.327 339.58 205.034 312.773Z" fill="#7D7A7C"/>
<path d="M206.614 332.105C206.011 327.569 206.279 322.958 207.405 318.522C209.069 322.821 209.757 327.436 209.416 332.034C210.151 336.592 209.731 341.263 208.195 345.617C206.946 341.227 206.412 336.665 206.614 332.105Z" fill="#F9E6CF"/>
<path opacity="0.5" d="M158.409 54.0453C162.145 66.6942 165.09 78.4088 167.102 86.9612C168.108 91.2015 168.898 94.723 169.401 97.1666C169.773 98.4045 169.99 99.684 170.047 100.976C169.493 99.7439 169.036 98.4702 168.682 97.1666L165.449 87.3206C162.72 78.9119 159.056 67.4848 154.745 55.0515C149.501 40.1028 145.406 28.8194 142.389 21.4888C140.615 17.8551 139.079 14.1101 137.791 10.2773C138.15 9.84609 141.239 12.2896 144.975 19.3328C150.7 30.381 155.205 42.0206 158.409 54.0453Z" fill="#7D7A7C"/>
<path d="M149.716 30.688C152.237 35.8692 153.772 41.4747 154.242 47.2178C151.154 42.3935 148.737 37.171 147.058 31.6942C144.65 26.5418 142.726 21.1765 141.311 15.6675C145.238 19.9549 148.116 25.0971 149.716 30.688Z" fill="#F9E6CF"/>
<path opacity="0.5" d="M144.113 127.136C147.747 130.437 151.066 134.07 154.027 137.988C155.365 139.564 156.499 141.303 157.403 143.163C157.044 143.163 150.578 136.551 141.742 130.154C137.942 127.258 133.696 125 129.17 123.47C126.224 122.68 124.5 122.967 124.284 122.392C124.069 121.818 125.29 120.236 129.17 120.093C134.854 120.494 140.184 123.006 144.113 127.136Z" fill="#7D7A7C"/>
<path d="M134.63 121.818C138.581 123.471 140.808 126.13 140.377 126.705C139.946 127.28 137.001 125.842 133.552 124.405C130.104 122.967 127.23 122.536 127.087 121.746C126.943 120.955 130.679 120.021 134.63 121.818Z" fill="#F9E6CF"/>
<path opacity="0.5" d="M67.1712 131.664C81.5393 136.766 94.8299 142.013 104.385 146.037L115.592 150.853C116.996 151.441 118.363 152.113 119.687 152.865C118.193 152.553 116.728 152.121 115.305 151.571L103.738 147.475C94.0396 144.169 80.6054 139.641 65.9499 135.185C48.1333 129.819 34.6512 126.058 25.5035 123.902C20.8252 123.144 16.1955 122.112 11.6382 120.811C11.6382 120.308 15.9486 119.302 25.2161 120.811C39.5338 122.991 53.5917 126.627 67.1712 131.664Z" fill="#7D7A7C"/>
<path d="M39.2969 123.902C45.9236 125.245 52.2833 127.673 58.1192 131.089C51.476 130.34 44.9425 128.82 38.6503 126.561C32.1143 125.28 25.6796 123.526 19.397 121.314C26.1382 120.775 32.9175 121.657 39.2969 123.902Z" fill="#F9E6CF"/>
<path opacity="0.5" d="M66.8838 146.325C80.1025 149.703 92.0281 153.512 100.649 156.243L110.922 159.692C112.179 160.075 113.404 160.556 114.586 161.13C113.273 161.013 111.974 160.772 110.707 160.411L100.433 157.896C91.597 155.811 79.4559 152.865 66.2372 150.062C50.2167 146.684 38.0756 144.312 29.8857 142.875C25.7009 142.574 21.5457 141.949 17.4573 141.006C17.4573 140.503 21.1212 139.21 29.3829 139.425C42.0934 140.38 54.6653 142.693 66.8838 146.325Z" fill="#7D7A7C"/>
<path d="M41.8113 141.653C47.7413 142.16 53.5201 143.794 58.8376 146.468C52.9576 146.524 47.0936 145.848 41.3802 144.456C35.5383 143.884 29.7647 142.753 24.1384 141.078C30.0015 139.987 36.0315 140.183 41.8113 141.653Z" fill="#F9E6CF"/>
<path opacity="0.5" d="M94.5426 120.739C104.097 125.411 112.646 130.226 118.681 133.891C121.698 135.688 124.141 137.197 125.865 138.347C126.755 138.871 127.596 139.472 128.38 140.144C127.386 139.857 126.424 139.471 125.506 138.994L117.891 135.401C111.497 132.382 102.661 128.214 92.9621 124.261C84.1597 120.553 75.167 117.314 66.0217 114.559C62.7992 114.045 59.6431 113.177 56.6106 111.971C56.6106 111.54 59.5561 110.39 66.0217 111.181C75.9744 112.837 85.6011 116.064 94.5426 120.739Z" fill="#7D7A7C"/>
<path d="M75.7202 113.984C80.2989 114.976 84.5656 117.073 88.1487 120.093C83.5667 119.638 79.0831 118.474 74.8581 116.643C70.4013 115.623 66.0662 114.129 61.9268 112.187C66.6019 111.469 71.3849 112.092 75.7202 113.984Z" fill="#F9E6CF"/>
<path opacity="0.5" d="M255.179 185.709C244.403 182.978 234.848 181.9 234.92 181.469C236.948 181.028 239.028 180.883 241.098 181.037C246.046 180.947 250.993 181.236 255.897 181.9C261.341 182.417 266.549 184.376 270.984 187.577C273.929 190.093 274.288 192.321 273.786 192.536C267.807 189.691 261.578 187.406 255.179 185.709Z" fill="#7D7A7C"/>
<path d="M265.165 188.009C261.573 186.571 258.483 185.278 258.699 184.487C258.914 183.696 262.291 183.84 265.883 185.421C269.475 187.002 272.277 189.805 271.63 190.38C270.984 190.955 268.757 189.374 265.165 188.009Z" fill="#F9E6CF"/>
<path opacity="0.5" d="M215.379 104.928C212.864 114.559 210.206 123.255 208.195 129.507L205.608 136.694C205.319 137.618 204.933 138.509 204.459 139.353C204.5 138.383 204.645 137.419 204.89 136.479C205.249 134.61 205.824 132.023 206.471 128.789C207.907 122.321 209.847 113.481 211.715 103.778C213.942 92.0639 215.522 83.2959 216.456 77.4027C216.682 74.3573 217.236 71.3452 218.109 68.4191C218.683 68.4191 219.905 71.0063 219.977 77.1152C219.624 86.5433 218.08 95.8888 215.379 104.928Z" fill="#7D7A7C"/>
<path d="M218.612 86.6019C218.38 90.9535 217.125 95.189 214.948 98.9633C214.441 94.6785 214.758 90.3364 215.882 86.1707C216.13 81.8985 217.001 77.6856 218.468 73.6655C219.732 77.8781 219.782 82.3623 218.612 86.6019Z" fill="#F9E6CF"/>
<path opacity="0.5" d="M276.875 100.185C268.397 107.947 260.639 115.134 254.963 120.452C252.161 122.967 249.791 125.052 248.21 126.561C247.388 127.333 246.498 128.031 245.552 128.645C246.13 127.651 246.83 126.734 247.635 125.914L253.742 119.158C259.058 113.481 266.242 105.719 274.145 97.5978C293.326 77.3308 304.677 68.3472 305.395 68.8503C306.114 69.3534 298.499 79.7743 276.875 100.185Z" fill="#7D7A7C"/>
<path d="M291.746 84.5896C288.452 88.4575 284.484 91.696 280.036 94.1481C279.461 93.5732 283.771 88.4705 289.59 82.6491C292.951 78.7342 297.022 75.491 301.588 73.0906C299.046 77.4991 295.708 81.3979 291.746 84.5896Z" fill="#F9E6CF"/>
<path opacity="0.5" d="M290.453 124.549L262.147 138.922L253.455 143.45C252.413 144.075 251.304 144.581 250.15 144.959C251.069 144.159 252.054 143.437 253.095 142.803L261.285 137.485C268.469 133.029 277.88 127.064 288.657 120.883C298.387 115.054 308.602 110.076 319.189 106.006C326.373 103.347 330.54 103.132 330.612 103.635C330.684 104.138 327.666 105.503 321.201 108.737L290.453 124.549Z" fill="#7D7A7C"/>
<path d="M310.64 113.553C306.017 116.306 301.003 118.342 295.769 119.59C299.722 115.881 304.358 112.976 309.419 111.037C314.063 108.235 319.259 106.47 324.649 105.863C320.336 109.029 315.626 111.615 310.64 113.553Z" fill="#F9E6CF"/>
<path opacity="0.5" d="M139.299 113.481C144.212 118.896 148.817 124.582 153.093 130.514C154.914 132.91 156.524 135.458 157.906 138.132C155.586 136.122 153.424 133.935 151.44 131.592C147.633 127.567 142.317 121.961 136.282 116.212C130.905 110.943 125.22 106 119.256 101.407C115.305 98.3883 112.934 97.3821 113.077 96.8072C113.221 96.2322 115.807 95.9448 120.262 98.2446C127.516 102.07 133.977 107.24 139.299 113.481Z" fill="#7D7A7C"/>
<path d="M127.302 103.132C132.043 106.941 135.061 110.893 134.486 111.397C133.911 111.9 130.104 109.025 125.506 105.288C120.908 101.551 116.957 98.8914 117.244 98.1008C117.532 97.3103 122.56 99.1788 127.302 103.132Z" fill="#F9E6CF"/>
<path opacity="0.5" d="M72.7746 93.5012C84.8439 100.688 95.4045 107.875 102.948 113.265C106.755 115.924 110.132 118.152 111.856 119.805C112.989 120.566 114.048 121.432 115.017 122.392C113.759 121.836 112.557 121.162 111.425 120.38L102.014 114.702C94.0395 109.887 83.1197 103.347 70.9067 97.1665C59.9025 90.99 48.5304 85.4937 36.8542 80.7086C32.715 79.4996 28.679 77.9615 24.7849 76.109C24.7849 75.6059 28.808 75.1747 37.0697 77.2589C49.6653 80.9941 61.6816 86.4604 72.7746 93.5012Z" fill="#7D7A7C"/>
<path d="M49.2108 82.146C54.9796 84.1642 60.2994 87.289 64.8721 91.3452C59.0574 89.7909 53.4408 87.5723 48.1332 84.7333C42.4844 82.7347 36.9864 80.3329 31.6816 77.5464C37.8039 77.6871 43.8077 79.2625 49.2108 82.146Z" fill="#F9E6CF"/>
<path opacity="0.5" d="M157.906 99.5382C161.576 105.715 164.84 112.125 167.676 118.727C169.049 121.474 170.178 124.336 171.053 127.279C169.238 124.814 167.606 122.22 166.168 119.518C163.222 114.702 158.984 108.091 154.386 101.335C150.247 95.1607 145.427 89.4714 140.018 84.3739C136.282 81.2116 133.839 80.4211 133.911 79.8461C133.983 79.2712 136.713 78.7681 141.526 81.3554C148.415 85.9566 154.046 92.2068 157.906 99.5382Z" fill="#7D7A7C"/>
<path d="M147.418 87.1768C151.656 91.7046 153.955 96.1604 153.308 96.5916C152.662 97.0228 149.429 93.4294 145.406 89.4048C141.383 85.3801 137.647 82.2179 137.863 81.7867C138.078 81.3555 143.538 82.7928 147.418 87.1768Z" fill="#F9E6CF"/>
<path opacity="0.5" d="M93.2493 89.0454C104.6 97.8852 114.802 106.653 121.411 113.121C124.931 116.355 127.733 119.086 129.601 120.955C130.674 121.872 131.638 122.909 132.474 124.045C131.314 123.288 130.209 122.447 129.17 121.53L120.261 114.343C113.077 108.45 102.589 100.329 91.0222 91.992C80.5974 84.3898 69.7039 77.4526 58.4064 71.2219C50.7195 67.1973 46.409 66.3349 46.4809 65.688C46.5527 65.0412 50.7913 64.7538 58.9812 67.8441C71.364 73.2251 82.9057 80.3658 93.2493 89.0454Z" fill="#7D7A7C"/>
<path d="M70.8351 74.3841C76.2897 77.2409 81.1627 81.0921 85.2033 85.7394C79.6248 83.3273 74.3253 80.315 69.3983 76.7558C60.7055 71.4375 53.2341 68.419 53.4496 67.4847C59.735 68.2756 65.717 70.6496 70.8351 74.3841Z" fill="#F9E6CF"/>
<path opacity="0.5" d="M119.759 80.9242C127.661 89.9796 134.127 98.6039 139.228 104.928L144.903 112.546C145.647 113.446 146.275 114.436 146.771 115.493C145.873 114.742 145.033 113.925 144.256 113.049L137.934 105.863C132.546 100.041 125.219 91.9201 116.885 83.3677C106.899 73.2342 99.1403 65.688 93.7522 61.2321C90.8231 59.0179 88.0395 56.6173 85.4187 54.0453C85.4187 53.4703 89.0826 54.0453 95.1891 58.0699C104.322 64.6058 112.579 72.2866 119.759 80.9242Z" fill="#7D7A7C"/>
<path d="M103.666 65.3287C107.801 68.5542 111.204 72.6205 113.652 77.2589C109.217 74.5784 105.199 71.261 101.727 67.4129C97.7033 64.2074 93.9984 60.6213 90.6631 56.7045C95.6724 58.4012 100.154 61.3734 103.666 65.3287Z" fill="#F9E6CF"/>
<path opacity="0.5" d="M183.122 51.0269C185.206 64.3945 186.571 76.684 187.361 85.6676C187.792 90.1235 188.079 93.7888 188.295 96.376C188.405 97.6913 188.405 99.0135 188.295 100.329C187.929 99.054 187.641 97.7579 187.433 96.4479C187.002 93.9325 186.355 90.3391 185.565 85.9551C184.128 77.0434 181.973 64.8975 179.459 51.7456C176.226 35.7907 173.424 23.8605 171.197 15.8112C168.97 7.76191 167.03 4.31221 167.461 3.95287C167.892 3.59353 170.909 6.32454 174.07 13.9426C178.516 25.9108 181.554 38.3559 183.122 51.0269Z" fill="#7D7A7C"/>
<path d="M177.303 26.3759C179.205 31.9688 180.058 37.8653 179.818 43.7681C177.355 38.4668 175.616 32.8589 174.645 27.0946C172.848 21.5786 171.479 15.9321 170.55 10.2054C174.101 14.9555 176.421 20.5108 177.303 26.3759Z" fill="#F9E6CF"/>
<path opacity="0.5" d="M144.328 73.0187C148.782 82.0742 152.303 90.5547 154.745 97.1666C155.966 100.329 156.9 102.844 157.547 104.353C157.951 105.273 158.24 106.238 158.409 107.228C157.749 106.361 157.24 105.389 156.9 104.353L153.165 97.1666C150.076 91.2734 145.981 82.7929 140.88 74.4561C136.516 66.5553 131.719 58.9016 126.512 51.53C123.063 46.6429 120.693 44.7743 120.908 44.3431C121.124 43.9119 124.285 44.3431 128.667 48.9427C135.17 56.0562 140.461 64.1898 144.328 73.0187Z" fill="#7D7A7C"/>
<path d="M134.27 56.9919C137.081 60.4259 139.005 64.498 139.874 68.8503C139.156 69.2815 135.923 64.4663 131.9 58.5731C129.12 55.2259 126.711 51.5873 124.716 47.7209C125.434 46.8585 130.247 50.8831 134.27 56.9919Z" fill="#F9E6CF"/>
<path opacity="0.5" d="M144.975 59.148C151.225 74.2404 156.182 88.3267 159.343 98.6039L163.294 110.893C163.794 112.401 164.202 113.937 164.516 115.493C163.752 114.111 163.103 112.669 162.576 111.181L157.906 99.2507C153.811 89.1891 148.136 75.4622 141.383 60.7291C135.392 47.293 128.454 34.3 120.621 21.8481C115.233 13.6551 111.282 10.5647 111.569 10.1335C111.856 9.7023 116.454 11.3553 122.776 19.0452C131.991 31.3231 139.462 44.819 144.975 59.148Z" fill="#7D7A7C"/>
<path d="M130.966 32.4847C134.874 38.4149 137.718 44.9814 139.371 51.8893C135.225 46.2114 131.595 40.1744 128.523 33.8502C122.92 23.7886 117.316 16.3861 117.747 15.8831C123.416 20.2811 127.948 25.9739 130.966 32.4847Z" fill="#F9E6CF"/>
<path opacity="0.5" d="M130.75 77.4026C137.934 89.9796 144.328 101.766 148.782 110.39C150.866 114.702 152.662 118.296 153.883 120.739C154.531 121.999 155.107 123.295 155.607 124.62C154.715 123.519 153.922 122.34 153.236 121.099L147.202 111.54C142.173 103.275 135.276 91.8482 127.446 79.7024C117.963 64.6818 110.563 54.0453 105.319 46.8584C100.074 39.6715 96.8414 36.5093 97.1288 36.0062C97.4161 35.5031 101.296 37.2999 107.33 43.8399C116.282 54.1826 124.131 65.431 130.75 77.4026Z" fill="#7D7A7C"/>
<path d="M115.376 54.8359C119.392 59.7574 122.55 65.3215 124.716 71.2938C120.282 66.8396 116.399 61.869 113.149 56.4889C109.238 51.5915 105.708 46.4018 102.589 40.9652C107.786 44.6292 112.145 49.3574 115.376 54.8359Z" fill="#F9E6CF"/>
<path opacity="0.5" d="M116.598 190.596C122.958 189.286 129.385 188.326 135.851 187.721C138.552 187.496 141.268 187.496 143.969 187.721C141.473 188.401 138.926 188.881 136.354 189.158C131.541 190.308 124.859 191.889 117.819 194.046C109.27 196.633 103.02 198.933 98.9247 200.586C94.8298 202.239 92.6746 203.245 92.3872 202.957C92.0999 202.67 93.1775 200.657 96.9132 197.855C102.992 194.285 109.657 191.827 116.598 190.596Z" fill="#7D7A7C"/>
<path d="M103.307 195.124C108.408 193.111 112.79 192.608 113.006 193.327C113.221 194.046 109.198 195.77 104.385 197.711C101.87 198.645 99.787 199.651 98.0628 200.082C96.3386 200.514 95.4765 201.089 95.1892 200.729C94.9018 200.37 95.692 199.508 97.1289 198.358C99.074 197.074 101.144 195.99 103.307 195.124Z" fill="#F9E6CF"/>
<path opacity="0.5" d="M66.0934 201.52C77.1058 198.753 88.2567 196.57 99.4994 194.98C103.882 194.333 107.402 193.902 109.845 193.686C111.135 193.57 112.433 193.57 113.724 193.686L109.988 194.692L99.8586 196.992C91.3096 198.933 79.5995 201.664 67.0992 205.473C55.7504 208.774 44.7348 213.129 34.1961 218.481C27.012 222.362 24.5694 225.308 24.0665 224.949C23.5636 224.59 25.216 220.996 31.7535 216.109C42.1905 209.146 53.8374 204.198 66.0934 201.52Z" fill="#7D7A7C"/>
<path d="M42.9607 210.144C48.0861 207.46 53.7126 205.869 59.4841 205.473C54.6381 208.424 49.4825 210.835 44.1102 212.66C35.7766 216.469 29.2391 220.493 28.5925 219.99C27.946 219.487 34.1243 214.025 42.9607 210.144Z" fill="#F9E6CF"/>
<path opacity="0.5" d="M62.717 195.77C77.5162 193.399 91.0941 191.89 101.008 190.955L112.79 189.877H117.172C115.8 190.349 114.377 190.662 112.934 190.811L101.296 192.824C91.4533 194.477 77.9472 196.777 63.3635 200.011C45.7625 203.604 32.5438 206.694 23.8511 209.282C15.1583 211.869 11.0634 213.809 10.776 213.378C10.4886 212.947 13.5778 209.857 21.9113 206.191C35.0814 201.204 48.7687 197.708 62.717 195.77Z" fill="#7D7A7C"/>
<path d="M35.7767 202.167C41.9616 200.128 48.4477 199.156 54.9582 199.292C48.9462 201.897 42.6547 203.802 36.2077 204.97C30.0716 206.935 23.8064 208.472 17.4573 209.569C22.9703 205.831 29.2148 203.307 35.7767 202.167Z" fill="#F9E6CF"/>
<path opacity="0.5" d="M58.3348 164.292C72.703 165.873 85.2751 167.598 94.2552 169.035L105.319 170.832C106.707 170.994 108.078 171.283 109.414 171.694C108.028 171.821 106.633 171.821 105.247 171.694L94.0397 170.904L57.6164 168.317C40.5901 167.239 27.7306 166.448 19.1097 166.161C14.7368 166.273 10.3623 166.008 6.03467 165.37C6.03467 164.867 9.77039 163.358 18.2476 162.783C31.6287 162.174 45.0373 162.679 58.3348 164.292Z" fill="#7D7A7C"/>
<path d="M31.8974 163.142C38.0751 162.9 44.2482 163.727 50.1449 165.586C44.0566 166.51 37.8734 166.63 31.7537 165.945C25.6388 166.065 19.5269 165.583 13.5061 164.508C19.4848 162.834 25.7372 162.37 31.8974 163.142Z" fill="#F9E6CF"/>
<path opacity="0.5" d="M207.548 110.031C205.68 118.224 203.741 125.698 202.304 131.089C201.603 134.072 200.69 137.002 199.574 139.856C199.66 136.815 199.996 133.787 200.58 130.801C201.37 125.195 202.519 117.577 203.741 109.24C204.596 98.9937 206.571 88.8717 209.631 79.0556C210.853 78.9837 212.433 88.8297 207.548 110.031Z" fill="#7D7A7C"/>
<path d="M209.632 94.3637C208.769 100.401 207.261 105.072 206.471 104.928C205.647 101.334 205.647 97.5991 206.471 94.0044C206.648 90.3184 207.551 86.7037 209.129 83.3678C210.278 83.4397 210.566 88.3986 209.632 94.3637Z" fill="#F9E6CF"/>
<path opacity="0.5" d="M198.137 73.881C197.275 87.4642 196.197 99.8975 195.263 108.953C194.761 113.481 194.401 117.146 194.114 119.661C194.077 121.002 193.859 122.332 193.467 123.614C193.346 122.299 193.346 120.976 193.467 119.661C193.467 117.074 193.467 113.409 193.467 108.881C193.467 99.7538 193.898 87.3205 194.186 73.7373C194.617 57.3512 194.832 44.9898 195.048 36.5812C194.835 32.3724 195.1 28.1531 195.838 24.0041C197.131 23.7167 200.58 38.8091 198.137 73.881Z" fill="#7D7A7C"/>
<path d="M198.281 48.4395C198.704 54.3685 198.097 60.3262 196.485 66.0473C195.347 60.2515 195.009 54.3272 195.479 48.4395C195.142 42.5482 195.504 36.6378 196.556 30.8317C198.256 36.5358 198.841 42.5139 198.281 48.4395Z" fill="#F9E6CF"/>
<path opacity="0.5" d="M208.195 70.072C206.255 83.5833 204.243 95.9448 202.591 104.856C201.945 109.312 201.011 112.978 201.011 115.493C200.774 116.804 200.463 118.099 200.077 119.374C199.903 118.062 199.903 116.733 200.077 115.421C200.077 112.834 200.651 109.169 201.082 104.641C202.016 95.5854 203.238 83.0803 204.603 69.6408C206.183 53.2547 207.404 40.8933 208.267 32.5565C208.351 28.3115 208.93 24.0907 209.991 19.9795C211.212 19.8358 213.511 35.2157 208.195 70.072Z" fill="#7D7A7C"/>
<path d="M210.422 44.6305C210.372 50.5834 209.328 56.4862 207.333 62.0946C206.578 56.216 206.699 50.2579 207.692 44.4149C207.791 38.4967 208.587 32.6109 210.063 26.8789C211.288 32.7219 211.41 38.7427 210.422 44.6305Z" fill="#F9E6CF"/>
<path opacity="0.5" d="M227.951 108.881C224.431 116.715 220.767 123.83 218.396 128.933C217.082 131.744 215.57 134.458 213.87 137.054C214.59 134.026 215.575 131.068 216.816 128.214C218.755 122.752 221.413 115.421 224.359 107.444C227.463 97.4962 231.182 87.7512 235.494 78.2651C236.931 78.2651 236.931 88.6861 227.951 108.881Z" fill="#7D7A7C"/>
<path d="M233.052 93.645C231.04 99.4664 228.669 103.922 227.951 103.635C227.948 99.8806 228.782 96.1731 230.394 92.7826C232.405 87.0331 234.057 82.4335 234.848 82.5773C235.309 86.3622 234.686 90.2005 233.052 93.645Z" fill="#F9E6CF"/>
<path opacity="0.5" d="M213.008 251.828C211.499 244.21 209.775 237.454 208.338 232.136C207.436 229.408 206.716 226.623 206.183 223.799C206.183 223.799 206.686 224.518 207.404 225.883C208.123 227.249 208.913 229.117 209.991 231.561C212.646 237.881 214.902 244.362 216.744 250.966C222.06 269.795 218.181 280.575 216.744 280.072C215.307 279.569 216.313 279.426 216.241 278.348C215.983 276.657 215.815 274.953 215.738 273.245C215.266 266.057 214.354 258.905 213.008 251.828Z" fill="#7D7A7C"/>
<path d="M215.954 266.058C215.19 262.699 215.19 259.212 215.954 255.853C216.744 255.853 218.253 260.093 218.827 265.771C219.402 271.448 218.324 276.192 217.534 276.12C216.44 272.88 215.906 269.477 215.954 266.058Z" fill="#F9E6CF"/>
<path opacity="0.5" d="M217.534 293.368L208.985 259.374C207.907 254.99 207.045 251.397 206.471 248.881C206.115 247.608 205.851 246.311 205.68 245C206.302 246.17 206.808 247.397 207.189 248.666C207.979 251.109 209.201 254.631 210.709 258.871C213.583 267.495 217.39 279.354 221.198 292.362C230.825 323.912 231.687 341.52 230.322 341.52C228.628 337.942 227.443 334.144 226.802 330.237C224.79 322.187 221.773 310.329 217.534 293.368Z" fill="#7D7A7C"/>
<path d="M224.287 317.803C222.502 312.171 221.511 306.317 221.342 300.411C224.178 305.627 226.098 311.291 227.017 317.157C228.877 322.806 229.657 328.755 229.316 334.693C226.962 329.287 225.274 323.616 224.287 317.803Z" fill="#F9E6CF"/>
<path opacity="0.5" d="M230.609 269.651C226.442 259.087 222.276 249.528 219.258 242.485L215.738 233.717C215.277 232.718 214.892 231.685 214.589 230.627C214.589 230.627 215.379 231.561 216.456 233.43L220.839 241.335C224.503 248.019 229.316 257.29 234.129 267.711C238.797 277.138 242.434 287.041 244.977 297.249C246.558 304.436 246.055 308.029 245.552 308.029C245.049 308.029 241.744 296.458 230.609 269.651Z" fill="#7D7A7C"/>
<path d="M238.943 288.769C236.834 284.226 235.476 279.372 234.92 274.395C238.061 278.305 240.338 282.836 241.601 287.69C243.725 292.175 244.735 297.106 244.546 302.064C242.149 297.875 240.267 293.41 238.943 288.769Z" fill="#F9E6CF"/>
<path opacity="0.5" d="M255.753 247.588C250.94 240.401 245.983 234.436 242.391 229.908C240.342 227.622 238.423 225.223 236.644 222.721C236.644 222.721 237.434 223.152 238.655 224.23C239.877 225.308 241.601 226.89 243.684 228.902C249.082 234.085 254.145 239.606 258.843 245.432C264.132 251.569 268.138 258.705 270.625 266.417C271.99 271.808 271.271 274.754 270.625 274.754C266.469 265.282 261.493 256.192 255.753 247.588Z" fill="#7D7A7C"/>
<path d="M264.733 260.596C261.932 255.278 259.489 250.894 260.136 250.463C260.782 250.031 264.231 253.768 267.32 259.302C270.409 264.836 270.984 270.155 270.193 270.298C269.403 270.442 267.607 265.914 264.733 260.596Z" fill="#F9E6CF"/>
<path opacity="0.5" d="M247.779 213.45C243.038 209.354 238.368 205.832 234.991 203.317C233.03 202.069 231.2 200.624 229.531 199.005C231.76 199.699 233.904 200.639 235.925 201.807C240.923 204.319 245.726 207.202 250.294 210.432C255.372 213.742 259.604 218.198 262.65 223.44C264.518 227.249 264.231 229.621 263.728 229.692C263.225 229.764 260.064 224.015 247.779 213.45Z" fill="#7D7A7C"/>
<path d="M256.615 220.925C253.67 217.619 251.227 214.888 251.73 214.241C252.233 213.594 255.538 215.534 258.914 219.056C262.291 222.578 263.369 226.243 262.65 226.674C261.932 227.105 259.633 224.159 256.615 220.925Z" fill="#F9E6CF"/>
<path opacity="0.5" d="M280.036 177.228C271.63 176.222 263.8 175.863 258.052 175.503C254.952 175.492 251.856 175.276 248.785 174.857C251.835 174.214 254.937 173.854 258.052 173.779C263.8 173.419 271.63 173.06 280.323 173.347C288.39 173.291 296.383 174.88 303.815 178.019C308.916 180.391 310.281 183.553 309.85 183.768C309.419 183.984 307.694 182.618 302.666 181.325C295.254 179.312 287.682 177.942 280.036 177.228Z" fill="#7D7A7C"/>
<path d="M295.553 178.809C289.734 177.516 284.849 176.51 284.921 175.719C288.631 174.705 292.561 174.83 296.2 176.078C302.378 177.3 306.76 180.462 306.329 181.109C302.677 180.659 299.071 179.889 295.553 178.809Z" fill="#F9E6CF"/>
<path opacity="0.5" d="M234.273 124.405C230.178 130.082 226.371 135.257 223.497 138.778C222.067 140.879 220.457 142.851 218.684 144.672C219.534 142.156 220.667 139.745 222.06 137.485C224.287 133.388 227.448 127.783 231.04 121.746C239.589 107.372 245.408 100.76 246.63 101.335C247.851 101.91 244.834 109.744 234.273 124.405Z" fill="#7D7A7C"/>
<path d="M240.954 113.193C238.224 117.362 235.494 120.38 234.848 120.021C234.201 119.661 235.854 115.852 238.583 111.684C241.313 107.516 244.043 104.497 244.69 104.857C245.337 105.216 243.684 109.025 240.954 113.193Z" fill="#F9E6CF"/>
<path opacity="0.5" d="M292.249 132.382L264.087 144.6L255.394 148.337C254.358 148.866 253.276 149.299 252.161 149.631C252.161 149.631 253.167 148.84 255.035 147.69L263.297 143.019C270.481 139.21 279.892 134.035 290.668 128.645C300.463 123.658 310.711 119.615 321.272 116.571C328.456 114.703 332.479 115.062 332.479 115.637C332.479 116.212 329.462 117.002 322.925 119.59C316.387 122.177 306.401 126.417 292.249 132.382Z" fill="#7D7A7C"/>
<path d="M312.436 123.255C307.899 125.487 303.057 127.037 298.068 127.854C302.126 124.581 306.788 122.139 311.789 120.668C316.487 118.289 321.682 117.057 326.948 117.074C322.375 119.708 317.503 121.783 312.436 123.255Z" fill="#F9E6CF"/>
<path opacity="0.5" d="M279.03 263.974C270.337 253.84 262.004 244.857 255.969 238.317L248.785 230.483C247.876 229.563 247.036 228.579 246.271 227.536C247.376 228.25 248.411 229.068 249.36 229.98L257.19 237.167C263.8 243.276 272.708 251.541 281.904 261.458C290.597 270.15 298.284 279.794 304.821 290.206C309.131 297.393 309.85 301.849 309.347 301.992C308.844 302.136 307.12 298.974 302.163 292.721C297.206 286.469 290.309 276.838 279.03 263.974Z" fill="#7D7A7C"/>
<path d="M295.481 282.588C291.58 278.237 288.249 273.407 285.567 268.214C290.371 271.574 294.491 275.818 297.708 280.719C301.716 285.023 304.689 290.185 306.401 295.812C302.406 291.71 298.753 287.287 295.481 282.588Z" fill="#F9E6CF"/>
<path opacity="0.5" d="M255.466 281.366C250.222 270.801 244.906 261.387 241.098 254.559L236.356 246.438C235.696 245.47 235.142 244.434 234.704 243.348C235.551 244.141 236.299 245.034 236.931 246.007C238.296 247.803 240.308 250.319 242.535 253.625C248.479 261.987 253.994 270.647 259.058 279.569C264.639 289.045 268.802 299.287 271.415 309.97C272.636 317.157 272.421 321.181 271.415 321.181C269.862 318.119 268.749 314.853 268.11 311.479C264.496 301.2 260.274 291.144 255.466 281.366Z" fill="#7D7A7C"/>
<path d="M265.093 301.058C262.866 296.492 261.225 291.662 260.208 286.684C263.573 290.6 266.027 295.215 267.392 300.196C268.626 303.648 269.634 307.177 270.409 310.76C270.409 313.635 270.409 315.36 270.409 315.432C270.409 315.504 269.403 313.851 268.541 311.263C267.679 308.676 266.601 305.011 265.093 301.058Z" fill="#F9E6CF"/>
<path opacity="0.5" d="M251.802 160.483C242.104 161.92 233.986 164.22 233.842 163.789C235.345 162.749 236.959 161.881 238.655 161.202C242.753 159.384 246.979 157.871 251.299 156.674C255.934 155.119 260.912 154.895 265.668 156.027C269.044 157.249 269.978 159.189 269.619 159.549C269.26 159.908 267.895 159.549 265.308 159.549C260.788 159.467 256.269 159.779 251.802 160.483Z" fill="#7D7A7C"/>
<path d="M260.639 158.83C257.262 158.83 254.317 158.83 254.173 158.039C254.029 157.249 256.831 156.099 260.567 156.027C264.303 155.955 267.751 157.536 266.961 158.255C266.17 158.974 264.015 158.614 260.639 158.83Z" fill="#F9E6CF"/>
<path opacity="0.5" d="M260.495 97.9572L242.966 119.518L237.506 125.914C236.845 126.755 236.098 127.526 235.279 128.214C235.744 127.389 236.298 126.618 236.931 125.914L241.673 118.727L257.478 95.7292C272.492 74.1686 281.832 64.5382 282.694 65.185C283.556 65.8318 277.88 76.1809 260.495 97.9572Z" fill="#7D7A7C"/>
<path d="M272.133 81.4992C267.535 87.6799 263.297 92.2795 262.65 91.8483C264.273 87.4113 266.709 83.3165 269.834 79.7743C274.504 73.5936 278.742 68.994 279.389 69.4252C277.79 73.8894 275.324 77.9929 272.133 81.4992Z" fill="#F9E6CF"/>
<path opacity="0.5" d="M240.379 82.0741C234.345 94.148 228.741 105.216 224.718 113.337C222.635 117.29 220.911 120.524 219.761 122.824C219.163 124.014 218.491 125.166 217.75 126.273C218.096 124.991 218.553 123.74 219.114 122.536C220.048 120.164 221.413 116.715 223.138 112.618C226.73 104.353 231.543 92.8544 236.931 80.4211C249.934 50.4518 258.483 35.8625 259.561 36.2937C260.639 36.7249 255.825 50.8112 240.379 82.0741Z" fill="#7D7A7C"/>
<path d="M250.509 59.0043C248.469 64.5116 245.558 69.6557 241.888 74.2405C243.029 68.4627 245.091 62.9059 247.995 57.7825C250.035 52.2531 252.945 47.0853 256.616 42.4745C255.493 48.2801 253.43 53.8635 250.509 59.0043Z" fill="#F9E6CF"/>
<path opacity="0.5" d="M271.63 199.795C266.042 197.035 260.283 194.634 254.388 192.608C251.931 191.873 249.53 190.96 247.204 189.877C247.921 189.797 248.643 189.797 249.36 189.877C251.289 190.066 253.207 190.354 255.107 190.74C261.359 191.934 267.49 193.69 273.426 195.986C279.962 198.344 285.76 202.385 290.237 207.701C291.178 209.225 292.018 210.81 292.751 212.444C292.751 213.666 292.751 214.313 292.751 214.456C286.483 208.541 279.364 203.599 271.63 199.795Z" fill="#7D7A7C"/>
<path d="M283.269 205.904C281.459 204.728 279.731 203.431 278.096 202.023C276.659 201.017 275.941 200.226 276.084 199.867C276.228 199.508 277.378 199.867 279.03 200.298C281.106 201.26 283.1 202.39 284.993 203.676C286.763 205.141 288.333 206.832 289.662 208.707C290.524 210.288 290.884 211.366 290.596 211.582C290.309 211.797 289.375 211.15 288.226 210C287.076 208.851 285.065 207.629 283.269 205.904Z" fill="#F9E6CF"/>
<path opacity="0.5" d="M305.755 195.555C293.542 192.824 282.191 190.883 274.001 189.518L264.159 187.865C262.943 187.692 261.743 187.428 260.567 187.074C261.786 186.98 263.011 186.98 264.231 187.074L274.145 187.793C282.55 188.512 294.045 189.59 306.473 191.746C318.011 193.357 329.245 196.675 339.807 201.592C346.991 205.185 349.29 208.779 348.931 209.282C348.572 209.785 345.914 207.485 339.089 204.97C328.227 201.007 317.085 197.86 305.755 195.555Z" fill="#7D7A7C"/>
<path d="M328.385 200.658C323.094 199.466 317.976 197.606 313.154 195.124C318.654 194.945 324.131 195.899 329.247 197.927C334.63 199.137 339.591 201.767 343.615 205.545C338.454 204.192 333.369 202.561 328.385 200.658Z" fill="#F9E6CF"/>
<path opacity="0.5" d="M235.422 72.8749C230.394 86.8174 225.58 99.61 221.916 108.809C220.049 113.409 218.54 117.146 217.534 119.733C217.085 121.126 216.457 122.455 215.666 123.686C215.971 122.276 216.355 120.884 216.816 119.518C217.606 116.787 218.827 112.978 220.264 108.234C223.281 98.7476 227.448 85.7394 231.759 71.6531L244.115 32.9159C245.216 28.4327 246.831 24.0918 248.929 19.9795C250.15 20.1232 248.569 36.7968 235.422 72.8749Z" fill="#7D7A7C"/>
<path d="M243.469 46.2117C242.017 52.5363 239.594 58.5975 236.284 64.1788C236.984 57.7583 238.506 51.4541 240.81 45.4211C242.272 39.1484 244.466 33.0696 247.348 27.3102C247.167 33.7888 245.854 40.1858 243.469 46.2117Z" fill="#F9E6CF"/>
<path opacity="0.5" d="M274.648 224.446C267.463 220.062 261.357 216.325 256.615 213.666C253.967 212.308 251.4 210.796 248.928 209.138C249.72 209.249 250.494 209.467 251.227 209.785C252.736 210.288 254.819 211.007 257.334 212.085C263.957 214.727 270.411 217.776 276.659 221.212C283.428 224.788 289.548 229.477 294.763 235.083C297.996 239.323 298.93 241.766 298.355 242.269C297.78 242.773 292.033 236.017 274.648 224.446Z" fill="#7D7A7C"/>
<path d="M287.22 232.639C282.622 229.046 279.03 225.955 279.461 225.452C279.892 224.949 284.274 226.818 288.944 230.483C290.882 232.131 292.684 233.934 294.332 235.873C295.481 237.598 295.984 238.748 295.697 238.964C295.41 239.179 294.332 238.532 292.967 237.311C291.602 236.089 289.519 234.436 287.22 232.639Z" fill="#F9E6CF"/>
<path opacity="0.5" d="M322.063 161.848C313.37 161.848 305.324 162.926 299.433 163.501C296.267 163.957 293.076 164.221 289.878 164.292C290.641 163.877 291.466 163.586 292.321 163.43L299.145 161.777C306.636 160.105 314.216 158.858 321.847 158.039C330.027 156.827 338.363 157.169 346.417 159.046C351.948 160.699 354.104 163.07 353.601 163.43C353.098 163.789 351.015 163.43 346.057 162.495C338.089 161.645 330.065 161.429 322.063 161.848Z" fill="#7D7A7C"/>
<path d="M338.37 161.058C334.53 161.292 330.68 160.804 327.02 159.62C330.644 158.084 334.631 157.611 338.514 158.255C344.98 158.614 350.009 160.77 349.721 161.561C345.931 161.833 342.122 161.664 338.37 161.058Z" fill="#F9E6CF"/>
<path opacity="0.5" d="M311.933 145.175L288.656 151.356L281.472 153.224C279.748 153.655 278.814 153.871 278.742 153.727C279.539 153.239 280.381 152.83 281.257 152.505L288.082 149.703C293.901 147.403 301.947 144.456 310.783 141.51C318.915 138.636 327.315 136.589 335.856 135.401C341.675 134.754 344.764 135.401 344.692 136.048C333.999 139.851 323.052 142.901 311.933 145.175Z" fill="#7D7A7C"/>
<path d="M328.528 140.288C324.675 141.72 320.559 142.308 316.459 142.013C319.832 139.641 323.725 138.113 327.81 137.557C331.72 136.139 335.943 135.816 340.023 136.622C336.425 138.484 332.539 139.723 328.528 140.288Z" fill="#F9E6CF"/>
<path opacity="0.5" d="M288.872 100.832C280.467 106.869 272.852 112.618 267.32 116.715L260.711 121.674C259.927 122.339 259.057 122.895 258.124 123.327C258.738 122.512 259.436 121.765 260.208 121.099L266.242 115.421C271.343 110.678 278.455 104.353 286.573 97.7415C293.887 91.5206 301.861 86.122 310.353 81.6429C316.244 78.7681 319.907 78.6244 319.907 79.1275C319.907 79.6306 317.608 80.8523 312.723 84.302C307.838 87.7517 299.792 93.07 288.872 100.832Z" fill="#7D7A7C"/>
<path d="M304.246 89.1173C300.758 92.0259 296.764 94.2673 292.464 95.7292C292.033 95.0824 296.487 90.914 302.666 86.7456C306.204 83.7844 310.471 81.8241 315.022 81.068C315.381 81.7867 310.352 84.9489 304.246 89.1173Z" fill="#F9E6CF"/>
<path opacity="0.5" d="M309.706 208.922C301.085 205.473 292.895 202.957 286.86 201.161L279.676 199.076L277.09 198.142C277.09 198.142 278.096 198.142 279.82 198.142C281.544 198.142 284.13 198.717 287.004 199.22C295.018 200.673 302.936 202.618 310.712 205.041C319.24 207.368 327.142 211.566 333.844 217.331C338.227 221.643 339.017 224.949 338.442 225.165C337.867 225.38 336.359 223.368 332.12 220.278C325.144 215.585 317.616 211.771 309.706 208.922Z" fill="#7D7A7C"/>
<path d="M325.654 215.462C319.907 212.156 315.022 209.785 315.381 208.994C319.569 209.175 323.614 210.574 327.019 213.019C333.054 216.397 336.646 221.068 335.928 221.571C332.372 219.764 328.941 217.723 325.654 215.462Z" fill="#F9E6CF"/>
<path opacity="0.5" d="M275.653 250.031C267.535 241.982 259.633 235.011 254.101 229.98L246.917 223.943C246.021 223.269 245.201 222.497 244.474 221.643C245.492 222.112 246.456 222.69 247.348 223.368C249.144 224.59 251.73 226.315 254.532 228.614C260.782 233.142 268.9 239.538 277.952 247.228C286.194 254.103 293.447 262.084 299.504 270.945C303.097 277.198 304.174 280.791 303.599 281.079C303.025 281.366 301.157 278.779 297.134 273.389C293.111 267.999 286.214 260.38 275.653 250.031Z" fill="#7D7A7C"/>
<path d="M290.955 264.908C285.567 258.799 281.185 253.768 281.76 253.193C282.334 252.619 287.579 256.859 293.039 263.111C295.354 265.828 297.467 268.71 299.361 271.736C300.654 274.107 301.157 275.76 300.869 275.976C300.582 276.191 299.433 274.898 297.78 272.885C296.128 270.873 293.613 267.998 290.955 264.908Z" fill="#F9E6CF"/>
<path opacity="0.5" d="M256.041 267.424C251.012 258.871 246.127 251.109 242.606 245.432L238.511 238.676C237.954 237.872 237.496 237.003 237.146 236.089C237.89 236.714 238.543 237.44 239.086 238.245C240.307 239.754 242.032 241.838 244.043 244.426C248.138 249.744 253.67 257.074 259.273 265.339C273.642 285.175 276.084 298.399 274.935 298.615C273.785 298.83 269.403 289.415 256.041 267.424Z" fill="#7D7A7C"/>
<path d="M266.099 283.019C263.574 279.466 261.746 275.467 260.71 271.233C261.357 270.801 264.949 275.401 268.541 281.654C271.092 285.266 272.675 289.472 273.139 293.871C272.349 294.159 269.619 289.128 266.099 283.019Z" fill="#F9E6CF"/>
<path opacity="0.5" d="M301.588 229.549C294.404 225.452 287.723 222.362 282.838 219.559C280.095 218.359 277.452 216.941 274.935 215.319C277.878 215.962 280.762 216.852 283.556 217.978C290.307 220.326 296.926 223.037 303.384 226.099C310.467 229.179 316.921 233.541 322.422 238.964C326.086 242.844 326.589 246.15 326.158 246.15C325.727 246.15 324.218 244.713 320.482 241.838C314.452 237.343 308.142 233.238 301.588 229.549Z" fill="#7D7A7C"/>
<path d="M315.094 236.879C310.281 233.573 306.401 230.77 306.832 229.692C307.263 228.614 311.717 230.77 316.675 234.22C321.632 237.67 324.577 241.766 323.859 242.269C323.14 242.773 319.836 240.113 315.094 236.879Z" fill="#F9E6CF"/>
<path opacity="0.5" d="M282.837 113.409L261.285 128.142L254.676 132.67C253.901 133.271 253.056 133.777 252.161 134.179C252.783 133.415 253.481 132.716 254.245 132.095L260.208 126.776C265.236 122.392 272.349 116.499 280.323 110.247C287.587 104.399 295.436 99.3175 303.743 95.0823C309.347 92.2794 312.723 91.8482 312.867 92.3513C303.273 99.9459 293.246 106.977 282.837 113.409Z" fill="#7D7A7C"/>
<path d="M297.852 102.341C291.889 106.222 286.86 109.528 286.358 108.522C285.855 107.516 290.309 103.922 296.343 99.9695C299.764 97.1225 303.88 95.2373 308.269 94.5074C305.214 97.6317 301.701 100.273 297.852 102.341Z" fill="#F9E6CF"/>
<path opacity="0.5" d="M156.11 309.754L165.593 279.785L168.539 270.586C168.799 269.424 169.235 268.31 169.832 267.28C169.723 268.466 169.53 269.642 169.257 270.801C168.754 273.029 168.108 276.263 167.245 280.216C165.449 288.122 162.935 299.046 160.061 310.832C152.877 339.58 145.693 353.307 144.472 352.732C143.251 352.157 146.843 339.723 156.11 309.754Z" fill="#7D7A7C"/>
<path d="M150.147 331.674C151.32 326.482 153.308 321.509 156.038 316.941C155.902 322.268 154.807 327.526 152.806 332.465C151.611 337.583 149.519 342.45 146.627 346.838C146.929 341.62 148.12 336.492 150.147 331.674Z" fill="#F9E6CF"/>
<path opacity="0.5" d="M230.322 60.226C226.802 71.2938 223.138 81.2836 220.551 88.5423L217.247 97.1665C216.885 98.2352 216.428 99.2694 215.882 100.257C216 99.2087 216.216 98.174 216.528 97.1665L218.899 88.2548C220.911 81.068 223.641 70.5033 226.586 59.5073C230.106 46.0679 232.693 36.0063 234.56 28.9631C235.11 25.242 236.099 21.5992 237.506 18.111C238.009 18.111 238.799 21.4169 238.009 28.3163C236.393 39.1591 233.821 49.8374 230.322 60.226Z" fill="#7D7A7C"/>
<path d="M235.423 39.1685C234.733 44.2715 232.97 49.1704 230.25 53.5422C230.258 48.5075 231.083 43.5074 232.693 38.7373C233.496 33.7782 234.945 28.9458 237.003 24.3635C237.611 29.3545 237.07 34.4185 235.423 39.1685Z" fill="#F9E6CF"/>
<path opacity="0.5" d="M265.667 103.778C260.136 109.456 255.035 114.703 251.299 118.152C249.339 120.269 247.226 122.239 244.977 124.045C246.434 121.503 248.117 119.098 250.006 116.859C253.239 112.618 257.837 106.941 262.866 100.76C275.007 85.8113 282.837 79.1994 283.628 80.2055C284.418 81.2117 279.533 88.9735 265.667 103.778Z" fill="#7D7A7C"/>
<path d="M274.791 92.2795C270.984 96.5198 267.607 99.4664 266.889 99.107C266.17 98.7477 268.9 94.723 272.708 90.4109C276.515 86.0988 279.892 83.2241 280.539 83.6553C281.185 84.0865 278.527 88.0393 274.791 92.2795Z" fill="#F9E6CF"/>
<path opacity="0.5" d="M256.687 84.8051L239.23 109.815L233.77 117.434C233.11 118.386 232.364 119.276 231.543 120.093C231.97 119.014 232.499 117.979 233.123 117.002L237.793 108.881C241.888 102.125 247.42 92.7825 253.454 82.7209C268.325 58.3574 277.737 46.7866 278.671 47.4334C279.605 48.0802 274.001 59.7229 256.687 84.8051Z" fill="#7D7A7C"/>
<path d="M268.254 66.0474C265.765 70.6378 262.453 74.7306 258.483 78.1214C260.046 73.1998 262.479 68.5991 265.667 64.5382C268.042 59.9534 271.26 55.8573 275.15 52.4642C273.663 57.3605 271.329 61.9578 268.254 66.0474Z" fill="#F9E6CF"/>
</g>
</svg>
