<svg width="462" height="471" viewBox="0 0 462 471" fill="none" xmlns="http://www.w3.org/2000/svg">
<g style="mix-blend-mode:screen">
<path opacity="0.5" d="M251.66 231.227C254.507 230.375 257.542 230.375 260.389 231.227C258.227 233.021 255.858 234.549 253.331 235.779C248.781 238.566 245.438 237.73 244.881 236.522C244.324 235.314 245.717 232.156 251.66 231.227Z" fill="#7D7A7C"/>
<path d="M247.945 233.363C249.431 232.713 250.917 233.363 251.289 233.921C251.66 234.478 250.731 236.057 249.246 236.708C247.76 237.358 246.274 236.708 245.902 236.15C245.531 235.593 246.367 233.921 247.945 233.363Z" fill="#F9E6CF"/>
<path opacity="0.5" d="M257.696 253.894C258.611 251.238 258.835 248.392 258.346 245.626C258.346 243.396 256.767 242.282 257.046 242.096C257.325 241.91 258.903 242.096 260.389 244.604C262.128 247.578 262.907 251.018 262.618 254.451C262.061 263.741 257.696 267.179 256.582 266.714C255.467 266.25 255.096 261.976 257.696 253.894Z" fill="#7D7A7C"/>
<path d="M256.953 260.118C257.603 257.796 258.996 256.031 259.832 256.217C260.668 256.402 261.132 258.632 260.389 261.14C259.646 263.649 258.067 265.321 257.232 265.042C256.396 264.763 256.396 262.534 256.953 260.118Z" fill="#F9E6CF"/>
<path opacity="0.5" d="M238.659 207.723C240.901 209.746 242.405 212.459 242.931 215.434C243.395 217.477 243.395 218.871 242.931 218.871C242.466 218.871 239.773 213.947 235.594 211.903C231.416 209.86 227.701 212.554 226.865 211.067C226.03 209.581 226.865 209.209 228.072 207.723C229.217 206.839 230.553 206.234 231.973 205.958C233.147 205.703 234.366 205.731 235.528 206.037C236.69 206.344 237.763 206.922 238.659 207.723Z" fill="#7D7A7C"/>
<path d="M231.973 206.98C234.666 206.98 236.616 208.188 236.152 209.024C235.687 209.86 234.201 210.231 232.623 210.51C231.044 210.789 229.187 210.51 228.722 210.51C228.258 210.51 229.094 207.723 231.973 206.98Z" fill="#F9E6CF"/>
<path opacity="0.5" d="M215.722 220.729C217.956 220.231 220.27 220.214 222.511 220.678C224.753 221.143 226.87 222.078 228.723 223.423C224.817 223.645 220.951 224.331 217.207 225.467C211.357 228.718 207.921 231.505 206.9 230.669C205.878 229.833 206.064 228.904 206.9 226.86C207.814 225.24 209.082 223.847 210.609 222.785C212.137 221.723 213.885 221.02 215.722 220.729Z" fill="#7D7A7C"/>
<path d="M209.778 224.631C212.007 223.051 214.236 222.773 214.7 223.795C215.164 224.817 213.772 226.21 212.007 227.511C210.243 228.811 208.571 229.74 207.921 229.183C207.271 228.625 207.828 226.489 209.778 224.631Z" fill="#F9E6CF"/>
<path opacity="0.5" d="M202.071 251.479C207.355 248.285 213.176 246.081 219.25 244.976C219.25 244.976 212.286 249.714 204.857 255.659C195.57 262.812 192.227 266.714 191.02 266.343C189.813 265.971 189.998 264.299 191.484 261.419C193.956 257.134 197.639 253.675 202.071 251.479Z" fill="#7D7A7C"/>
<path d="M194.827 257.982C197.52 255.473 200.306 254.359 200.956 255.195C201.606 256.031 199.749 258.26 197.335 260.583C194.92 262.905 192.877 264.67 191.949 264.113C191.02 263.556 192.32 260.583 194.827 257.982Z" fill="#F9E6CF"/>
<path opacity="0.5" d="M269.118 211.903C266.595 214.814 263.41 217.076 259.832 218.499C261.258 215.258 262.967 212.15 264.939 209.209C266.518 206.237 267.075 204.472 267.539 204.472C268.004 204.472 267.539 203.821 267.539 203.264C267.38 202.877 267.38 202.443 267.539 202.056C267.539 202.056 268.747 200.105 271.44 202.056C272.013 202.798 272.384 203.676 272.514 204.605C272.644 205.534 272.53 206.48 272.183 207.351C271.494 209.068 270.449 210.62 269.118 211.903Z" fill="#7D7A7C"/>
<path d="M271.626 206.144C270.79 208.652 269.025 209.581 268.282 209.024C267.54 208.466 267.632 206.701 268.282 205.215C268.189 204.912 268.189 204.588 268.282 204.286C268.21 204.107 268.21 203.907 268.282 203.728C268.282 203.264 268.282 202.799 268.282 202.335C268.396 202.199 268.538 202.089 268.698 202.013C268.859 201.938 269.034 201.899 269.211 201.899C269.388 201.899 269.564 201.938 269.724 202.013C269.885 202.089 270.026 202.199 270.14 202.335C270.575 202.829 270.92 203.395 271.161 204.007C271.413 204.695 271.569 205.414 271.626 206.144Z" fill="#F9E6CF"/>
<path opacity="0.5" d="M248.224 191.28C247.754 196.448 246.102 201.438 243.395 205.865C242.838 205.865 243.395 198.805 243.395 191.187C243.339 188.004 242.71 184.857 241.538 181.897C241.035 181.28 240.628 180.591 240.33 179.853C239.866 179.389 239.68 179.017 239.773 178.646C239.866 178.274 241.352 177.066 244.324 178.646C246.077 180.186 247.369 182.181 248.058 184.411C248.746 186.642 248.804 189.019 248.224 191.28Z" fill="#7D7A7C"/>
<path d="M246.367 183.105C247.667 186.356 246.367 188.864 245.717 188.957C245.067 189.05 243.952 186.635 243.024 184.498C242.095 182.362 242.002 182.547 241.909 181.618C241.661 181.403 241.471 181.128 241.358 180.819C241.244 180.511 241.21 180.178 241.259 179.853C241.259 179.389 242.281 179.389 243.488 179.853C244.761 180.612 245.767 181.749 246.367 183.105Z" fill="#F9E6CF"/>
<path opacity="0.5" d="M252.31 187.657C253.703 179.946 255.003 172.886 255.932 167.59C256.262 164.755 256.852 161.956 257.696 159.229C258.202 162.048 258.358 164.919 258.16 167.776C258.16 173.072 258.16 180.411 257.325 188.307C255.746 207.351 251.753 216.734 250.453 216.177C249.153 215.619 248.503 207.444 252.31 187.657Z" fill="#7D7A7C"/>
<path d="M250.545 202.242C251.381 196.668 252.867 192.302 253.796 192.395C254.724 192.488 255.003 197.133 253.796 202.799C252.588 208.466 251.288 212.74 250.36 212.089C249.431 211.439 250.545 207.723 250.545 202.242Z" fill="#F9E6CF"/>
<path opacity="0.5" d="M273.483 169.82C271.161 176.509 268.747 182.454 266.797 186.821C265.926 189.257 264.74 191.568 263.268 193.695C262.803 193.695 265.682 182.083 268.654 168.427C270.023 160.179 272.104 152.067 274.876 144.18C275.433 144.18 277.012 145.945 277.29 150.404C277.159 157.048 275.871 163.619 273.483 169.82Z" fill="#7D7A7C"/>
<path d="M275.897 156.721C274.968 161.738 273.111 166.011 272.09 165.268C271.068 164.525 271.44 160.902 272.09 155.978C272.74 151.054 273.947 147.338 274.968 147.338C275.99 147.338 276.919 151.705 275.897 156.721Z" fill="#F9E6CF"/>
<path opacity="0.5" d="M200.492 238.844C206.072 236.668 212.078 235.81 218.043 236.336C218.043 236.894 210.429 239.03 202.442 243.396C193.156 248.692 188.606 251.757 187.398 250.921C186.191 250.085 186.934 248.692 188.884 246.369C191.903 242.744 195.951 240.12 200.492 238.844Z" fill="#7D7A7C"/>
<path d="M192.784 243.861C195.663 241.724 198.635 241.446 199.006 242.282C199.378 243.118 197.335 244.976 194.734 246.834C192.134 248.692 189.72 249.899 188.977 249.063C188.234 248.227 189.813 245.812 192.784 243.861Z" fill="#F9E6CF"/>
<path opacity="0.5" d="M159.632 212.832C166.95 213.346 174.199 214.591 181.269 216.548C184.301 217.09 187.24 218.06 189.998 219.428C189.998 220.079 175.976 217.385 159.539 217.756C152.102 217.917 144.686 218.6 137.345 219.8C132.423 220.543 129.823 221.1 129.544 220.45C129.266 219.8 130.752 217.756 135.673 215.805C143.297 212.87 151.523 211.849 159.632 212.832Z" fill="#7D7A7C"/>
<path d="M143.66 214.412C149.789 213.39 154.803 214.412 154.803 215.155C154.803 215.898 149.974 217.013 144.217 217.942C138.459 218.871 133.816 219.893 133.352 218.778C132.888 217.663 137.438 215.155 143.66 214.412Z" fill="#F9E6CF"/>
<path opacity="0.5" d="M306.264 193.602L288.341 203.636C285.937 205.235 283.387 206.603 280.726 207.723C282.621 205.524 284.772 203.559 287.134 201.87C291.22 198.433 296.977 193.881 303.478 189.329C309.454 184.941 316.103 181.553 323.165 179.296C328.179 177.809 331.244 179.296 331.058 179.296C330.872 179.296 323.908 183.569 306.264 193.602Z" fill="#7D7A7C"/>
<path d="M318.522 185.799C313.507 188.307 309.235 189.979 308.678 189.143C308.121 188.307 311.743 185.148 316.85 182.547C321.958 179.946 326.879 179.203 327.158 180.225C327.437 181.247 323.443 183.198 318.522 185.799Z" fill="#F9E6CF"/>
<path opacity="0.5" d="M307.099 220.543C297.813 220.543 289.827 221.844 289.734 221.286C295.012 218.316 300.814 216.391 306.821 215.619C309.259 214.955 311.824 214.904 314.287 215.471C316.749 216.039 319.034 217.207 320.936 218.871C323.536 222.03 322.329 224.259 321.772 224.259C321.215 224.259 320.193 223.144 318.336 222.308C314.741 220.992 310.924 220.393 307.099 220.543Z" fill="#7D7A7C"/>
<path d="M315.55 220.45C312.671 219.707 309.885 218.964 309.885 218.035C309.885 217.106 312.764 215.991 316.479 216.92C320.193 217.849 322.143 221.658 321.122 222.029C320.1 222.401 318.243 221.101 315.55 220.45Z" fill="#F9E6CF"/>
<path opacity="0.5" d="M294.748 162.017C290.291 168.705 285.462 174.651 282.769 178.924C281.162 181.351 279.293 183.594 277.197 185.613C278.105 182.854 279.32 180.205 280.819 177.717C283.326 172.886 286.762 166.476 290.105 159.137C299.577 142.508 305.149 134.89 306.264 134.89C307.378 134.89 306.264 144.923 294.748 162.017Z" fill="#7D7A7C"/>
<path d="M301.62 148.732C298.834 153.749 295.77 157.372 294.934 156.814C294.098 156.257 295.677 151.983 298.463 146.967C301.249 141.95 303.849 138.327 304.778 138.699C305.706 139.07 304.406 144.18 301.62 148.732Z" fill="#F9E6CF"/>
<path opacity="0.5" d="M242.931 137.77C244.138 147.06 244.695 156.35 244.974 162.481C245.241 165.944 245.241 169.423 244.974 172.886C243.944 169.58 243.198 166.192 242.745 162.76C241.538 156.443 240.052 147.896 238.009 138.699C235.594 127.551 233.551 119.283 231.973 113.802C230.394 108.321 229.28 105.812 229.837 105.348C230.394 104.883 233.087 106.37 235.78 111.665C239.698 119.871 242.12 128.712 242.931 137.77Z" fill="#7D7A7C"/>
<path d="M238.38 120.398C240.238 127.086 240.423 132.753 239.495 132.939C238.566 133.125 236.709 127.83 234.944 121.419C233.18 115.009 231.973 109.9 231.973 109.343C231.973 108.785 236.616 113.709 238.38 120.398Z" fill="#F9E6CF"/>
<path opacity="0.5" d="M220.272 263.649C222.827 260.211 225.971 257.255 229.558 254.916C228.128 258.916 226.324 262.773 224.172 266.436C222.825 269.153 221.174 271.708 219.251 274.053C218.136 275.54 216.929 276.283 216.279 276.19C215.629 276.097 214.979 274.796 215.257 272.474C216.078 269.124 217.814 266.068 220.272 263.649Z" fill="#7D7A7C"/>
<path d="M217.393 269.594C218.6 267.364 220.365 266.064 221.201 266.621C222.036 267.179 221.665 269.222 220.551 271.359C219.436 273.496 217.95 274.796 217.115 274.518C216.279 274.239 216.093 271.824 217.393 269.594Z" fill="#F9E6CF"/>
<path opacity="0.5" d="M185.541 365.931L204.114 327.935L209.871 316.415C210.548 314.97 211.324 313.573 212.193 312.235C211.873 313.804 211.374 315.331 210.707 316.787C209.685 319.667 208.107 323.847 206.157 328.864C202.164 338.99 196.87 352.925 190.556 367.975C175.79 404.484 165.668 422.228 164.461 421.67C163.254 421.113 167.99 404.298 185.541 365.931Z" fill="#7D7A7C"/>
<path d="M174.305 394.079C176.589 387.351 180.013 381.066 184.427 375.499C183.249 382.519 180.928 389.298 177.555 395.566C175.281 402.279 171.89 408.561 167.526 414.146C168.645 407.124 170.937 400.341 174.305 394.079Z" fill="#F9E6CF"/>
<path opacity="0.5" d="M166.968 376.428L189.813 336.946C192.877 331.93 195.292 327.656 197.056 324.962C197.912 323.441 198.874 321.982 199.935 320.596C199.387 322.229 198.704 323.814 197.892 325.334C196.499 328.399 194.363 332.673 191.856 337.968L171.333 378.751C152.017 416.747 139.574 435.234 138.366 434.491C137.159 433.747 144.403 415.818 166.968 376.428Z" fill="#7D7A7C"/>
<path d="M152.017 405.599C155.081 398.548 159.285 392.051 164.461 386.369C162.461 393.803 159.329 400.884 155.175 407.364C152.002 414.355 147.808 420.836 142.731 426.594C144.681 419.143 147.816 412.054 152.017 405.599Z" fill="#F9E6CF"/>
<path opacity="0.5" d="M147.56 383.396C155.918 370.947 163.625 359.521 169.476 351.346L176.44 342.056C178.112 339.826 179.041 338.525 179.226 338.618C178.675 340.012 177.991 341.35 177.183 342.613L171.333 352.925C166.225 361.657 159.354 373.549 151.739 386.462C133.166 417.583 122.301 432.911 120.815 432.075C119.329 431.239 125.737 415.353 147.56 383.396Z" fill="#7D7A7C"/>
<path d="M133.166 407.457C136.184 401.625 140.208 396.373 145.053 391.943C143.081 398.296 139.931 404.221 135.766 409.408C132.915 415.298 129.012 420.619 124.251 425.108C126.088 418.716 129.113 412.728 133.166 407.457Z" fill="#F9E6CF"/>
<path opacity="0.5" d="M157.682 352.367L175.048 329.421C177.416 326.137 180.023 323.032 182.848 320.131C181.156 323.816 179.168 327.358 176.905 330.722C173.097 337.132 167.619 345.772 161.768 355.247C147.374 378.008 137.809 388.227 136.602 387.483C135.395 386.74 140.317 375.406 157.682 352.367Z" fill="#7D7A7C"/>
<path d="M146.26 369.925C150.81 363.329 155.082 358.499 155.546 359.056C156.011 359.613 153.41 365.373 148.86 371.969C144.31 378.565 140.038 383.396 139.574 382.838C139.109 382.281 141.802 376.428 146.26 369.925Z" fill="#F9E6CF"/>
<path opacity="0.5" d="M161.489 302.109C170.776 294.584 179.041 287.988 185.355 283.529C188.658 280.815 192.167 278.361 195.849 276.19C195.849 276.19 195.106 277.212 193.527 278.791L186.841 285.201L164.833 306.104C144.124 325.52 133.538 335.088 132.423 333.973C131.309 332.859 137.902 321.432 161.489 302.109Z" fill="#7D7A7C"/>
<path d="M145.703 317.623C151.832 311.863 157.403 307.869 158.146 308.333C158.889 308.798 154.246 314.464 148.396 320.689C142.545 326.913 137.252 330.908 136.509 329.979C135.766 329.05 139.574 323.476 145.703 317.623Z" fill="#F9E6CF"/>
<path opacity="0.5" d="M117.937 353.575C130.659 341.963 142.545 331.558 151.275 324.126L161.675 315.301C162.934 314.147 164.302 313.121 165.761 312.235C164.764 313.63 163.611 314.908 162.325 316.044L153.039 325.798C144.867 333.88 133.631 345.028 121.558 357.198C106.824 371.876 95.5256 382.776 87.6631 389.899C79.9555 397.052 75.8695 400.582 75.4052 400.118C74.9409 399.653 84.9701 383.303 117.937 353.575Z" fill="#7D7A7C"/>
<path d="M95.2778 376.428C100.204 370.736 106.041 365.901 112.55 362.122C108.544 368.469 103.56 374.144 97.7851 378.937C92.8973 384.593 87.2393 389.534 80.9768 393.615C84.7067 387.096 89.5465 381.28 95.2778 376.428Z" fill="#F9E6CF"/>
<path opacity="0.5" d="M132.423 357.848L157.682 331.465L165.483 323.661C166.416 322.64 167.442 321.708 168.547 320.875C167.904 322.103 167.125 323.256 166.225 324.312L159.354 332.951L136.509 360.821C114.779 386.833 101.685 398.446 100.571 397.981C99.4567 397.517 107.721 383.86 132.423 357.848Z" fill="#7D7A7C"/>
<path d="M115.615 377.636C122.301 370.111 128.244 364.537 128.987 365.28C126.455 370.82 122.858 375.808 118.401 379.958C111.715 387.483 105.771 392.964 105.029 392.314C107.561 386.774 111.158 381.787 115.615 377.636Z" fill="#F9E6CF"/>
<path opacity="0.5" d="M123.23 320.689C136.231 310.47 148.396 302.109 157.682 295.513L168.361 288.267C169.609 287.258 170.983 286.415 172.447 285.759C171.362 286.937 170.182 288.025 168.919 289.01L159.075 297.278L126.666 324.219C96.2994 349.302 80.9769 362.215 80.234 361.379C79.4911 360.543 89.4275 345.493 123.23 320.689Z" fill="#7D7A7C"/>
<path d="M100.014 340.105C105.075 335.079 110.985 330.99 117.472 328.028C118.122 328.864 111.25 335.367 102.335 342.892C97.3223 347.876 91.6327 352.129 85.4343 355.526C89.2816 349.514 94.228 344.282 100.014 340.105Z" fill="#F9E6CF"/>
<path opacity="0.5" d="M79.7697 290.775C95.7422 284.272 110.693 279.163 121.558 275.54L134.559 271.452C136.155 270.886 137.804 270.481 139.481 270.244C138.012 271.055 136.492 271.769 134.931 272.381L122.394 277.676C111.808 282.136 97.3209 288.174 81.7198 295.327C63.1471 303.967 48.939 310.841 39.8384 315.858C35.4031 318.734 30.7806 321.31 26.0018 323.569C25.4446 323.569 28.1376 318.831 36.5882 312.699C50.0911 303.754 64.5808 296.397 79.7697 290.775Z" fill="#7D7A7C"/>
<path d="M50.8891 304.989C57.2733 301.002 64.3685 298.289 71.7833 296.999C65.863 301.524 59.4065 305.3 52.5606 308.24C46.2574 312.168 39.5669 315.437 32.595 317.995C37.676 312.381 43.9189 307.943 50.8891 304.989Z" fill="#F9E6CF"/>
<path opacity="0.5" d="M86.0844 306.475C98.8995 300.344 110.972 295.234 119.701 291.611L129.823 287.431C131.106 286.862 132.444 286.427 133.816 286.13C133.816 286.13 132.609 287.059 130.287 288.36L120.537 293.655L88.3131 311.399C73.3621 319.667 62.0327 325.891 54.6037 329.979C50.9917 332.527 47.0964 334.646 42.9957 336.296C41.6957 334.902 52.6535 321.989 86.0844 306.475Z" fill="#7D7A7C"/>
<path d="M62.9614 319.853C68.0479 316.22 73.8358 313.689 79.9554 312.421C80.5126 313.35 73.5478 317.809 64.8186 322.918C59.7943 326.49 54.2923 329.336 48.4747 331.372C47.8246 330.536 54.1393 324.962 62.9614 319.853Z" fill="#F9E6CF"/>
<path opacity="0.5" d="M101.964 309.169C112.365 303.781 122.023 299.136 129.08 295.885L137.531 292.169C138.569 291.653 139.658 291.248 140.781 290.961C139.955 291.772 139.017 292.461 137.995 293.005L130.102 297.928L104.378 313.535C92.6402 321.617 80.2099 328.643 67.2331 334.531C66.3045 333.416 75.2194 322.918 101.964 309.169Z" fill="#7D7A7C"/>
<path d="M83.3914 320.689C90.5419 316.229 96.7637 313.628 97.3209 314.464C97.8781 315.3 92.3063 319.388 85.2486 323.754C81.2315 326.871 76.6635 329.203 71.7834 330.629C71.412 329.979 76.5195 325.334 83.3914 320.689Z" fill="#F9E6CF"/>
<path opacity="0.5" d="M86.9202 224.631C101.221 224.631 114.315 225.56 124.066 226.489L135.302 227.789C136.683 227.916 138.051 228.165 139.388 228.532C137.998 228.67 136.599 228.67 135.209 228.532H123.694C114.408 228.532 101.128 228.532 87.0131 229.461C74.2456 230.041 61.5283 231.438 48.939 233.642C40.5813 235.314 36.5882 237.172 36.1239 236.429C35.6596 235.686 38.6312 232.713 46.8961 229.74C59.8673 225.854 73.389 224.128 86.9202 224.631Z" fill="#7D7A7C"/>
<path d="M60.2682 227.789C66.3739 226.336 72.7353 226.336 78.8409 227.789C73.0201 229.883 66.9133 231.074 60.7326 231.32C54.7784 232.685 48.7217 233.555 42.6242 233.921C42.1599 232.527 49.9604 228.997 60.2682 227.789Z" fill="#F9E6CF"/>
<path opacity="0.5" d="M111.25 240.702C121.465 239.68 130.845 239.309 137.624 239.309C141.345 239.164 145.071 239.32 148.767 239.773C145.175 240.69 141.508 241.281 137.809 241.538C131.123 242.467 121.837 243.768 111.993 245.626C100.014 247.948 91.099 250.085 85.3415 251.85C79.584 253.615 76.7981 255.102 76.0552 254.544C75.3123 253.987 77.2624 251.2 82.8342 248.134C91.7409 243.853 101.389 241.33 111.25 240.702Z" fill="#7D7A7C"/>
<path d="M92.6776 245.254C99.8281 243.304 105.864 243.211 106.05 244.14C106.236 245.069 100.478 246.834 93.6062 248.785C89.5324 250.389 85.2466 251.39 80.8839 251.757C80.2339 250.736 85.4343 247.205 92.6776 245.254Z" fill="#F9E6CF"/>
<path opacity="0.5" d="M187.677 205.772C192.969 206.916 198.181 208.406 203.278 210.231C205.458 210.902 207.548 211.838 209.5 213.018C209.5 213.576 199.099 211.718 186.934 210.696C179.54 210.771 172.15 210.274 164.833 209.209C164.833 208.466 165.854 207.073 169.754 205.679C175.652 204.294 181.794 204.326 187.677 205.772Z" fill="#7D7A7C"/>
<path d="M176.255 205.586C180.805 205.586 184.334 206.887 184.241 207.816C184.148 208.745 180.526 209.116 176.255 209.209C171.983 209.302 168.547 209.209 168.269 208.187C167.99 207.166 171.147 205.586 176.255 205.586Z" fill="#F9E6CF"/>
<path opacity="0.5" d="M154.803 176.788C161.839 179.14 168.671 182.06 175.233 185.52C178.031 186.841 180.677 188.461 183.127 190.351C180.116 189.702 177.164 188.801 174.305 187.657C167.518 185.186 160.606 183.078 153.596 181.34C143.735 179.476 133.729 178.481 123.694 178.367C123.694 178.367 123.694 177.438 124.994 176.509C126.747 175.621 128.582 174.906 130.473 174.372C138.654 173.024 147.046 173.857 154.803 176.788Z" fill="#7D7A7C"/>
<path d="M139.109 174.744C145.331 175.301 150.067 177.066 149.881 178.181C149.696 179.296 144.774 178.831 138.924 178.181C136.045 178.181 133.352 178.181 131.402 178.181C129.451 178.181 128.244 178.181 128.151 177.438C128.059 176.695 129.173 176.323 131.123 175.58C133.739 174.966 136.423 174.685 139.109 174.744Z" fill="#F9E6CF"/>
<path opacity="0.5" d="M128.616 187.75C137.148 189.945 145.524 192.707 153.689 196.018C157.126 197.283 160.45 198.837 163.625 200.663C159.997 200.152 156.423 199.312 152.946 198.154C146.446 196.575 137.438 194.16 127.594 192.673C118.761 191.107 109.819 190.237 100.85 190.072C97.7737 190.565 94.6391 190.565 91.5632 190.072C91.5632 189.236 93.5134 187.471 99.7352 185.706C109.396 184.269 119.254 184.966 128.616 187.75Z" fill="#7D7A7C"/>
<path d="M109.486 185.892C116.915 185.892 122.58 188.214 122.394 189.143C122.208 190.072 116.451 189.793 109.393 189.143C105.864 189.143 102.707 189.143 100.107 189.143C97.5066 189.143 96.3923 189.143 96.2065 188.586C96.0208 188.028 97.5066 187.285 99.8282 186.542C103.015 185.982 106.253 185.764 109.486 185.892Z" fill="#F9E6CF"/>
<path opacity="0.5" d="M74.9409 198.898C90.9134 201.499 105.493 204.657 115.894 207.258C121.187 208.466 125.18 209.581 128.337 210.417C129.909 210.724 131.438 211.223 132.888 211.903C131.296 211.853 129.711 211.667 128.152 211.346L115.522 209.209C104.843 207.63 90.2633 205.4 74.2908 203.728C59.8039 201.978 45.2354 200.986 30.645 200.756C25.6959 201.023 20.736 201.023 15.7869 200.756C15.7869 200.198 19.5943 197.504 29.3449 196.203C44.5947 194.963 59.943 195.87 74.9409 198.898Z" fill="#7D7A7C"/>
<path d="M44.6672 196.854C51.7386 196.419 58.8231 197.463 65.4686 199.919C58.5362 200.869 51.5067 200.869 44.5744 199.919C37.6506 200.448 30.6967 200.448 23.7729 199.919C30.3261 197.004 37.5533 195.944 44.6672 196.854Z" fill="#F9E6CF"/>
<path opacity="0.5" d="M217.951 193.138C220.96 195.017 223.501 197.559 225.38 200.57C226.865 202.799 227.423 204.379 227.237 204.472C223.638 201.849 219.816 199.549 215.815 197.597C213.167 196.659 210.346 196.311 207.55 196.575C205.414 196.575 204.114 196.575 203.742 196.111C203.371 195.646 203.742 193.881 205.878 192.58C207.731 191.502 209.855 190.981 211.996 191.08C214.138 191.179 216.205 191.893 217.951 193.138Z" fill="#7D7A7C"/>
<path d="M209.964 192.116C213.214 192.116 215.257 193.695 214.886 194.438C214.514 195.182 212.471 195.367 210.15 195.646C207.828 195.925 205.785 195.646 205.321 195.089C204.857 194.531 206.807 192.302 209.964 192.116Z" fill="#F9E6CF"/>
<path opacity="0.5" d="M219.343 162.017C222.847 168.548 225.738 175.39 227.98 182.454C229.169 185.426 229.92 188.556 230.208 191.744C229.651 191.744 224.358 178.738 215.072 164.989C211.174 158.807 206.279 153.313 200.585 148.732C196.778 145.852 194.177 145.202 194.27 144.459C194.363 143.715 196.963 142.693 202.164 144.459C209.715 148.193 215.772 154.385 219.343 162.017Z" fill="#7D7A7C"/>
<path d="M208.757 149.661C213.307 154.027 215.35 158.951 214.607 158.951C213.864 158.951 210.429 155.885 206.25 151.89C202.071 147.896 198.078 145.666 198.356 144.737C198.635 143.808 204.114 145.109 208.757 149.661Z" fill="#F9E6CF"/>
<path opacity="0.5" d="M309.235 254.451C296.699 247.019 284.441 243.489 284.626 242.839C287.386 242.872 290.131 243.246 292.798 243.954C299.197 245.305 305.426 247.361 311.371 250.085C318.206 252.873 323.877 257.923 327.436 264.392C328.172 266.113 328.671 267.925 328.922 269.78C328.922 271.173 328.922 271.824 328.179 271.916C327.436 272.009 326.508 270.244 323.908 266.993C319.783 261.99 314.818 257.746 309.235 254.451Z" fill="#7D7A7C"/>
<path d="M320.472 261.698C318.614 259.932 316.85 258.353 315.736 257.053C314.621 255.752 313.785 254.916 314.064 254.451C314.343 253.987 315.55 254.451 317.221 254.916C319.277 256.11 321.207 257.511 322.979 259.096C327.065 263.277 328.086 268.386 327.158 268.386C326.229 268.386 324 264.949 320.472 261.698Z" fill="#F9E6CF"/>
<path opacity="0.5" d="M280.54 265.971C280.002 261.774 278.779 257.694 276.919 253.894C279.041 255.031 280.899 256.603 282.371 258.508C283.844 260.413 284.897 262.608 285.462 264.949C288.248 274.239 284.255 278.977 283.141 278.605C282.026 278.234 280.912 274.239 280.54 265.971Z" fill="#7D7A7C"/>
<path d="M281.84 272.102C281.84 269.687 281.84 267.643 283.326 267.457C284.812 267.272 285.555 269.408 285.462 272.102C285.369 274.796 284.348 276.84 283.326 276.747C282.305 276.654 281.84 274.239 281.84 272.102Z" fill="#F9E6CF"/>
<path opacity="0.5" d="M262.989 300.994C262.645 292.712 261.589 284.476 259.832 276.376C261.372 278.379 262.536 280.645 263.268 283.065C265.6 288.739 267.131 294.711 267.818 300.808C268.588 307.35 267.76 313.981 265.404 320.131C263.732 324.312 261.875 325.891 261.318 325.705C260.76 325.52 262.153 317.995 262.989 300.994Z" fill="#7D7A7C"/>
<path d="M262.989 313.442C263.639 308.705 264.568 304.896 265.496 304.896C266.425 304.896 267.261 308.983 266.518 314.186C265.775 319.388 263.732 323.011 262.71 322.64C261.689 322.268 261.968 318.087 262.989 313.442Z" fill="#F9E6CF"/>
<path opacity="0.5" d="M202.999 351.067L216.465 321.246C218.322 317.53 219.808 314.372 220.829 311.956C221.851 309.541 222.501 308.612 222.686 308.705C222.468 309.934 222.158 311.145 221.758 312.328L218.6 321.618C215.722 329.7 211.821 340.198 207.643 352.46C197.149 381.259 189.07 395.101 187.956 394.544C186.841 393.986 189.72 380.887 202.999 351.067Z" fill="#7D7A7C"/>
<path d="M194.828 373.177C196.384 367.853 199.041 362.915 202.628 358.685C202.332 364.244 200.81 369.669 198.171 374.57C196.657 379.912 193.995 384.858 190.37 389.063C190.729 383.514 192.248 378.102 194.828 373.177Z" fill="#F9E6CF"/>
<path opacity="0.5" d="M229.744 356.362C231.601 345.864 233.18 336.11 234.387 328.957C234.906 325.093 235.713 321.274 236.802 317.53C237.059 321.428 237.059 325.338 236.802 329.235C236.337 336.389 235.873 346.236 234.851 357.105C232.716 383.117 227.422 396.123 226.029 395.659C224.636 395.194 225.287 383.582 229.744 356.362Z" fill="#7D7A7C"/>
<path d="M227.701 376.428C229.001 368.904 230.394 362.772 231.416 362.865C232.675 367.488 232.675 372.363 231.416 376.986C230.208 384.511 228.444 390.549 227.33 390.363C226.414 385.749 226.541 380.988 227.701 376.428Z" fill="#F9E6CF"/>
<path opacity="0.5" d="M240.331 397.702C241.445 380.144 242.559 364.073 243.302 352.274C243.766 346.422 244.138 341.591 244.324 338.247C244.337 336.524 244.555 334.809 244.974 333.137C245.068 334.87 245.068 336.607 244.974 338.34C244.974 341.684 244.974 346.422 244.974 352.274C244.974 364.073 244.974 380.144 244.974 397.888C244.324 440.622 238.752 462.918 237.266 462.267C235.78 461.617 237.359 443.037 240.331 397.702Z" fill="#7D7A7C"/>
<path d="M239.123 430.589C239.068 422.919 240.132 415.283 242.281 407.921C243.702 415.46 243.859 423.184 242.745 430.774C242.785 438.493 241.497 446.161 238.938 453.442C237.954 445.852 238.016 438.162 239.123 430.589Z" fill="#F9E6CF"/>
<path opacity="0.5" d="M249.895 348.558C251.288 338.247 252.31 328.678 252.681 321.618C252.799 317.792 253.14 313.977 253.703 310.191C253.993 311.191 254.179 312.218 254.26 313.257C254.26 315.208 254.724 318.087 254.91 321.618C255.53 330.897 255.53 340.208 254.91 349.487C254.438 359.382 252.173 369.109 248.224 378.193C246.958 380.41 245.562 382.551 244.045 384.603C242.931 385.904 242.002 386.276 241.723 386.09C241.445 385.904 245.717 375.406 249.895 348.558Z" fill="#7D7A7C"/>
<path d="M247.202 368.067C247.781 363.528 249.231 359.143 251.474 355.154C252.588 355.154 252.403 361.472 250.638 368.996C249.72 372.185 248.54 375.292 247.109 378.286C245.717 380.516 244.602 381.724 244.231 381.445C243.859 381.166 244.231 379.68 244.695 377.357C245.159 375.035 245.995 371.598 247.202 368.067Z" fill="#F9E6CF"/>
<path opacity="0.5" d="M281.097 301.087C279.426 292.819 277.569 285.294 276.176 279.813L274.318 273.403C274.205 272.571 274.205 271.727 274.318 270.895C276.121 273.435 277.617 276.179 278.776 279.07C281.714 285.853 284.256 292.802 286.391 299.879C292.241 319.76 291.498 330.815 290.291 331.001C289.084 331.186 285.091 322.454 281.097 301.087Z" fill="#7D7A7C"/>
<path d="M285.183 316.322C283.883 310.377 283.698 305.453 284.626 305.175C285.555 304.896 287.412 309.634 288.712 315.579C290.012 321.525 289.92 326.634 288.712 326.727C287.505 326.82 286.484 322.268 285.183 316.322Z" fill="#F9E6CF"/>
<path opacity="0.5" d="M265.032 404.298C264.382 390.921 263.732 378.472 263.268 369.368C263.268 364.909 263.268 361.193 262.803 358.685C262.681 357.356 262.681 356.019 262.803 354.69C263.315 355.902 263.629 357.188 263.732 358.499C263.732 361.1 264.754 364.723 265.496 369.182C266.889 378.472 268.654 390.456 270.047 403.927C273.761 436.72 270.047 454.092 268.282 453.814C266.518 453.535 266.704 438.95 265.032 404.298Z" fill="#7D7A7C"/>
<path d="M267.075 429.288C266.295 423.424 266.642 417.464 268.097 411.73C270.249 417.286 271.137 423.253 270.697 429.195C271.647 435.088 271.104 441.125 269.118 446.753C267.504 441.079 266.814 435.182 267.075 429.288Z" fill="#F9E6CF"/>
<path opacity="0.5" d="M204.764 69.8603C209.593 86.2106 213.4 101.353 216 112.408C217.3 117.889 218.322 122.441 218.972 125.6C219.453 127.2 219.734 128.854 219.808 130.524C219.091 128.931 218.501 127.285 218.043 125.6L213.864 112.873C210.336 102.004 205.6 87.2325 200.028 71.1609C193.249 51.8378 187.956 37.2526 184.055 27.7769C181.763 23.0799 179.778 18.2389 178.112 13.2846C178.576 12.7272 182.57 15.8858 187.398 24.9899C194.799 39.2711 200.622 54.3168 204.764 69.8603Z" fill="#7D7A7C"/>
<path d="M193.527 39.6681C196.786 46.3654 198.77 53.6111 199.378 61.0349C195.386 54.7989 192.262 48.0481 190.091 40.9686C186.978 34.3085 184.491 27.3731 182.662 20.2521C187.739 25.7941 191.459 32.4411 193.527 39.6681Z" fill="#F9E6CF"/>
<path opacity="0.5" d="M186.284 164.339C190.982 168.607 195.272 173.303 199.099 178.367C200.829 180.404 202.295 182.652 203.464 185.056C202.999 185.056 194.642 176.509 183.22 168.241C178.308 164.497 172.819 161.579 166.968 159.601C163.161 158.579 160.932 158.951 160.654 158.208C160.375 157.464 161.954 155.421 166.968 155.235C174.317 155.753 181.206 159 186.284 164.339Z" fill="#7D7A7C"/>
<path d="M174.026 157.464C179.134 159.601 182.012 163.038 181.455 163.782C180.898 164.525 177.091 162.667 172.633 160.809C168.176 158.951 164.461 158.393 164.275 157.371C164.09 156.35 168.919 155.142 174.026 157.464Z" fill="#F9E6CF"/>
<path opacity="0.5" d="M86.8274 170.192C105.4 176.788 122.58 183.569 134.931 188.772L149.417 194.996C151.232 195.757 152.999 196.626 154.711 197.597C152.78 197.194 150.886 196.635 149.046 195.925L134.095 190.63C121.558 186.356 104.193 180.504 85.2487 174.744C62.2186 167.807 44.7912 162.946 32.9666 160.159C26.9193 159.179 20.9348 157.845 15.0439 156.164C15.0439 155.514 20.6158 154.213 32.5951 156.164C51.1026 158.981 69.2742 163.682 86.8274 170.192Z" fill="#7D7A7C"/>
<path d="M50.7962 160.159C59.3621 161.895 67.5827 165.033 75.1264 169.449C66.5393 168.48 58.0938 166.516 49.9604 163.596C41.5117 161.94 33.1942 159.673 25.073 156.814C33.7868 156.117 42.5499 157.256 50.7962 160.159Z" fill="#F9E6CF"/>
<path opacity="0.5" d="M86.4559 189.143C103.543 193.509 118.958 198.433 130.102 201.963L143.381 206.422C145.006 206.917 146.589 207.539 148.117 208.28C146.42 208.129 144.741 207.818 143.103 207.351L129.823 204.1C118.401 201.406 102.707 197.597 85.6202 193.974C64.9116 189.608 49.2177 186.542 38.6313 184.684C33.2219 184.295 27.8507 183.487 22.5659 182.269C22.5659 181.618 27.302 179.946 37.9812 180.225C54.4112 181.459 70.662 184.449 86.4559 189.143Z" fill="#7D7A7C"/>
<path d="M54.0465 183.105C61.7118 183.76 69.1817 185.872 76.0552 189.329C68.4546 189.4 60.8746 188.527 53.4894 186.728C45.9379 185.988 38.4748 184.526 31.2021 182.361C38.7809 180.951 46.5755 181.204 54.0465 183.105Z" fill="#F9E6CF"/>
<path opacity="0.5" d="M122.208 156.071C134.559 162.109 145.61 168.334 153.41 173.072C157.311 175.394 160.468 177.345 162.697 178.831C163.846 179.508 164.934 180.285 165.947 181.154C164.663 180.782 163.418 180.284 162.232 179.667L152.389 175.022C144.124 171.121 132.702 165.732 120.165 160.623C108.787 155.83 97.1628 151.643 85.3414 148.082C81.1758 147.417 77.0961 146.296 73.1763 144.737C73.1763 144.18 76.9837 142.693 85.3414 143.715C98.2064 145.856 110.65 150.027 122.208 156.071Z" fill="#7D7A7C"/>
<path d="M97.8781 147.338C103.797 148.621 109.312 151.332 113.943 155.235C108.021 154.647 102.225 153.143 96.7637 150.776C91.0027 149.457 85.3991 147.526 80.0483 145.016C86.0915 144.087 92.2741 144.893 97.8781 147.338Z" fill="#F9E6CF"/>
<path opacity="0.5" d="M329.851 240.052C315.921 236.522 303.57 235.128 303.663 234.571C306.285 234.002 308.975 233.814 311.65 234.014C318.045 233.897 324.441 234.27 330.779 235.128C337.817 235.796 344.548 238.33 350.281 242.467C354.088 245.719 354.553 248.599 353.902 248.878C346.175 245.2 338.123 242.246 329.851 240.052Z" fill="#7D7A7C"/>
<path d="M342.759 243.025C338.116 241.167 334.123 239.495 334.401 238.473C334.68 237.451 339.044 237.637 343.688 239.68C348.331 241.724 351.952 245.347 351.117 246.09C350.281 246.834 347.402 244.79 342.759 243.025Z" fill="#F9E6CF"/>
<path opacity="0.5" d="M278.405 135.633C275.154 148.082 271.718 159.322 269.118 167.405L265.775 176.695C265.401 177.889 264.903 179.041 264.289 180.132C264.342 178.877 264.529 177.631 264.846 176.416C265.311 174.001 266.054 170.656 266.889 166.476C268.747 158.115 271.254 146.688 273.669 134.147C276.547 119.004 278.59 107.67 279.797 100.053C280.089 96.1161 280.805 92.2226 281.933 88.4402C282.676 88.4402 284.255 91.7846 284.348 99.681C283.893 111.868 281.896 123.948 278.405 135.633Z" fill="#7D7A7C"/>
<path d="M282.583 111.944C282.285 117.569 280.662 123.044 277.847 127.922C277.193 122.384 277.602 116.771 279.055 111.386C279.376 105.864 280.502 100.418 282.398 95.2218C284.032 100.667 284.097 106.463 282.583 111.944Z" fill="#F9E6CF"/>
<path opacity="0.5" d="M357.896 129.502C346.938 139.535 336.909 148.825 329.572 155.699C325.951 158.951 322.886 161.645 320.843 163.596C319.78 164.594 318.63 165.496 317.407 166.29C318.154 165.006 319.059 163.82 320.1 162.76L327.994 154.027C334.866 146.688 344.152 136.655 354.367 126.157C379.161 99.9598 393.834 88.3473 394.762 88.9976C395.691 89.6479 385.848 103.118 357.896 129.502Z" fill="#7D7A7C"/>
<path d="M377.118 109.343C372.86 114.342 367.732 118.529 361.982 121.698C361.239 120.955 366.81 114.359 374.332 106.834C378.676 101.774 383.938 97.5814 389.841 94.4786C386.554 100.177 382.241 105.217 377.118 109.343Z" fill="#F9E6CF"/>
<path opacity="0.5" d="M375.447 160.995L338.859 179.575L327.622 185.427C326.276 186.235 324.843 186.89 323.35 187.378C324.538 186.343 325.812 185.411 327.158 184.591L337.744 177.717C347.031 171.957 359.196 164.246 373.125 156.257C385.702 148.721 398.907 142.287 412.592 137.027C421.878 133.589 427.265 133.311 427.357 133.961C427.45 134.611 423.55 136.376 415.192 140.557L375.447 160.995Z" fill="#7D7A7C"/>
<path d="M401.541 146.781C395.565 150.34 389.084 152.972 382.319 154.585C387.428 149.791 393.421 146.036 399.963 143.53C405.967 139.907 412.682 137.625 419.65 136.841C414.075 140.934 407.987 144.276 401.541 146.781Z" fill="#F9E6CF"/>
<path opacity="0.5" d="M180.062 146.688C186.413 153.687 192.365 161.038 197.892 168.705C200.245 171.802 202.327 175.097 204.114 178.553C201.114 175.954 198.32 173.128 195.756 170.099C190.834 164.896 183.962 157.65 176.162 150.218C169.211 143.408 161.862 137.018 154.153 131.081C149.046 127.179 145.981 125.879 146.167 125.135C146.353 124.392 149.696 124.021 155.453 126.993C164.83 131.938 173.182 138.621 180.062 146.688Z" fill="#7D7A7C"/>
<path d="M164.554 133.311C170.683 138.234 174.583 143.344 173.84 143.994C173.097 144.644 168.176 140.928 162.232 136.098C156.289 131.267 151.182 127.83 151.553 126.808C151.924 125.786 158.425 128.201 164.554 133.311Z" fill="#F9E6CF"/>
<path opacity="0.5" d="M94.0706 120.862C109.672 130.152 123.323 139.442 133.073 146.409C137.995 149.847 142.36 152.727 144.588 154.863C146.053 155.846 147.421 156.966 148.674 158.208C147.049 157.488 145.494 156.617 144.031 155.606L131.866 148.267C121.558 142.043 107.443 133.589 91.6562 125.6C77.4318 117.616 62.7319 110.511 47.6389 104.326C42.2885 102.763 37.0715 100.775 32.0378 98.3804C32.0378 97.7301 37.2382 97.1727 47.9175 99.8668C64.1989 104.695 79.7315 111.761 94.0706 120.862Z" fill="#7D7A7C"/>
<path d="M63.6113 106.184C71.0682 108.793 77.9448 112.832 83.8555 118.075C76.3393 116.066 69.0791 113.198 62.2184 109.528C54.9166 106.945 47.8098 103.84 40.9526 100.238C48.8664 100.42 56.6271 102.457 63.6113 106.184Z" fill="#F9E6CF"/>
<path opacity="0.5" d="M204.114 128.666C208.858 136.65 213.077 144.936 216.743 153.47C218.517 157.021 219.977 160.72 221.108 164.525C218.762 161.338 216.652 157.985 214.793 154.492C210.986 148.267 205.507 139.721 199.564 130.988C194.213 123.007 187.983 115.653 180.991 109.064C176.162 104.976 173.005 103.954 173.097 103.211C173.19 102.468 176.719 101.818 182.941 105.162C191.846 111.11 199.124 119.189 204.114 128.666Z" fill="#7D7A7C"/>
<path d="M190.556 112.687C196.035 118.54 199.006 124.299 198.171 124.857C197.335 125.414 193.156 120.769 187.956 115.567C182.755 110.364 177.926 106.277 178.205 105.719C178.483 105.162 185.541 107.02 190.556 112.687Z" fill="#F9E6CF"/>
<path opacity="0.5" d="M120.537 115.102C135.209 126.529 148.396 137.863 156.939 146.224C161.49 150.404 165.111 153.934 167.526 156.35C168.912 157.535 170.159 158.875 171.24 160.344C169.74 159.365 168.312 158.278 166.968 157.093L155.453 147.803C146.167 140.185 132.609 129.687 117.658 118.911C104.183 109.084 90.1014 100.117 75.498 92.0632C65.5616 86.8609 59.9898 85.7461 60.0827 84.91C60.1755 84.0739 65.6545 83.7023 76.2409 87.697C92.2473 94.6525 107.166 103.883 120.537 115.102Z" fill="#7D7A7C"/>
<path d="M91.5633 96.1509C98.614 99.8437 104.913 104.822 110.136 110.829C102.925 107.711 96.0748 103.817 89.706 99.2166C78.4696 92.342 68.8118 88.4402 69.0904 87.2325C77.2151 88.2549 84.9475 91.3235 91.5633 96.1509Z" fill="#F9E6CF"/>
<path opacity="0.5" d="M154.803 104.605C165.018 116.31 173.376 127.458 179.969 135.633L187.305 145.48C188.267 146.643 189.079 147.923 189.72 149.289C188.56 148.318 187.473 147.263 186.47 146.131L178.298 136.841C171.333 129.316 161.861 118.818 151.089 107.763C138.181 94.6644 128.151 84.91 121.187 79.1502C117.4 76.288 113.802 73.1849 110.415 69.8603C110.415 69.1171 115.151 69.8603 123.044 75.0627C134.849 83.5112 145.523 93.4395 154.803 104.605Z" fill="#7D7A7C"/>
<path d="M134.002 84.4455C139.346 88.6149 143.746 93.871 146.91 99.8668C141.177 96.4019 135.983 92.1138 131.495 87.1396C126.294 82.9961 121.505 78.3606 117.194 73.2976C123.669 75.4909 129.462 79.3329 134.002 84.4455Z" fill="#F9E6CF"/>
<path opacity="0.5" d="M236.709 65.9585C239.402 83.2378 241.166 99.1236 242.188 110.736C242.745 116.496 243.116 121.234 243.395 124.578C243.537 126.278 243.537 127.987 243.395 129.688C242.922 128.04 242.549 126.364 242.281 124.671C241.723 121.419 240.888 116.774 239.866 111.108C238.009 99.5881 235.223 83.8881 231.973 66.8875C227.794 46.2638 224.172 30.8425 221.294 20.4378C218.415 10.0331 215.907 5.5739 216.465 5.1094C217.022 4.6449 220.922 8.17508 225.008 18.0224C230.755 33.4927 234.681 49.5797 236.709 65.9585Z" fill="#7D7A7C"/>
<path d="M229.187 34.094C231.646 41.3235 232.748 48.9454 232.437 56.5757C229.255 49.7231 227.006 42.4741 225.751 35.023C223.428 27.8928 221.659 20.5941 220.458 13.1917C225.047 19.3317 228.046 26.5127 229.187 34.094Z" fill="#F9E6CF"/>
<path opacity="0.5" d="M186.563 94.3857C192.32 106.091 196.87 117.053 200.028 125.6C201.606 129.687 202.814 132.939 203.649 134.89C204.171 136.078 204.545 137.326 204.764 138.606C203.911 137.485 203.252 136.229 202.814 134.89L197.985 125.6C193.992 117.982 188.698 107.02 182.105 96.2437C176.464 86.0309 170.264 76.1376 163.532 66.6088C159.075 60.2916 156.01 57.8762 156.289 57.3188C156.568 56.7614 160.654 57.3188 166.318 63.2644C174.724 72.4595 181.563 82.9732 186.563 94.3857Z" fill="#7D7A7C"/>
<path d="M173.562 73.6692C177.195 78.1081 179.682 83.3718 180.805 88.9976C179.876 89.555 175.698 83.3307 170.497 75.713C166.904 71.3864 163.791 66.683 161.211 61.6852C162.14 60.5704 168.361 65.7727 173.562 73.6692Z" fill="#F9E6CF"/>
<path opacity="0.5" d="M187.398 76.4561C195.477 95.965 201.885 114.173 205.971 127.458L211.078 143.344C211.724 145.292 212.251 147.277 212.657 149.289C211.67 147.503 210.831 145.639 210.15 143.715L204.114 128.294C198.82 115.288 191.484 97.5443 182.755 78.4999C175.011 61.1321 166.042 44.3369 155.918 28.2413C148.953 17.6508 143.845 13.6561 144.217 13.0987C144.588 12.5414 150.532 14.678 158.703 24.6183C170.616 40.489 180.272 57.9341 187.398 76.4561Z" fill="#7D7A7C"/>
<path d="M169.29 41.9905C174.342 49.656 178.018 58.1441 180.155 67.0734C174.796 59.7339 170.103 51.9303 166.133 43.7556C158.889 30.7497 151.646 21.1811 152.203 20.5308C159.531 26.2158 165.39 33.5745 169.29 41.9905Z" fill="#F9E6CF"/>
<path opacity="0.5" d="M169.012 100.053C178.298 116.31 186.563 131.546 192.32 142.693C195.013 148.267 197.335 152.912 198.914 156.071C199.751 157.699 200.495 159.374 201.142 161.088C199.989 159.663 198.963 158.14 198.078 156.535L190.277 144.18C183.777 133.496 174.862 118.725 164.74 103.025C152.482 83.6094 142.917 69.8603 136.138 60.5704C129.359 51.2804 125.18 47.1929 125.551 46.5426C125.923 45.8923 130.938 48.2148 138.738 56.6686C150.309 70.0378 160.455 84.5778 169.012 100.053Z" fill="#7D7A7C"/>
<path d="M149.139 70.8822C154.33 77.244 158.411 84.4362 161.211 92.1562C155.48 86.3985 150.46 79.9735 146.26 73.0189C141.204 66.6884 136.641 59.9801 132.609 52.9526C139.327 57.6888 144.962 63.8006 149.139 70.8822Z" fill="#F9E6CF"/>
<path opacity="0.5" d="M150.717 246.369C158.939 244.676 167.247 243.436 175.605 242.653C179.097 242.363 182.606 242.363 186.098 242.653C182.871 243.532 179.58 244.153 176.255 244.511C170.033 245.998 161.397 248.041 152.296 250.828C141.245 254.173 133.166 257.146 127.873 259.282C122.58 261.419 119.794 262.719 119.422 262.348C119.051 261.976 120.444 259.375 125.273 255.752C133.13 251.137 141.746 247.96 150.717 246.369Z" fill="#7D7A7C"/>
<path d="M133.537 252.222C140.131 249.621 145.795 248.97 146.074 249.899C146.353 250.828 141.152 253.058 134.93 255.566C131.68 256.774 128.987 258.075 126.758 258.632C124.53 259.189 123.415 259.933 123.044 259.468C122.672 259.004 123.694 257.889 125.551 256.402C128.066 254.743 130.741 253.342 133.537 252.222Z" fill="#F9E6CF"/>
<path opacity="0.5" d="M85.4343 260.49C99.6692 256.913 114.083 254.091 128.616 252.036C134.28 251.2 138.831 250.643 141.988 250.364C143.656 250.213 145.335 250.213 147.003 250.364L142.174 251.664L129.08 254.637C118.029 257.145 102.893 260.676 86.7344 265.599C72.0647 269.867 57.8256 275.496 44.2029 282.414C34.9166 287.431 31.7592 291.24 31.1092 290.775C30.4591 290.311 32.595 285.666 41.0456 279.348C54.5367 270.348 69.5919 263.952 85.4343 260.49Z" fill="#7D7A7C"/>
<path d="M55.5323 271.638C62.1576 268.168 69.4305 266.112 76.8909 265.599C70.6268 269.415 63.9625 272.53 57.0181 274.889C46.246 279.813 37.7954 285.015 36.9596 284.365C36.1239 283.715 44.1101 276.654 55.5323 271.638Z" fill="#F9E6CF"/>
<path opacity="0.5" d="M81.0698 253.058C100.2 249.992 117.751 248.041 130.566 246.834L145.796 245.44H151.46C149.686 246.05 147.848 246.455 145.981 246.648L130.937 249.249C118.215 251.386 100.757 254.359 81.9056 258.539C59.154 263.184 42.0671 267.179 30.8307 270.523C19.5942 273.867 14.301 276.376 13.9295 275.818C13.5581 275.261 17.5512 271.266 28.3234 266.528C45.3474 260.081 63.0399 255.563 81.0698 253.058Z" fill="#7D7A7C"/>
<path d="M46.2461 261.326C54.2408 258.691 62.625 257.435 71.0406 257.61C63.2693 260.977 55.1368 263.44 46.8033 264.949C38.8716 267.49 30.7729 269.477 22.5659 270.895C29.6921 266.062 37.764 262.8 46.2461 261.326Z" fill="#F9E6CF"/>
<path opacity="0.5" d="M75.4051 212.368C93.9778 214.412 110.229 216.641 121.837 218.499L136.138 220.822C137.932 221.032 139.704 221.405 141.431 221.937C139.639 222.1 137.837 222.1 136.045 221.937L121.558 220.915L74.4765 217.57C52.4678 216.177 35.8453 215.155 24.7017 214.783C19.0491 214.928 13.3945 214.587 7.80054 213.761C7.80054 213.111 12.6294 211.16 23.5873 210.417C40.8841 209.63 58.2164 210.283 75.4051 212.368Z" fill="#7D7A7C"/>
<path d="M41.2313 210.882C49.2168 210.569 57.1963 211.638 64.8186 214.04C56.9487 215.234 48.9561 215.391 41.0456 214.505C33.1413 214.66 25.2409 214.037 17.4583 212.647C25.1865 210.483 33.2684 209.883 41.2313 210.882Z" fill="#F9E6CF"/>
<path opacity="0.5" d="M268.282 142.229C265.868 152.82 263.361 162.481 261.503 169.449C260.597 173.305 259.418 177.093 257.975 180.782C258.086 176.851 258.52 172.936 259.275 169.077C260.296 161.831 261.782 151.983 263.361 141.207C264.466 127.962 267.02 114.878 270.976 102.189C272.554 102.096 274.597 114.824 268.282 142.229Z" fill="#7D7A7C"/>
<path d="M270.975 121.977C269.861 129.78 267.911 135.819 266.889 135.633C265.824 130.987 265.824 126.159 266.889 121.512C267.119 116.748 268.287 112.075 270.325 107.763C271.811 107.856 272.183 114.266 270.975 121.977Z" fill="#F9E6CF"/>
<path opacity="0.5" d="M256.117 95.5006C255.003 113.059 253.61 129.13 252.403 140.835C251.753 146.688 251.288 151.426 250.917 154.678C250.869 156.41 250.588 158.129 250.081 159.787C249.925 158.087 249.925 156.377 250.081 154.678C250.081 151.333 250.081 146.595 250.081 140.743C250.081 128.944 250.638 112.873 251.01 95.3148C251.567 74.1337 251.846 58.155 252.124 47.2858C251.849 41.8455 252.191 36.3914 253.146 31.0284C254.817 30.6568 259.275 50.1657 256.117 95.5006Z" fill="#7D7A7C"/>
<path d="M256.303 62.6141C256.851 70.2781 256.065 77.9791 253.982 85.3745C252.511 77.8827 252.074 70.2247 252.681 62.6141C252.246 54.9989 252.714 47.3589 254.074 39.8538C256.271 47.227 257.028 54.9545 256.303 62.6141Z" fill="#F9E6CF"/>
<path opacity="0.5" d="M269.118 90.5769C266.611 108.042 264.011 124.021 261.875 135.54C261.039 141.3 259.832 146.038 259.832 149.289C259.527 150.983 259.124 152.658 258.625 154.306C258.401 152.61 258.401 150.892 258.625 149.196C258.625 145.852 259.368 141.114 259.925 135.262C261.132 123.556 262.711 107.392 264.475 90.0195C266.518 68.8384 268.097 52.8597 269.211 42.0834C269.321 36.5961 270.069 31.1402 271.44 25.826C273.019 25.6402 275.99 45.5207 269.118 90.5769Z" fill="#7D7A7C"/>
<path d="M271.997 57.6905C271.933 65.3855 270.583 73.0155 268.004 80.2651C267.028 72.6663 267.185 64.9647 268.468 57.4118C268.597 49.7619 269.625 42.1537 271.533 34.7444C273.116 42.2972 273.274 50.0798 271.997 57.6905Z" fill="#F9E6CF"/>
<path opacity="0.5" d="M294.656 140.743C290.105 150.869 285.369 160.066 282.305 166.661C280.607 170.295 278.652 173.803 276.454 177.159C277.385 173.245 278.659 169.422 280.262 165.732C282.769 158.672 286.205 149.196 290.012 138.885C294.025 126.026 298.832 113.429 304.406 101.167C306.263 101.167 306.263 114.638 294.656 140.743Z" fill="#7D7A7C"/>
<path d="M301.249 121.048C298.649 128.573 295.584 134.333 294.656 133.961C294.651 129.108 295.73 124.316 297.813 119.933C300.413 112.501 302.549 106.556 303.57 106.741C304.167 111.634 303.362 116.595 301.249 121.048Z" fill="#F9E6CF"/>
<path opacity="0.5" d="M275.34 325.519C273.39 315.672 271.161 306.94 269.304 300.065C268.137 296.539 267.206 292.939 266.518 289.289C266.518 289.289 267.168 290.218 268.097 291.983C269.025 293.748 270.047 296.163 271.44 299.322C274.873 307.491 277.788 315.869 280.169 324.405C287.041 348.744 282.026 362.679 280.169 362.029C278.312 361.379 279.612 361.193 279.519 359.799C279.186 357.614 278.969 355.412 278.869 353.203C278.258 343.912 277.08 334.667 275.34 325.519Z" fill="#7D7A7C"/>
<path d="M279.147 343.914C278.16 339.572 278.16 335.064 279.147 330.722C280.169 330.722 282.119 336.203 282.862 343.542C283.605 350.881 282.212 357.012 281.19 356.919C279.776 352.732 279.085 348.333 279.147 343.914Z" fill="#F9E6CF"/>
<path opacity="0.5" d="M281.19 379.215L270.14 335.274C268.747 329.607 267.632 324.962 266.889 321.711C266.43 320.065 266.088 318.389 265.868 316.694C266.672 318.206 267.325 319.793 267.818 321.432C268.84 324.591 270.418 329.143 272.368 334.624C276.083 345.772 281.005 361.1 285.926 377.915C298.37 418.698 299.484 441.458 297.72 441.458C295.53 436.833 293.998 431.923 293.17 426.873C290.57 416.468 286.669 401.14 281.19 379.215Z" fill="#7D7A7C"/>
<path d="M289.92 410.801C287.613 403.521 286.331 395.954 286.112 388.319C289.779 395.061 292.261 402.383 293.449 409.965C295.853 417.267 296.861 424.957 296.42 432.632C293.378 425.646 291.195 418.315 289.92 410.801Z" fill="#F9E6CF"/>
<path opacity="0.5" d="M298.092 348.559C292.706 334.902 287.319 322.547 283.419 313.443L278.869 302.109C278.272 300.817 277.776 299.482 277.383 298.114C277.383 298.114 278.405 299.322 279.798 301.737L285.462 311.956C290.198 320.596 296.42 332.58 302.642 346.05C308.676 358.236 313.377 371.037 316.664 384.232C318.707 393.522 318.057 398.167 317.407 398.167C316.757 398.167 312.485 383.21 298.092 348.559Z" fill="#7D7A7C"/>
<path d="M308.864 373.27C306.138 367.398 304.382 361.124 303.663 354.69C307.723 359.744 310.667 365.602 312.3 371.876C315.045 377.673 316.351 384.047 316.107 390.456C313.008 385.041 310.576 379.27 308.864 373.27Z" fill="#F9E6CF"/>
<path opacity="0.5" d="M330.594 320.038C324.372 310.749 317.964 303.038 313.321 297.185C310.673 294.23 308.192 291.129 305.892 287.895C305.892 287.895 306.914 288.453 308.492 289.846C310.071 291.24 312.3 293.283 314.993 295.885C321.97 302.584 328.515 309.721 334.587 317.251C341.424 325.185 346.602 334.409 349.816 344.378C351.581 351.346 350.652 355.154 349.816 355.154C344.446 342.91 338.013 331.16 330.594 320.038Z" fill="#7D7A7C"/>
<path d="M342.202 336.853C338.58 329.979 335.423 324.312 336.258 323.754C337.094 323.197 341.552 328.028 345.545 335.181C349.538 342.334 350.281 349.209 349.259 349.395C348.238 349.58 345.916 343.728 342.202 336.853Z" fill="#F9E6CF"/>
<path opacity="0.5" d="M320.286 275.911C314.157 270.616 308.121 266.064 303.756 262.812C301.22 261.199 298.856 259.332 296.698 257.238C299.579 258.136 302.351 259.352 304.963 260.861C311.424 264.109 317.632 267.835 323.536 272.009C330.1 276.289 335.571 282.048 339.509 288.824C341.923 293.748 341.552 296.814 340.901 296.906C340.251 296.999 336.165 289.567 320.286 275.911Z" fill="#7D7A7C"/>
<path d="M331.708 285.573C327.901 281.299 324.743 277.769 325.393 276.933C326.043 276.097 330.315 278.605 334.68 283.157C339.044 287.709 340.437 292.447 339.509 293.005C338.58 293.562 335.608 289.753 331.708 285.573Z" fill="#F9E6CF"/>
<path opacity="0.5" d="M361.982 229.09C351.116 227.789 340.994 227.325 333.565 226.86C329.558 226.846 325.556 226.566 321.586 226.024C325.528 225.194 329.538 224.728 333.565 224.631C340.994 224.166 351.116 223.702 362.353 224.073C372.78 224 383.113 226.055 392.719 230.112C399.313 233.178 401.077 237.265 400.52 237.544C399.963 237.822 397.734 236.057 391.233 234.385C381.653 231.784 371.866 230.012 361.982 229.09Z" fill="#7D7A7C"/>
<path d="M382.04 231.134C374.518 229.461 368.204 228.161 368.296 227.139C373.093 225.828 378.173 225.99 382.876 227.604C390.862 229.183 396.527 233.27 395.97 234.106C391.249 233.524 386.588 232.53 382.04 231.134Z" fill="#F9E6CF"/>
<path opacity="0.5" d="M302.828 160.809C297.534 168.148 292.613 174.837 288.898 179.389C287.05 182.104 284.968 184.653 282.676 187.006C283.776 183.755 285.24 180.638 287.041 177.717C289.92 172.421 294.006 165.175 298.649 157.372C309.7 138.792 317.221 130.245 318.8 130.988C320.379 131.731 316.479 141.857 302.828 160.809Z" fill="#7D7A7C"/>
<path d="M311.464 146.317C307.935 151.705 304.406 155.606 303.571 155.142C302.735 154.677 304.871 149.754 308.4 144.366C311.928 138.977 315.457 135.076 316.293 135.54C317.129 136.005 314.993 140.928 311.464 146.317Z" fill="#F9E6CF"/>
<path opacity="0.5" d="M377.768 171.121L341.366 186.914L330.13 191.744C328.791 192.428 327.392 192.988 325.951 193.417C325.951 193.417 327.251 192.395 329.665 190.908L340.345 184.87C349.631 179.946 361.796 173.257 375.725 166.29C388.387 159.844 401.634 154.618 415.285 150.683C424.572 148.267 429.772 148.732 429.772 149.475C429.772 150.218 425.872 151.24 417.421 154.585C408.971 157.929 396.063 163.41 377.768 171.121Z" fill="#7D7A7C"/>
<path d="M403.863 159.322C397.998 162.208 391.74 164.211 385.29 165.268C390.536 161.037 396.563 157.881 403.027 155.978C409.1 152.903 415.815 151.311 422.621 151.333C416.711 154.737 410.413 157.42 403.863 159.322Z" fill="#F9E6CF"/>
<path opacity="0.5" d="M360.681 341.219C349.445 328.121 338.673 316.508 330.872 308.054L321.586 297.928C320.411 296.74 319.325 295.467 318.336 294.12C319.765 295.042 321.102 296.099 322.329 297.278L332.451 306.568C340.994 314.464 352.509 325.148 364.396 337.968C375.633 349.204 385.57 361.669 394.019 375.128C399.591 384.418 400.52 390.177 399.87 390.363C399.22 390.549 396.991 386.462 390.583 378.379C384.176 370.297 375.261 357.848 360.681 341.219Z" fill="#7D7A7C"/>
<path d="M381.947 365.28C376.905 359.656 372.598 353.413 369.132 346.701C375.341 351.044 380.667 356.53 384.826 362.865C390.006 368.428 393.849 375.101 396.062 382.374C390.898 377.072 386.177 371.355 381.947 365.28Z" fill="#F9E6CF"/>
<path opacity="0.5" d="M330.222 363.701C323.443 350.045 316.571 337.875 311.65 329.05L305.521 318.552C304.667 317.301 303.951 315.962 303.385 314.557C304.48 315.583 305.446 316.737 306.264 317.995C308.028 320.317 310.628 323.569 313.507 327.842C321.19 338.651 328.319 349.845 334.865 361.379C342.079 373.627 347.46 386.866 350.838 400.675C352.417 409.965 352.138 415.167 350.838 415.167C348.83 411.209 347.392 406.987 346.566 402.626C341.894 389.338 336.437 376.34 330.222 363.701Z" fill="#7D7A7C"/>
<path d="M342.666 389.156C339.788 383.253 337.666 377.01 336.351 370.576C340.702 375.637 343.874 381.603 345.638 388.041C347.234 392.503 348.537 397.065 349.538 401.697C349.538 405.413 349.538 407.643 349.538 407.735C349.538 407.828 348.238 405.692 347.123 402.347C346.009 399.003 344.616 394.265 342.666 389.156Z" fill="#F9E6CF"/>
<path opacity="0.5" d="M325.486 207.444C312.95 209.302 302.456 212.275 302.271 211.718C304.213 210.374 306.3 209.252 308.492 208.373C313.789 206.024 319.252 204.068 324.836 202.521C330.827 200.511 337.262 200.221 343.409 201.685C347.774 203.264 348.981 205.772 348.516 206.237C348.052 206.701 346.288 206.237 342.945 206.237C337.101 206.13 331.26 206.535 325.486 207.444Z" fill="#7D7A7C"/>
<path d="M336.908 205.308C332.544 205.308 328.737 205.308 328.551 204.286C328.365 203.264 331.987 201.777 336.816 201.685C341.645 201.592 346.102 203.635 345.08 204.564C344.059 205.493 341.273 205.029 336.908 205.308Z" fill="#F9E6CF"/>
<path opacity="0.5" d="M336.723 126.622L314.064 154.492L307.006 162.76C306.152 163.847 305.187 164.843 304.128 165.733C304.729 164.666 305.445 163.669 306.264 162.76L312.393 153.47L332.822 123.742C352.231 95.8722 364.303 83.4236 365.418 84.2597C366.532 85.0958 359.196 98.4733 336.723 126.622Z" fill="#7D7A7C"/>
<path d="M351.767 105.348C345.823 113.337 340.345 119.283 339.509 118.725C341.606 112.99 344.755 107.697 348.795 103.118C354.831 95.1289 360.31 89.1834 361.146 89.7408C359.08 95.5113 355.892 100.816 351.767 105.348Z" fill="#F9E6CF"/>
<path opacity="0.5" d="M310.721 106.091C302.92 121.698 295.677 136.005 290.477 146.502C287.784 151.612 285.555 155.792 284.069 158.765C283.296 160.304 282.428 161.793 281.469 163.224C281.917 161.566 282.508 159.95 283.233 158.393C284.441 155.328 286.205 150.869 288.434 145.573C293.077 134.89 299.299 120.026 306.264 103.954C323.072 65.2153 334.123 46.3567 335.516 46.9141C336.908 47.4715 330.687 65.6798 310.721 106.091Z" fill="#7D7A7C"/>
<path d="M323.815 76.2704C321.177 83.3893 317.415 90.0387 312.671 95.9651C314.146 88.4966 316.811 81.3138 320.565 74.6911C323.202 67.5437 326.964 60.8637 331.708 54.9036C330.257 62.4081 327.591 69.6253 323.815 76.2704Z" fill="#F9E6CF"/>
<path opacity="0.5" d="M351.117 258.26C343.893 254.692 336.449 251.589 328.829 248.97C325.652 248.02 322.549 246.84 319.543 245.44C320.469 245.337 321.403 245.337 322.329 245.44C324.823 245.684 327.302 246.056 329.758 246.555C337.839 248.099 345.765 250.369 353.438 253.337C361.886 256.385 369.382 261.608 375.168 268.479C376.384 270.45 377.47 272.498 378.418 274.611C378.418 276.19 378.418 277.026 378.418 277.212C370.316 269.565 361.113 263.177 351.117 258.26Z" fill="#7D7A7C"/>
<path d="M366.16 266.157C363.822 264.637 361.588 262.961 359.474 261.14C357.617 259.84 356.688 258.818 356.874 258.353C357.06 257.889 358.546 258.353 360.682 258.911C363.365 260.154 365.943 261.614 368.389 263.277C370.677 265.171 372.707 267.357 374.425 269.78C375.54 271.824 376.004 273.217 375.633 273.496C375.261 273.775 374.054 272.938 372.568 271.452C371.082 269.966 368.482 268.386 366.16 266.157Z" fill="#F9E6CF"/>
<path opacity="0.5" d="M395.227 252.779C379.44 249.249 364.768 246.741 354.181 244.976L341.459 242.839C339.888 242.615 338.336 242.274 336.816 241.817C338.392 241.696 339.975 241.696 341.552 241.817L354.367 242.746C365.232 243.675 380.09 245.069 396.155 247.856C411.069 249.938 425.591 254.228 439.244 260.583C448.53 265.228 451.502 269.873 451.038 270.523C450.573 271.173 447.137 268.201 438.315 264.949C424.275 259.827 409.872 255.759 395.227 252.779Z" fill="#7D7A7C"/>
<path d="M424.479 259.375C417.64 257.835 411.025 255.431 404.792 252.222C411.9 251.991 418.981 253.224 425.593 255.845C432.552 257.409 438.965 260.809 444.166 265.692C437.494 263.944 430.922 261.835 424.479 259.375Z" fill="#F9E6CF"/>
<path opacity="0.5" d="M304.313 94.2C297.813 112.222 291.591 128.759 286.855 140.65C284.441 146.595 282.49 151.426 281.19 154.77C280.61 156.571 279.799 158.289 278.776 159.88C279.17 158.057 279.666 156.258 280.262 154.492C281.283 150.962 282.862 146.038 284.719 139.907C288.619 127.644 294.005 110.829 299.577 92.6207L315.55 42.5479C316.973 36.7529 319.061 31.1417 321.772 25.826C323.35 26.0118 321.307 47.5645 304.313 94.2Z" fill="#7D7A7C"/>
<path d="M314.714 59.7343C312.838 67.9098 309.705 75.7445 305.428 82.9591C306.333 74.6597 308.299 66.5109 311.278 58.7124C313.167 50.6042 316.003 42.7466 319.729 35.3018C319.495 43.6762 317.797 51.9451 314.714 59.7343Z" fill="#F9E6CF"/>
<path opacity="0.5" d="M355.017 290.125C345.731 284.458 337.837 279.627 331.708 276.19C328.285 274.434 324.967 272.48 321.772 270.337C322.795 270.481 323.795 270.763 324.743 271.173C326.694 271.824 329.387 272.753 332.637 274.146C341.198 277.562 349.54 281.502 357.617 285.944C366.367 290.567 374.277 296.628 381.019 303.874C385.197 309.355 386.405 312.514 385.662 313.164C384.919 313.814 377.49 305.082 355.017 290.125Z" fill="#7D7A7C"/>
<path d="M371.268 300.715C365.325 296.07 360.682 292.076 361.239 291.425C361.796 290.775 367.461 293.19 373.497 297.928C376.003 300.059 378.332 302.389 380.462 304.896C381.947 307.125 382.597 308.612 382.226 308.89C381.854 309.169 380.461 308.333 378.697 306.754C376.933 305.175 374.24 303.038 371.268 300.715Z" fill="#F9E6CF"/>
<path opacity="0.5" d="M416.307 209.209C405.07 209.209 394.67 210.603 387.055 211.346C382.962 211.935 378.838 212.276 374.704 212.368C375.691 211.831 376.756 211.455 377.861 211.253L386.683 209.117C396.366 206.956 406.164 205.343 416.028 204.286C426.602 202.719 437.377 203.16 447.787 205.586C454.938 207.723 457.724 210.789 457.074 211.253C456.424 211.718 453.731 211.253 447.323 210.046C437.023 208.947 426.651 208.668 416.307 209.209Z" fill="#7D7A7C"/>
<path d="M437.387 208.188C432.423 208.49 427.446 207.86 422.714 206.33C427.4 204.344 432.553 203.732 437.572 204.564C445.93 205.029 452.431 207.816 452.059 208.838C447.16 209.189 442.236 208.971 437.387 208.188Z" fill="#F9E6CF"/>
<path opacity="0.5" d="M403.213 187.657L373.125 195.646L363.839 198.062C361.61 198.619 360.403 198.898 360.31 198.712C361.34 198.081 362.428 197.552 363.56 197.133L372.382 193.509C379.904 190.537 390.305 186.728 401.727 182.919C412.238 179.205 423.096 176.559 434.136 175.022C441.658 174.186 445.652 175.022 445.559 175.859C431.736 180.775 417.586 184.718 403.213 187.657Z" fill="#7D7A7C"/>
<path d="M424.665 181.34C419.683 183.191 414.363 183.951 409.063 183.569C413.424 180.504 418.455 178.528 423.736 177.809C428.79 175.977 434.249 175.559 439.523 176.602C434.872 179.008 429.849 180.61 424.665 181.34Z" fill="#F9E6CF"/>
<path opacity="0.5" d="M373.404 130.338C362.539 138.141 352.695 145.573 345.545 150.869L337.001 157.279C335.989 158.139 334.864 158.858 333.658 159.415C334.451 158.363 335.354 157.397 336.351 156.535L344.152 149.196C350.745 143.065 359.939 134.89 370.432 126.343C379.886 118.302 390.193 111.324 401.17 105.534C408.785 101.818 413.521 101.632 413.521 102.282C413.521 102.932 410.549 104.512 404.234 108.971C397.92 113.43 387.519 120.305 373.404 130.338Z" fill="#7D7A7C"/>
<path d="M393.277 115.195C388.767 118.955 383.605 121.852 378.047 123.742C377.49 122.906 383.247 117.518 391.234 112.13C395.808 108.302 401.323 105.768 407.206 104.791C407.67 105.72 401.17 109.807 393.277 115.195Z" fill="#F9E6CF"/>
<path opacity="0.5" d="M400.334 270.059C389.191 265.599 378.604 262.348 370.804 260.025L361.517 257.331L358.174 256.124C358.174 256.124 359.474 256.124 361.703 256.124C363.932 256.124 367.275 256.867 370.989 257.517C381.349 259.396 391.583 261.909 401.634 265.042C412.658 268.049 422.873 273.476 431.536 280.928C437.201 286.502 438.223 290.775 437.48 291.054C436.737 291.333 434.787 288.731 429.308 284.737C420.29 278.671 410.559 273.741 400.334 270.059Z" fill="#7D7A7C"/>
<path d="M420.95 278.512C413.521 274.239 407.206 271.173 407.67 270.151C413.084 270.385 418.312 272.193 422.714 275.354C430.515 279.72 435.158 285.758 434.229 286.409C429.634 284.072 425.198 281.434 420.95 278.512Z" fill="#F9E6CF"/>
<path opacity="0.5" d="M356.317 323.197C345.823 312.792 335.608 303.781 328.458 297.278L319.172 289.474C318.013 288.603 316.954 287.606 316.014 286.502C317.33 287.107 318.575 287.855 319.729 288.731C322.05 290.311 325.393 292.54 329.015 295.513C337.094 301.366 347.588 309.634 359.289 319.574C369.942 328.46 379.317 338.777 387.148 350.231C391.791 358.313 393.184 362.958 392.441 363.33C391.698 363.701 389.283 360.357 384.083 353.389C378.883 346.422 369.968 336.574 356.317 323.197Z" fill="#7D7A7C"/>
<path d="M376.097 342.427C369.132 334.531 363.468 328.028 364.21 327.285C364.953 326.541 371.732 332.022 378.79 340.105C381.782 343.616 384.514 347.342 386.962 351.253C388.633 354.318 389.284 356.455 388.912 356.734C388.541 357.012 387.055 355.34 384.919 352.739C382.783 350.138 379.533 346.422 376.097 342.427Z" fill="#F9E6CF"/>
<path opacity="0.5" d="M330.965 345.679C324.465 334.624 318.15 324.591 313.6 317.251L308.306 308.519C307.586 307.479 306.993 306.356 306.542 305.175C307.503 305.983 308.347 306.921 309.049 307.962C310.628 309.912 312.857 312.607 315.457 315.951C320.75 322.825 327.901 332.301 335.144 342.985C353.717 368.625 356.874 385.718 355.388 385.997C353.902 386.276 348.238 374.106 330.965 345.679Z" fill="#7D7A7C"/>
<path d="M343.966 365.838C340.703 361.245 338.34 356.075 337.001 350.602C337.837 350.045 342.48 355.991 347.124 364.073C350.422 368.742 352.468 374.18 353.067 379.866C352.045 380.237 348.517 373.734 343.966 365.838Z" fill="#F9E6CF"/>
<path opacity="0.5" d="M389.841 296.721C380.554 291.425 371.918 287.431 365.603 283.808C362.057 282.256 358.642 280.423 355.388 278.327C359.192 279.158 362.92 280.308 366.532 281.764C375.258 284.799 383.814 288.303 392.162 292.262C401.318 296.243 409.66 301.881 416.771 308.891C421.507 313.907 422.157 318.18 421.6 318.18C421.043 318.18 419.092 316.323 414.264 312.607C406.469 306.796 398.312 301.49 389.841 296.721Z" fill="#7D7A7C"/>
<path d="M407.299 306.196C401.077 301.923 396.062 298.3 396.619 296.906C397.177 295.513 402.934 298.3 409.342 302.759C415.749 307.218 419.557 312.514 418.628 313.164C417.699 313.814 413.428 310.377 407.299 306.196Z" fill="#F9E6CF"/>
<path opacity="0.5" d="M365.603 146.595L337.744 165.64L329.201 171.492C328.199 172.269 327.108 172.924 325.951 173.443C326.754 172.455 327.656 171.552 328.644 170.749L336.351 163.874C342.852 158.208 352.045 150.59 362.353 142.508C371.743 134.949 381.888 128.38 392.627 122.906C399.87 119.283 404.235 118.725 404.42 119.376C392.019 129.193 379.058 138.281 365.603 146.595Z" fill="#7D7A7C"/>
<path d="M385.012 132.289C377.304 137.305 370.804 141.579 370.154 140.278C369.504 138.978 375.261 134.333 383.062 129.223C387.483 125.543 392.803 123.106 398.477 122.163C394.527 126.201 389.987 129.616 385.012 132.289Z" fill="#F9E6CF"/>
<path opacity="0.5" d="M201.792 400.396L214.05 361.657L217.858 349.766C218.195 348.265 218.758 346.824 219.529 345.493C219.388 347.026 219.14 348.547 218.786 350.045C218.136 352.925 217.3 357.105 216.186 362.215C213.864 372.434 210.614 386.554 206.9 401.79C197.613 438.95 188.327 456.693 186.748 455.95C185.17 455.207 189.813 439.135 201.792 400.396Z" fill="#7D7A7C"/>
<path d="M194.084 428.731C195.6 422.02 198.17 415.591 201.699 409.686C201.523 416.572 200.107 423.369 197.52 429.753C195.976 436.369 193.273 442.66 189.534 448.332C189.925 441.587 191.464 434.958 194.084 428.731Z" fill="#F9E6CF"/>
<path opacity="0.5" d="M297.72 77.8497C293.17 92.1562 288.434 105.069 285.091 114.452L280.819 125.6C280.351 126.981 279.76 128.318 279.055 129.595C279.207 128.24 279.487 126.902 279.89 125.6L282.955 114.08C285.555 104.791 289.084 91.1343 292.891 76.9207C297.442 59.5485 300.785 46.5426 303.199 37.4385C303.91 32.6284 305.188 27.9196 307.007 23.4106C307.657 23.4106 308.678 27.684 307.657 36.6024C305.568 50.618 302.243 64.4211 297.72 77.8497Z" fill="#7D7A7C"/>
<path d="M304.313 50.6302C303.422 57.2266 301.143 63.559 297.627 69.2101C297.637 62.7021 298.703 56.2388 300.785 50.0728C301.822 43.6626 303.696 37.4161 306.356 31.4929C307.142 37.9444 306.443 44.4902 304.313 50.6302Z" fill="#F9E6CF"/>
<path opacity="0.5" d="M343.409 134.147C336.258 141.486 329.665 148.267 324.836 152.727C322.303 155.463 319.571 158.009 316.664 160.344C318.547 157.058 320.722 153.949 323.165 151.054C327.344 145.573 333.287 138.234 339.787 130.245C355.481 110.922 365.603 102.375 366.625 103.676C367.646 104.976 361.332 115.009 343.409 134.147Z" fill="#7D7A7C"/>
<path d="M355.203 119.283C350.281 124.764 345.916 128.573 344.988 128.108C344.059 127.644 347.588 122.441 352.51 116.867C357.431 111.293 361.796 107.577 362.632 108.135C363.467 108.692 360.032 113.802 355.203 119.283Z" fill="#F9E6CF"/>
<path opacity="0.5" d="M331.801 109.621L309.235 141.95L302.178 151.798C301.324 153.028 300.361 154.179 299.299 155.235C299.85 153.841 300.535 152.503 301.342 151.24L307.378 140.743C312.671 132.01 319.822 119.933 327.622 106.927C346.845 75.4343 359.01 60.4775 360.217 61.3136C361.424 62.1497 354.181 77.1994 331.801 109.621Z" fill="#7D7A7C"/>
<path d="M346.752 85.3745C343.535 91.3081 339.254 96.5987 334.123 100.982C336.142 94.6199 339.288 88.6728 343.409 83.4236C346.479 77.4973 350.637 72.2025 355.667 67.8165C353.744 74.1456 350.727 80.0882 346.752 85.3745Z" fill="#F9E6CF"/>
</g>
</svg>
