<svg width="71" height="70" viewBox="0 0 71 70" fill="none" xmlns="http://www.w3.org/2000/svg">
<path d="M23.0941 28.5418V47.8148H27.9848V22.1175H24.1021C23.5794 24.2244 22.7207 24.9842 19.1367 24.9842V28.5418H23.0941Z" fill="#E8E8E8"/>
<path d="M44.6056 27.4704C44.6056 24.0165 42.9256 21.875 38.1842 21.875H37.4376C32.4722 21.875 31.0162 24.0165 31.0162 27.4704V29.6464C31.0162 32.7549 33.0322 33.6875 33.6669 33.9638C33.0322 34.2056 30.6802 35.1727 30.6802 38.3849V42.2533C30.6802 45.6036 32.1362 48.125 37.2882 48.125H38.2589C43.2243 48.125 44.9789 45.6036 44.9789 42.2533V38.3849C44.9789 35.1036 42.5149 34.2056 41.8429 33.9638C42.4776 33.6875 44.6056 32.7549 44.6056 29.6464V27.4704ZM39.9389 29.8882C39.9389 31.3734 39.3042 32.1678 37.8482 32.1678C36.3549 32.1678 35.7202 31.3734 35.7202 29.8536V27.7813C35.7202 26.227 36.3922 25.5707 37.8109 25.5707C39.3042 25.5707 39.9389 26.227 39.9389 27.7813V29.8882ZM40.0136 41.8043C40.0136 43.2895 39.3416 44.1875 37.8482 44.1875C36.2429 44.1875 35.6455 43.2895 35.6455 41.8043V38.523C35.6455 37.0378 36.2429 36.1398 37.8109 36.1398C39.3789 36.1398 40.0136 37.1069 40.0136 38.523V41.8043Z" fill="#E8E8E8"/>
<path d="M55.2305 35.8428V34.0604H52.2122V31.0501H50.0501V34.0604H47.0317V35.8428H50.0501V38.8729H52.2122V35.8428H55.2305Z" fill="#E8E8E8"/>
<circle cx="35.5427" cy="35" r="34.3882" stroke="#E8E8E8" stroke-width="1.22361"/>
</svg>
