<svg width="462" height="150" viewBox="0 0 462 150" fill="none" xmlns="http://www.w3.org/2000/svg">
<path d="M462 0H0V82.2789H462V0Z" fill="#FF267E"/>
<path d="M149.843 39.5282H122.348V31.544H155.609V20.522H106.404V61.5722H122.348V50.5502H149.843V39.5282Z" fill="#000055"/>
<path d="M237.233 47.8614L222.644 20.522H204.341L228.041 61.5722H246.2L269.879 20.522H251.843L237.233 47.8614Z" fill="#000055"/>
<path d="M320.991 40.7187C324.637 39.3045 327.079 35.805 327.146 31.8929C327.146 25.1607 321.463 20.522 310.28 20.522H274.187V61.5722H311.121C323.125 61.5722 328.46 56.8309 328.46 49.955C328.378 46.1168 326.059 42.6481 320.991 40.7187ZM289.719 30.4561H307.51C307.713 30.4151 307.92 30.3946 308.127 30.3946C309.851 30.3946 311.267 31.8128 311.267 33.5349C311.267 35.257 309.851 36.6752 308.127 36.6752C307.92 36.6752 307.713 36.6547 307.51 36.6137H289.719V30.4561ZM308.802 51.8023H289.719V45.6447H308.802C309.005 45.6037 309.213 45.5832 309.42 45.5832C311.143 45.5832 312.559 47.0014 312.559 48.7235C312.559 50.4456 311.143 51.8638 309.42 51.8638C309.213 51.8638 309.005 51.8433 308.802 51.8023Z" fill="#000055"/>
<path d="M351.89 45.5011H379.344V36.5931H351.89V31.544H382.237V20.522H335.946V61.5722H382.956V50.5502H351.89V45.5011Z" fill="#000055"/>
<path d="M389.543 20.522V31.544H407.436V61.5722H423.564V31.544H441.436V20.522H389.543Z" fill="#000055"/>
<path d="M174.135 20.522L150.456 61.5722H167.404L170.605 55.5173H195.926L199.127 61.5722H216.773L193.074 20.522H174.135ZM176.187 44.8648L183.184 31.6466L190.181 44.8648H176.187Z" fill="#000055"/>
<path d="M21.207 36.6119L35.3447 61.5705H53.5041L39.3459 36.6119H21.207Z" fill="#000055"/>
<path d="M67.6431 36.6119L53.5054 61.5705H71.6443L85.782 36.6119H67.6431Z" fill="#000055"/>
<path d="M53.5044 11.7148L39.3462 36.6118H67.6421L53.5044 11.7148Z" fill="#000055"/>
<path d="M0.702782 149.297V82.1312H202.407V149.297H0.702782Z" fill="#000055" stroke="#FF267E" stroke-width="1.40556"/>
<path d="M45.2933 120.636C45.1046 122.02 44.7271 123.255 44.0853 124.416C43.4436 125.576 42.5754 126.549 41.5561 127.372C40.5369 128.233 39.3289 128.869 37.97 129.319C36.5732 129.805 35.0633 130.03 33.4401 130.03C31.4016 130.03 29.5896 129.693 28.0042 129.019C26.4187 128.383 25.0975 127.447 24.0027 126.175C22.8703 124.94 22.0775 123.48 21.5113 121.721C20.9451 119.962 20.6431 118.016 20.6431 115.845C20.6431 113.712 20.9451 111.766 21.549 110.044C22.153 108.322 23.0213 106.863 24.1537 105.665C25.2485 104.467 26.6074 103.532 28.2307 102.895C29.8161 102.259 31.5903 101.922 33.591 101.922C35.2143 101.922 36.6865 102.147 38.0077 102.559C39.3289 103.008 40.4992 103.644 41.5184 104.43C42.5376 105.253 43.3681 106.226 44.0098 107.349C44.6516 108.509 45.0668 109.782 45.2933 111.204H40.1594C39.8952 110.268 39.5554 109.445 39.1402 108.809C38.6872 108.173 38.1965 107.686 37.6302 107.274C37.0262 106.863 36.4222 106.601 35.7428 106.414C35.0255 106.264 34.3083 106.189 33.5533 106.189C32.5341 106.189 31.5526 106.376 30.6844 106.788C29.7784 107.237 28.9856 107.836 28.3439 108.659C27.7022 109.482 27.1737 110.493 26.7962 111.691C26.4187 112.888 26.2299 114.273 26.2299 115.845C26.2299 117.454 26.4187 118.914 26.7962 120.112C27.1737 121.347 27.7022 122.395 28.3439 123.218C28.9856 124.079 29.7406 124.715 30.6089 125.127C31.4771 125.539 32.3831 125.763 33.3646 125.763C34.1573 125.763 34.95 125.688 35.6673 125.464C36.3845 125.277 37.064 124.977 37.668 124.565C38.2342 124.191 38.7627 123.63 39.1779 122.994C39.5932 122.357 39.9329 121.571 40.1594 120.636H45.2933Z" fill="#FF267E"/>
<path d="M60.2411 102.402H65.677L75.907 129.536H70.0559L68.1307 124.035H57.4854L55.5602 129.536H50.0488L60.2411 102.402ZM59.0331 119.656H66.583L62.8081 108.952L59.0331 119.656Z" fill="#FF267E"/>
<path d="M89.4201 117.641C88.3254 117.417 87.2684 117.118 86.2869 116.706C85.2677 116.294 84.3994 115.77 83.6822 115.134C82.9272 114.498 82.3232 113.749 81.908 112.851C81.455 111.99 81.2285 110.942 81.2285 109.782C81.2285 108.397 81.5682 107.237 82.2477 106.226C82.8895 105.253 83.7577 104.43 84.8147 103.794C85.8339 103.157 87.0041 102.708 88.3254 102.371C89.6088 102.072 90.8923 101.922 92.138 101.922C93.5347 101.922 94.8937 102.109 96.1772 102.521C97.4229 102.933 98.5554 103.494 99.5369 104.205C100.518 104.954 101.311 105.852 101.915 106.9C102.481 107.948 102.821 109.108 102.897 110.418H97.6872C97.5739 109.632 97.3474 108.959 96.9699 108.397C96.5924 107.873 96.1394 107.424 95.611 107.087C95.0825 106.788 94.4785 106.526 93.8367 106.376C93.195 106.264 92.5533 106.189 91.9115 106.189C91.2698 106.189 90.6658 106.264 90.0241 106.376C89.3823 106.488 88.8161 106.675 88.3254 106.937C87.8346 107.237 87.4194 107.574 87.1174 107.985C86.7776 108.435 86.6266 108.959 86.6266 109.557C86.6266 110.493 87.0041 111.242 87.7214 111.803C88.4386 112.364 89.3446 112.739 90.4393 112.926L94.0255 113.562C95.1202 113.749 96.2527 114.049 97.3852 114.385C98.4799 114.722 99.4991 115.209 100.405 115.808C101.273 116.444 101.991 117.23 102.557 118.165C103.123 119.139 103.387 120.336 103.387 121.721C103.387 123.106 103.085 124.341 102.444 125.351C101.802 126.399 100.934 127.26 99.9144 127.971C98.8574 128.682 97.6494 129.169 96.3659 129.506C95.0447 129.88 93.6857 130.03 92.289 130.03C90.5903 130.03 89.0803 129.805 87.7214 129.356C86.3246 128.944 85.1544 128.308 84.1352 127.485C83.116 126.699 82.3232 125.726 81.7192 124.528C81.1153 123.368 80.7378 122.058 80.6245 120.598H85.8339C85.9849 121.609 86.2491 122.432 86.6644 123.068C87.0796 123.742 87.5704 124.266 88.1744 124.678C88.7406 125.089 89.4201 125.351 90.1751 125.501C90.8923 125.688 91.685 125.763 92.4778 125.763C93.0818 125.763 93.7235 125.688 94.3652 125.576C95.007 125.464 95.5732 125.239 96.1394 124.94C96.6679 124.678 97.1209 124.303 97.4607 123.779C97.8004 123.293 97.9514 122.694 97.9514 121.983C97.9514 121.422 97.8382 120.898 97.5739 120.486C97.3097 120.074 96.9699 119.737 96.5169 119.438C96.0639 119.176 95.5355 118.914 94.9315 118.727C94.2897 118.54 93.6102 118.39 92.893 118.278L89.4201 117.641Z" fill="#FF267E"/>
<path d="M115.887 102.402H110.489V129.536H115.887V102.402Z" fill="#FF267E"/>
<path d="M140.607 129.536L129.66 108.839V129.536H124.563V102.402H131.585L142.532 123.099V102.402H147.628V129.536H140.607Z" fill="#FF267E"/>
<path d="M160.804 115.957C160.804 117.567 161.031 118.951 161.446 120.187C161.861 121.422 162.39 122.432 163.107 123.255C163.824 124.079 164.655 124.715 165.598 125.127C166.542 125.539 167.561 125.763 168.618 125.763C169.675 125.763 170.694 125.539 171.638 125.127C172.582 124.715 173.412 124.079 174.13 123.255C174.847 122.432 175.413 121.422 175.828 120.187C176.206 118.951 176.432 117.567 176.432 115.957C176.432 114.348 176.206 112.963 175.828 111.728C175.413 110.53 174.847 109.52 174.13 108.697C173.412 107.873 172.582 107.237 171.638 106.825C170.694 106.414 169.675 106.189 168.618 106.189C167.561 106.189 166.542 106.414 165.598 106.825C164.655 107.237 163.824 107.873 163.107 108.697C162.39 109.52 161.861 110.53 161.446 111.728C161.031 112.963 160.804 114.348 160.804 115.957ZM182.019 115.957C182.019 118.053 181.717 119.962 181.076 121.684C180.434 123.443 179.566 124.902 178.395 126.137C177.187 127.41 175.791 128.346 174.167 129.019C172.506 129.693 170.657 130.03 168.618 130.03C166.58 130.03 164.73 129.693 163.107 129.019C161.446 128.346 160.049 127.41 158.879 126.137C157.671 124.902 156.803 123.443 156.161 121.684C155.519 119.962 155.217 118.053 155.217 115.957C155.217 113.861 155.519 111.953 156.161 110.194C156.803 108.472 157.671 107.012 158.879 105.777C160.049 104.542 161.446 103.607 163.107 102.933C164.73 102.259 166.58 101.922 168.618 101.922C170.657 101.922 172.506 102.259 174.167 102.933C175.791 103.607 177.187 104.542 178.395 105.777C179.566 107.012 180.434 108.472 181.076 110.194C181.717 111.953 182.019 113.861 182.019 115.957Z" fill="#FF267E"/>
</svg>
