<svg width="17" height="10" viewBox="0 0 17 10" fill="none" xmlns="http://www.w3.org/2000/svg">
<path d="M6.78179 4.00414L3.1028 0.502889C2.74028 0.161069 2.30918 -0.00587481 1.81015 0.00229531C1.31018 0.00928479 0.885395 0.189029 0.535435 0.541779C0.185061 0.894672 0.0136357 1.31563 0.0210534 1.80461C0.0290032 2.29426 0.211874 2.71086 0.569935 3.0545L7.33247 9.49658C7.69119 9.83604 8.11774 10.0035 8.6127 9.99994C9.10686 9.99678 9.53096 9.8231 9.88472 9.47876L16.4672 3.03668C16.8224 2.68919 17 2.27036 17 1.77885C17 1.28747 16.8225 0.868374 16.4672 0.521422C16.1123 0.173796 15.6839 -1.5694e-08 15.1819 -2.16803e-08C14.6801 -2.76649e-08 14.2515 0.173677 13.8966 0.521422L10.417 3.92646L8.6127 5.54771L6.78179 4.00414Z" fill="white"/>
</svg>
