<svg width="514" height="524" viewBox="0 0 514 524" fill="none" xmlns="http://www.w3.org/2000/svg">
<g style="mix-blend-mode:screen">
<path opacity="0.5" d="M279.577 256.877C282.74 255.93 286.111 255.93 289.274 256.877C286.873 258.87 284.24 260.568 281.434 261.934C276.379 265.03 272.665 264.101 272.046 262.76C271.427 261.418 272.974 257.909 279.577 256.877Z" fill="#7D7A7C"/>
<path d="M275.45 259.251C277.101 258.528 278.752 259.251 279.164 259.87C279.577 260.489 278.545 262.244 276.895 262.966C275.244 263.688 273.593 262.966 273.181 262.347C272.768 261.728 273.697 259.87 275.45 259.251Z" fill="#F9E6CF"/>
<path opacity="0.5" d="M286.283 282.059C287.299 279.108 287.548 275.947 287.005 272.874C287.005 270.397 285.251 269.158 285.56 268.952C285.87 268.745 287.624 268.952 289.274 271.738C291.207 275.043 292.071 278.863 291.75 282.678C291.131 292.999 286.283 296.817 285.045 296.301C283.807 295.785 283.394 291.038 286.283 282.059Z" fill="#7D7A7C"/>
<path d="M285.457 288.974C286.179 286.394 287.727 284.433 288.655 284.639C289.584 284.845 290.1 287.322 289.274 290.109C288.449 292.895 286.695 294.753 285.767 294.444C284.838 294.134 284.838 291.657 285.457 288.974Z" fill="#F9E6CF"/>
<path opacity="0.5" d="M265.134 230.766C267.625 233.013 269.295 236.028 269.879 239.332C270.395 241.603 270.395 243.151 269.879 243.151C269.364 243.151 266.372 237.681 261.729 235.41C257.087 233.14 252.96 236.133 252.032 234.481C251.103 232.83 252.032 232.417 253.373 230.766C254.645 229.784 256.129 229.112 257.706 228.805C259.011 228.522 260.364 228.553 261.655 228.894C262.946 229.234 264.138 229.876 265.134 230.766Z" fill="#7D7A7C"/>
<path d="M257.706 229.94C260.698 229.94 262.864 231.282 262.348 232.211C261.833 233.14 260.182 233.553 258.428 233.862C256.674 234.172 254.611 233.862 254.095 233.862C253.579 233.862 254.508 230.766 257.706 229.94Z" fill="#F9E6CF"/>
<path opacity="0.5" d="M239.652 245.215C242.134 244.662 244.705 244.643 247.195 245.159C249.685 245.675 252.037 246.714 254.095 248.208C249.756 248.454 245.462 249.216 241.303 250.478C234.803 254.09 230.986 257.187 229.851 256.258C228.717 255.329 228.923 254.297 229.851 252.026C230.867 250.226 232.276 248.678 233.973 247.499C235.67 246.319 237.611 245.539 239.652 245.215Z" fill="#7D7A7C"/>
<path d="M233.05 249.549C235.525 247.795 238.001 247.485 238.517 248.621C239.033 249.756 237.486 251.304 235.525 252.749C233.565 254.194 231.708 255.226 230.986 254.607C230.264 253.987 230.883 251.614 233.05 249.549Z" fill="#F9E6CF"/>
<path opacity="0.5" d="M224.487 279.376C230.357 275.827 236.824 273.379 243.572 272.151C243.572 272.151 235.835 277.415 227.582 284.02C217.265 291.967 213.551 296.301 212.21 295.888C210.869 295.476 211.075 293.618 212.726 290.419C215.472 285.658 219.564 281.816 224.487 279.376Z" fill="#7D7A7C"/>
<path d="M216.44 286.6C219.432 283.813 222.527 282.575 223.249 283.504C223.971 284.433 221.908 286.91 219.225 289.49C216.543 292.07 214.274 294.031 213.242 293.411C212.21 292.792 213.655 289.49 216.44 286.6Z" fill="#F9E6CF"/>
<path opacity="0.5" d="M298.972 235.41C296.169 238.644 292.631 241.157 288.655 242.738C290.24 239.137 292.138 235.684 294.329 232.417C296.083 229.115 296.702 227.154 297.218 227.154C297.734 227.154 297.218 226.431 297.218 225.812C297.04 225.383 297.04 224.9 297.218 224.471C297.218 224.471 298.559 222.303 301.551 224.471C302.188 225.294 302.6 226.271 302.744 227.302C302.889 228.334 302.762 229.386 302.376 230.353C301.611 232.261 300.451 233.984 298.972 235.41Z" fill="#7D7A7C"/>
<path d="M301.757 229.012C300.829 231.798 298.869 232.83 298.043 232.211C297.218 231.592 297.321 229.631 298.043 227.98C297.94 227.643 297.94 227.284 298.043 226.948C297.963 226.749 297.963 226.527 298.043 226.328C298.043 225.812 298.043 225.296 298.043 224.78C298.169 224.629 298.327 224.507 298.505 224.423C298.683 224.339 298.878 224.296 299.075 224.296C299.272 224.296 299.467 224.339 299.645 224.423C299.823 224.507 299.981 224.629 300.107 224.78C300.59 225.329 300.974 225.958 301.241 226.638C301.521 227.402 301.695 228.201 301.757 229.012Z" fill="#F9E6CF"/>
<path opacity="0.5" d="M275.76 212.499C275.238 218.24 273.402 223.784 270.395 228.702C269.776 228.702 270.395 220.858 270.395 212.396C270.333 208.859 269.634 205.363 268.332 202.075C267.773 201.39 267.321 200.625 266.991 199.805C266.475 199.289 266.269 198.876 266.372 198.463C266.475 198.05 268.126 196.709 271.427 198.463C273.375 200.174 274.811 202.391 275.575 204.869C276.34 207.346 276.404 209.987 275.76 212.499Z" fill="#7D7A7C"/>
<path d="M273.696 203.417C275.141 207.029 273.696 209.815 272.974 209.919C272.252 210.022 271.014 207.339 269.983 204.965C268.951 202.591 268.848 202.798 268.745 201.766C268.469 201.526 268.258 201.221 268.132 200.878C268.005 200.535 267.968 200.166 268.022 199.805C268.022 199.289 269.157 199.289 270.498 199.805C271.913 200.648 273.03 201.91 273.696 203.417Z" fill="#F9E6CF"/>
<path opacity="0.5" d="M280.299 208.474C281.846 199.908 283.291 192.064 284.322 186.182C284.689 183.032 285.345 179.923 286.283 176.893C286.845 180.025 287.018 183.214 286.798 186.388C286.798 192.271 286.798 200.424 285.87 209.196C284.116 230.353 279.68 240.777 278.236 240.158C276.791 239.539 276.069 230.457 280.299 208.474Z" fill="#7D7A7C"/>
<path d="M278.339 224.677C279.268 218.485 280.918 213.634 281.95 213.737C282.981 213.841 283.291 219.001 281.95 225.296C280.609 231.592 279.164 236.339 278.133 235.617C277.101 234.894 278.339 230.766 278.339 224.677Z" fill="#F9E6CF"/>
<path opacity="0.5" d="M303.821 188.659C301.241 196.089 298.559 202.694 296.393 207.545C295.426 210.251 294.108 212.819 292.472 215.182C291.957 215.182 295.155 202.282 298.456 187.11C299.977 177.948 302.289 168.936 305.368 160.174C305.987 160.174 307.741 162.135 308.05 167.089C307.905 174.47 306.474 181.769 303.821 188.659Z" fill="#7D7A7C"/>
<path d="M306.503 174.107C305.471 179.68 303.408 184.427 302.273 183.602C301.138 182.776 301.551 178.751 302.273 173.281C302.995 167.811 304.336 163.683 305.471 163.683C306.606 163.683 307.638 168.534 306.503 174.107Z" fill="#F9E6CF"/>
<path opacity="0.5" d="M222.733 265.34C228.931 262.922 235.604 261.969 242.231 262.553C242.231 263.172 233.772 265.546 224.899 270.397C214.583 276.28 209.528 279.685 208.187 278.756C206.846 277.828 207.671 276.279 209.837 273.699C213.191 269.672 217.688 266.757 222.733 265.34Z" fill="#7D7A7C"/>
<path d="M214.17 270.913C217.368 268.539 220.67 268.23 221.082 269.158C221.495 270.087 219.225 272.151 216.337 274.215C213.448 276.279 210.766 277.621 209.941 276.692C209.115 275.763 210.869 273.08 214.17 270.913Z" fill="#F9E6CF"/>
<path opacity="0.5" d="M177.34 236.442C185.47 237.013 193.523 238.396 201.378 240.571C204.745 241.172 208.011 242.249 211.075 243.77C211.075 244.492 195.497 241.499 177.237 241.912C168.975 242.091 160.736 242.849 152.581 244.183C147.113 245.008 144.224 245.628 143.915 244.905C143.605 244.183 145.256 241.912 150.724 239.745C159.193 236.484 168.332 235.35 177.34 236.442Z" fill="#7D7A7C"/>
<path d="M159.596 238.197C166.405 237.062 171.976 238.197 171.976 239.023C171.976 239.848 166.611 241.087 160.215 242.119C153.819 243.151 148.661 244.286 148.145 243.047C147.629 241.809 152.684 239.023 159.596 238.197Z" fill="#F9E6CF"/>
<path opacity="0.5" d="M340.238 215.079L320.327 226.225C317.656 228.002 314.824 229.522 311.867 230.766C313.973 228.323 316.362 226.14 318.986 224.264C323.525 220.446 329.921 215.389 337.143 210.332C343.783 205.457 351.169 201.693 359.014 199.185C364.585 197.534 367.989 199.185 367.783 199.185C367.576 199.185 359.839 203.933 340.238 215.079Z" fill="#7D7A7C"/>
<path d="M353.856 206.41C348.285 209.196 343.539 211.054 342.92 210.125C342.301 209.196 346.325 205.687 351.999 202.798C357.673 199.908 363.141 199.082 363.45 200.218C363.76 201.353 359.323 203.52 353.856 206.41Z" fill="#F9E6CF"/>
<path opacity="0.5" d="M341.166 245.008C330.85 245.008 321.978 246.453 321.875 245.834C327.738 242.534 334.184 240.396 340.857 239.539C343.566 238.8 346.415 238.744 349.151 239.374C351.887 240.004 354.425 241.302 356.538 243.151C359.427 246.66 358.085 249.137 357.466 249.137C356.847 249.137 355.713 247.898 353.649 246.969C349.656 245.507 345.415 244.841 341.166 245.008Z" fill="#7D7A7C"/>
<path d="M350.554 244.905C347.356 244.08 344.261 243.254 344.261 242.222C344.261 241.19 347.459 239.951 351.586 240.983C355.713 242.016 357.879 246.247 356.744 246.66C355.609 247.073 353.546 245.628 350.554 244.905Z" fill="#F9E6CF"/>
<path opacity="0.5" d="M327.445 179.989C322.494 187.42 317.129 194.025 314.137 198.773C312.351 201.468 310.276 203.96 307.947 206.203C308.956 203.138 310.306 200.195 311.971 197.431C314.756 192.064 318.573 184.943 322.287 176.79C332.81 158.316 339 149.854 340.238 149.854C341.476 149.854 340.238 161 327.445 179.989Z" fill="#7D7A7C"/>
<path d="M335.08 165.231C331.985 170.804 328.58 174.829 327.652 174.21C326.723 173.591 328.477 168.843 331.572 163.27C334.667 157.697 337.556 153.672 338.587 154.085C339.619 154.498 338.175 160.174 335.08 165.231Z" fill="#F9E6CF"/>
<path opacity="0.5" d="M269.879 153.053C271.221 163.373 271.84 173.694 272.149 180.505C272.446 184.353 272.446 188.217 272.149 192.064C271.005 188.392 270.177 184.628 269.673 180.815C268.332 173.797 266.681 164.302 264.412 154.085C261.729 141.7 259.46 132.515 257.706 126.426C255.952 120.337 254.714 117.55 255.333 117.034C255.952 116.518 258.944 118.169 261.936 124.052C266.289 133.169 268.979 142.99 269.879 153.053Z" fill="#7D7A7C"/>
<path d="M264.824 133.753C266.887 141.184 267.094 147.48 266.062 147.686C265.031 147.893 262.967 142.01 261.007 134.889C259.047 127.768 257.706 122.091 257.706 121.472C257.706 120.853 262.864 126.323 264.824 133.753Z" fill="#F9E6CF"/>
<path opacity="0.5" d="M244.707 292.895C247.546 289.077 251.039 285.792 255.024 283.194C253.434 287.638 251.431 291.923 249.04 295.992C247.543 299.01 245.709 301.849 243.572 304.454C242.334 306.106 240.993 306.931 240.271 306.828C239.549 306.725 238.827 305.28 239.136 302.7C240.048 298.978 241.976 295.583 244.707 292.895Z" fill="#7D7A7C"/>
<path d="M241.509 299.501C242.85 297.024 244.81 295.579 245.739 296.198C246.667 296.817 246.255 299.088 245.017 301.461C243.779 303.835 242.128 305.28 241.2 304.97C240.271 304.661 240.065 301.977 241.509 299.501Z" fill="#F9E6CF"/>
<path opacity="0.5" d="M206.123 406.524L226.756 364.313L233.153 351.516C233.905 349.91 234.766 348.359 235.732 346.872C235.376 348.615 234.822 350.311 234.081 351.929C232.946 355.128 231.193 359.772 229.026 365.345C224.59 376.595 218.71 392.075 211.694 408.795C195.291 449.354 184.046 469.066 182.705 468.447C181.364 467.828 186.625 449.148 206.123 406.524Z" fill="#7D7A7C"/>
<path d="M193.64 437.795C196.178 430.321 199.982 423.339 204.885 417.154C203.577 424.953 200.998 432.484 197.251 439.446C194.725 446.905 190.958 453.883 186.109 460.087C187.353 452.287 189.899 444.751 193.64 437.795Z" fill="#F9E6CF"/>
<path opacity="0.5" d="M185.491 418.186L210.869 374.324C214.274 368.751 216.956 364.004 218.916 361.011C219.867 359.321 220.935 357.7 222.114 356.16C221.505 357.975 220.746 359.735 219.844 361.423C218.297 364.829 215.924 369.577 213.139 375.459L190.339 420.766C168.881 462.977 155.057 483.515 153.716 482.689C152.375 481.864 160.421 461.945 185.491 418.186Z" fill="#7D7A7C"/>
<path d="M168.881 450.593C172.284 442.76 176.955 435.542 182.705 429.229C180.484 437.488 177.004 445.355 172.389 452.554C168.864 460.321 164.205 467.52 158.564 473.917C160.731 465.639 164.214 457.764 168.881 450.593Z" fill="#F9E6CF"/>
<path opacity="0.5" d="M163.929 425.927C173.214 412.097 181.777 399.403 188.276 390.321L196.013 380C197.87 377.523 198.902 376.079 199.108 376.182C198.495 377.73 197.735 379.216 196.839 380.62L190.339 392.075C184.665 401.777 177.031 414.987 168.571 429.332C147.938 463.906 135.868 480.935 134.217 480.006C132.567 479.077 139.685 461.429 163.929 425.927Z" fill="#7D7A7C"/>
<path d="M147.939 452.657C151.291 446.178 155.761 440.343 161.144 435.421C158.954 442.48 155.454 449.062 150.827 454.824C147.659 461.368 143.324 467.279 138.035 472.266C140.076 465.165 143.436 458.513 147.939 452.657Z" fill="#F9E6CF"/>
<path opacity="0.5" d="M175.174 391.456L194.466 365.965C197.097 362.316 199.993 358.866 203.132 355.644C201.252 359.738 199.044 363.672 196.529 367.409C192.299 374.531 186.213 384.129 179.713 394.655C163.723 419.941 153.097 431.293 151.756 430.468C150.414 429.642 155.882 417.051 175.174 391.456Z" fill="#7D7A7C"/>
<path d="M162.485 410.962C167.54 403.634 172.285 398.268 172.801 398.887C173.317 399.506 170.428 405.905 165.373 413.232C160.318 420.56 155.573 425.927 155.057 425.307C154.541 424.688 157.533 418.186 162.485 410.962Z" fill="#F9E6CF"/>
<path opacity="0.5" d="M179.404 335.622C189.72 327.263 198.902 319.935 205.917 314.981C209.587 311.966 213.484 309.241 217.575 306.828C217.575 306.828 216.749 307.963 214.996 309.718L207.568 316.839L183.118 340.06C160.112 361.63 148.351 372.26 147.113 371.022C145.875 369.783 153.2 357.089 179.404 335.622Z" fill="#7D7A7C"/>
<path d="M161.866 352.857C168.675 346.459 174.865 342.021 175.69 342.537C176.515 343.053 171.357 349.348 164.858 356.263C158.358 363.178 152.478 367.616 151.652 366.584C150.827 365.552 155.057 359.359 161.866 352.857Z" fill="#F9E6CF"/>
<path opacity="0.5" d="M131.019 392.798C145.153 379.897 158.358 368.338 168.056 360.082L179.61 350.277C181.008 348.996 182.529 347.856 184.149 346.872C183.041 348.422 181.761 349.842 180.332 351.103L170.016 361.939C160.937 370.918 148.454 383.303 135.043 396.823C118.674 413.129 106.122 425.239 97.3877 433.151C88.825 441.098 84.2857 445.019 83.7699 444.503C83.2541 443.987 94.3959 425.823 131.019 392.798Z" fill="#7D7A7C"/>
<path d="M105.847 418.186C111.32 411.862 117.804 406.491 125.036 402.293C120.584 409.344 115.049 415.648 108.633 420.973C103.203 427.257 96.9169 432.746 89.9597 437.279C94.1034 430.038 99.48 423.576 105.847 418.186Z" fill="#F9E6CF"/>
<path opacity="0.5" d="M147.113 397.545L175.174 368.235L183.84 359.566C184.877 358.432 186.017 357.395 187.244 356.47C186.53 357.835 185.665 359.116 184.665 360.288L177.031 369.886L151.652 400.848C127.512 429.745 112.966 442.646 111.728 442.13C110.49 441.614 119.671 426.443 147.113 397.545Z" fill="#7D7A7C"/>
<path d="M128.44 419.528C135.868 411.168 142.471 404.976 143.296 405.802C140.482 411.956 136.486 417.497 131.535 422.108C124.107 430.468 117.505 436.557 116.679 435.834C119.493 429.68 123.489 424.139 128.44 419.528Z" fill="#F9E6CF"/>
<path opacity="0.5" d="M136.9 356.263C151.343 344.911 164.858 335.622 175.174 328.295L187.038 320.245C188.424 319.124 189.95 318.187 191.577 317.458C190.372 318.768 189.06 319.976 187.657 321.07L176.722 330.256L140.717 360.185C106.982 388.05 89.9598 402.396 89.1345 401.467C88.3092 400.538 99.3478 383.819 136.9 356.263Z" fill="#7D7A7C"/>
<path d="M111.109 377.833C116.731 372.25 123.297 367.708 130.504 364.417C131.226 365.345 123.591 372.57 113.688 380.929C108.118 386.466 101.798 391.191 94.9116 394.965C99.1857 388.286 104.681 382.474 111.109 377.833Z" fill="#F9E6CF"/>
<path opacity="0.5" d="M88.6185 323.031C106.363 315.807 122.972 310.131 135.043 306.106L149.486 301.565C151.259 300.936 153.091 300.486 154.954 300.223C153.322 301.124 151.634 301.917 149.898 302.597L135.971 308.479C124.21 313.433 108.117 320.142 90.785 328.088C70.152 337.686 54.3678 345.324 44.2576 350.897C39.3303 354.091 34.195 356.953 28.886 359.463C28.267 359.463 31.2588 354.199 40.6468 347.388C55.6477 337.45 71.7447 329.277 88.6185 323.031Z" fill="#7D7A7C"/>
<path d="M56.5344 338.822C63.6268 334.392 71.5092 331.379 79.7465 329.946C73.1694 334.973 65.9967 339.167 58.3914 342.434C51.3889 346.797 43.9563 350.429 36.2109 353.27C41.8556 347.034 48.7911 342.104 56.5344 338.822Z" fill="#F9E6CF"/>
<path opacity="0.5" d="M95.6339 340.473C109.871 333.661 123.282 327.985 132.98 323.96L144.225 319.316C145.65 318.685 147.137 318.2 148.661 317.871C148.661 317.871 147.319 318.903 144.74 320.348L133.908 326.231L98.1098 345.943C81.5003 355.128 68.9142 362.043 60.661 366.584C56.6483 369.414 52.3208 371.769 47.7653 373.602C46.321 372.054 58.4945 357.708 95.6339 340.473Z" fill="#7D7A7C"/>
<path d="M69.9458 355.334C75.5967 351.299 82.0266 348.487 88.825 347.078C89.444 348.11 81.7066 353.064 72.0091 358.74C66.4274 362.708 60.3151 365.869 53.8521 368.132C53.1299 367.203 60.1452 361.011 69.9458 355.334Z" fill="#F9E6CF"/>
<path opacity="0.5" d="M113.275 343.466C124.829 337.48 135.559 332.32 143.399 328.708L152.787 324.579C153.94 324.006 155.15 323.556 156.398 323.238C155.48 324.139 154.438 324.904 153.303 325.508L144.534 330.978L115.957 348.317C102.917 357.294 89.1076 365.1 74.6912 371.641C73.6596 370.402 83.5634 358.74 113.275 343.466Z" fill="#7D7A7C"/>
<path d="M92.6421 356.263C100.586 351.309 107.498 348.42 108.117 349.349C108.736 350.277 102.546 354.818 94.7054 359.669C90.2426 363.132 85.1679 365.723 79.7465 367.306C79.3338 366.584 85.0079 361.424 92.6421 356.263Z" fill="#F9E6CF"/>
<path opacity="0.5" d="M96.5622 249.549C112.45 249.549 126.996 250.581 137.828 251.614L150.311 253.058C151.846 253.199 153.365 253.475 154.85 253.884C153.307 254.037 151.752 254.037 150.208 253.884H137.416C127.099 253.884 112.346 253.884 96.6654 254.916C82.4816 255.56 68.3535 257.112 54.3678 259.56C45.0829 261.418 40.6468 263.482 40.131 262.656C39.6152 261.831 42.9165 258.528 52.0981 255.226C66.5083 250.908 81.53 248.99 96.5622 249.549Z" fill="#7D7A7C"/>
<path d="M66.954 253.058C73.737 251.444 80.804 251.444 87.587 253.058C81.1205 255.384 74.3363 256.707 67.4698 256.98C60.8552 258.497 54.1266 259.463 47.3527 259.87C46.8369 258.322 55.5027 254.4 66.954 253.058Z" fill="#F9E6CF"/>
<path opacity="0.5" d="M123.592 267.404C134.94 266.269 145.359 265.856 152.89 265.856C157.024 265.695 161.164 265.868 165.27 266.372C161.28 267.39 157.205 268.046 153.097 268.333C145.669 269.365 135.352 270.81 124.417 272.874C111.109 275.454 101.205 277.828 94.8086 279.788C88.4124 281.749 85.3174 283.401 84.4921 282.781C83.6668 282.162 85.8333 279.066 92.0232 275.66C101.918 270.904 112.636 268.101 123.592 267.404Z" fill="#7D7A7C"/>
<path d="M102.959 272.461C110.902 270.294 117.608 270.19 117.814 271.223C118.021 272.255 111.624 274.215 103.99 276.383C99.4645 278.165 94.7032 279.278 89.8566 279.685C89.1344 278.55 94.9117 274.628 102.959 272.461Z" fill="#F9E6CF"/>
<path opacity="0.5" d="M208.496 228.599C214.375 229.87 220.165 231.525 225.828 233.553C228.25 234.298 230.571 235.338 232.74 236.649C232.74 237.268 221.186 235.204 207.671 234.069C199.456 234.152 191.247 233.6 183.118 232.417C183.118 231.592 184.252 230.044 188.585 228.496C195.137 226.956 201.961 226.992 208.496 228.599Z" fill="#7D7A7C"/>
<path d="M195.807 228.392C200.862 228.392 204.782 229.837 204.679 230.869C204.576 231.901 200.552 232.314 195.807 232.417C191.061 232.521 187.244 232.417 186.935 231.282C186.625 230.147 190.133 228.392 195.807 228.392Z" fill="#F9E6CF"/>
<path opacity="0.5" d="M171.976 196.399C179.791 199.012 187.382 202.257 194.672 206.1C197.78 207.568 200.72 209.367 203.441 211.467C200.096 210.747 196.817 209.745 193.64 208.474C186.101 205.729 178.422 203.387 170.635 201.456C159.679 199.386 148.564 198.28 137.416 198.153C137.416 198.153 137.416 197.121 138.86 196.089C140.807 195.104 142.846 194.309 144.947 193.716C154.035 192.218 163.358 193.144 171.976 196.399Z" fill="#7D7A7C"/>
<path d="M154.541 194.128C161.453 194.748 166.714 196.709 166.508 197.947C166.302 199.185 160.834 198.669 154.335 197.947C151.137 197.947 148.145 197.947 145.978 197.947C143.812 197.947 142.471 197.947 142.368 197.121C142.264 196.296 143.502 195.883 145.669 195.057C148.575 194.376 151.556 194.063 154.541 194.128Z" fill="#F9E6CF"/>
<path opacity="0.5" d="M142.883 208.577C152.362 211.015 161.668 214.084 170.738 217.762C174.556 219.168 178.249 220.894 181.776 222.923C177.746 222.355 173.775 221.422 169.912 220.136C162.691 218.382 152.684 215.698 141.748 214.047C131.936 212.307 122.001 211.341 112.037 211.157C108.62 211.705 105.137 211.705 101.72 211.157C101.72 210.228 103.887 208.267 110.799 206.307C121.531 204.71 132.483 205.485 142.883 208.577Z" fill="#7D7A7C"/>
<path d="M121.631 206.513C129.884 206.513 136.178 209.093 135.971 210.125C135.765 211.157 129.369 210.848 121.528 210.125C117.608 210.125 114.1 210.125 111.212 210.125C108.323 210.125 107.085 210.125 106.879 209.506C106.672 208.887 108.323 208.061 110.902 207.235C114.443 206.614 118.039 206.371 121.631 206.513Z" fill="#F9E6CF"/>
<path opacity="0.5" d="M83.2541 220.962C100.999 223.851 117.195 227.36 128.75 230.25C134.63 231.592 139.066 232.83 142.574 233.759C144.32 234.1 146.018 234.654 147.629 235.41C145.861 235.355 144.101 235.148 142.368 234.791L128.337 232.417C116.473 230.663 100.276 228.186 82.532 226.328C66.438 224.384 50.2534 223.281 34.0445 223.026C28.5464 223.323 23.0362 223.323 17.5381 223.026C17.5381 222.406 21.7678 219.414 32.6002 217.969C49.5416 216.591 66.5926 217.598 83.2541 220.962Z" fill="#7D7A7C"/>
<path d="M49.6223 218.691C57.4781 218.208 65.3485 219.368 72.7312 222.097C65.0298 223.152 57.2205 223.152 49.5191 222.097C41.8273 222.684 34.102 222.684 26.4102 222.097C33.6902 218.858 41.7191 217.68 49.6223 218.691Z" fill="#F9E6CF"/>
<path opacity="0.5" d="M242.128 214.563C245.471 216.651 248.294 219.475 250.381 222.819C252.032 225.296 252.651 227.051 252.445 227.154C248.447 224.241 244.201 221.685 239.755 219.517C236.814 218.475 233.68 218.088 230.574 218.382C228.201 218.382 226.756 218.382 226.344 217.866C225.931 217.35 226.344 215.389 228.717 213.944C230.775 212.746 233.135 212.167 235.514 212.277C237.892 212.387 240.189 213.18 242.128 214.563Z" fill="#7D7A7C"/>
<path d="M233.256 213.428C236.867 213.428 239.136 215.182 238.724 216.008C238.311 216.833 236.041 217.04 233.462 217.35C230.883 217.659 228.613 217.35 228.098 216.73C227.582 216.111 229.748 213.634 233.256 213.428Z" fill="#F9E6CF"/>
<path opacity="0.5" d="M243.676 179.989C247.568 187.245 250.779 194.846 253.27 202.694C254.592 205.996 255.426 209.473 255.746 213.015C255.127 213.015 249.246 198.566 238.93 183.292C234.6 176.423 229.162 170.32 222.836 165.231C218.606 162.032 215.718 161.309 215.821 160.484C215.924 159.658 218.813 158.523 224.59 160.484C232.979 164.633 239.709 171.511 243.676 179.989Z" fill="#7D7A7C"/>
<path d="M231.915 166.263C236.97 171.114 239.239 176.583 238.414 176.583C237.589 176.583 233.772 173.178 229.129 168.74C224.487 164.302 220.051 161.825 220.36 160.793C220.67 159.761 226.757 161.206 231.915 166.263Z" fill="#F9E6CF"/>
<path opacity="0.5" d="M343.539 282.678C329.612 274.422 315.994 270.5 316.201 269.778C319.266 269.814 322.316 270.23 325.279 271.016C332.387 272.517 339.307 274.801 345.912 277.828C353.505 280.924 359.806 286.535 363.76 293.721C364.576 295.633 365.132 297.647 365.41 299.707C365.41 301.255 365.41 301.978 364.585 302.081C363.76 302.184 362.728 300.223 359.839 296.611C355.257 291.053 349.741 286.339 343.539 282.678Z" fill="#7D7A7C"/>
<path d="M356.022 290.728C353.959 288.767 351.999 287.013 350.761 285.568C349.523 284.123 348.594 283.194 348.904 282.678C349.213 282.162 350.554 282.678 352.411 283.194C354.696 284.521 356.839 286.077 358.808 287.838C363.347 292.483 364.482 298.159 363.45 298.159C362.418 298.159 359.942 294.34 356.022 290.728Z" fill="#F9E6CF"/>
<path opacity="0.5" d="M311.661 295.476C311.063 290.813 309.704 286.281 307.638 282.059C309.995 283.322 312.059 285.069 313.695 287.185C315.331 289.302 316.501 291.74 317.129 294.34C320.224 304.661 315.788 309.924 314.55 309.511C313.312 309.099 312.074 304.661 311.661 295.476Z" fill="#7D7A7C"/>
<path d="M313.105 302.287C313.105 299.604 313.105 297.333 314.756 297.127C316.407 296.92 317.232 299.294 317.129 302.287C317.026 305.28 315.891 307.551 314.756 307.447C313.621 307.344 313.105 304.661 313.105 302.287Z" fill="#F9E6CF"/>
<path opacity="0.5" d="M292.163 334.384C291.781 325.184 290.607 316.033 288.655 307.035C290.366 309.26 291.66 311.778 292.472 314.465C295.063 320.77 296.765 327.404 297.527 334.177C298.383 341.445 297.463 348.811 294.845 355.644C292.988 360.288 290.925 362.043 290.306 361.836C289.687 361.63 291.234 353.27 292.163 334.384Z" fill="#7D7A7C"/>
<path d="M292.163 348.213C292.885 342.95 293.917 338.719 294.949 338.719C295.98 338.719 296.909 343.26 296.083 349.039C295.258 354.818 292.988 358.843 291.854 358.431C290.719 358.018 291.028 353.374 292.163 348.213Z" fill="#F9E6CF"/>
<path opacity="0.5" d="M225.518 390.011L240.477 356.883C242.541 352.754 244.191 349.245 245.326 346.562C246.461 343.879 247.183 342.847 247.389 342.95C247.147 344.316 246.802 345.661 246.358 346.975L242.85 357.295C239.652 366.274 235.319 377.936 230.677 391.559C219.019 423.553 210.044 438.93 208.806 438.311C207.568 437.692 210.766 423.14 225.518 390.011Z" fill="#7D7A7C"/>
<path d="M216.44 414.574C218.169 408.659 221.121 403.174 225.106 398.474C224.777 404.65 223.086 410.677 220.154 416.122C218.473 422.057 215.515 427.551 211.488 432.222C211.887 426.058 213.574 420.046 216.44 414.574Z" fill="#F9E6CF"/>
<path opacity="0.5" d="M255.23 395.894C257.293 384.232 259.047 373.395 260.388 365.448C260.965 361.156 261.862 356.913 263.071 352.754C263.357 357.084 263.357 361.428 263.071 365.758C262.555 373.705 262.039 384.645 260.904 396.72C258.531 425.617 252.651 440.066 251.103 439.55C249.556 439.034 250.278 426.133 255.23 395.894Z" fill="#7D7A7C"/>
<path d="M252.96 418.186C254.405 409.827 255.952 403.015 257.087 403.118C258.486 408.254 258.486 413.67 257.087 418.805C255.746 427.165 253.786 433.873 252.548 433.667C251.531 428.54 251.672 423.251 252.96 418.186Z" fill="#F9E6CF"/>
<path opacity="0.5" d="M266.991 441.82C268.229 422.314 269.467 404.46 270.292 391.353C270.808 384.851 271.22 379.484 271.427 375.769C271.442 373.855 271.684 371.95 272.149 370.093C272.254 372.018 272.254 373.947 272.149 375.872C272.149 379.588 272.149 384.851 272.149 391.353C272.149 404.46 272.149 422.314 272.149 442.027C271.427 489.501 265.237 514.27 263.586 513.548C261.936 512.825 263.689 492.184 266.991 441.82Z" fill="#7D7A7C"/>
<path d="M265.65 478.355C265.589 469.835 266.77 461.351 269.157 453.173C270.736 461.548 270.911 470.128 269.673 478.561C269.718 487.136 268.287 495.654 265.443 503.743C264.35 495.311 264.419 486.768 265.65 478.355Z" fill="#F9E6CF"/>
<path opacity="0.5" d="M277.617 387.225C279.164 375.769 280.299 365.139 280.712 357.295C280.843 353.045 281.222 348.807 281.847 344.601C282.169 345.712 282.376 346.853 282.466 348.007C282.466 350.174 282.981 353.373 283.188 357.295C283.876 367.604 283.876 377.948 283.188 388.257C282.664 399.249 280.147 410.055 275.76 420.147C274.353 422.61 272.803 424.988 271.117 427.268C269.879 428.713 268.848 429.126 268.538 428.919C268.229 428.713 272.974 417.051 277.617 387.225Z" fill="#7D7A7C"/>
<path d="M274.625 408.898C275.267 403.855 276.879 398.983 279.371 394.552C280.609 394.552 280.402 401.57 278.442 409.93C277.422 413.472 276.111 416.924 274.522 420.25C272.974 422.727 271.736 424.069 271.324 423.759C270.911 423.45 271.324 421.798 271.84 419.218C272.355 416.638 273.284 412.82 274.625 408.898Z" fill="#F9E6CF"/>
<path opacity="0.5" d="M312.28 334.487C310.423 325.302 308.36 316.942 306.813 310.853L304.749 303.732C304.623 302.807 304.623 301.87 304.749 300.945C306.751 303.767 308.414 306.816 309.701 310.027C312.965 317.564 315.789 325.282 318.161 333.145C324.66 355.231 323.835 367.513 322.494 367.719C321.152 367.925 316.716 358.224 312.28 334.487Z" fill="#7D7A7C"/>
<path d="M316.819 351.413C315.375 344.808 315.169 339.338 316.2 339.028C317.232 338.719 319.295 343.982 320.74 350.587C322.184 357.192 322.081 362.868 320.74 362.972C319.399 363.075 318.264 358.018 316.819 351.413Z" fill="#F9E6CF"/>
<path opacity="0.5" d="M294.433 449.148C293.71 434.286 292.988 420.457 292.472 410.343C292.472 405.389 292.472 401.261 291.957 398.474C291.821 396.998 291.821 395.513 291.957 394.036C292.525 395.382 292.873 396.811 292.988 398.268C292.988 401.158 294.123 405.183 294.948 410.136C296.496 420.457 298.456 433.77 300.004 448.735C304.13 485.166 300.004 504.466 298.043 504.156C296.083 503.846 296.29 487.643 294.433 449.148Z" fill="#7D7A7C"/>
<path d="M296.702 476.91C295.835 470.395 296.221 463.774 297.837 457.404C300.228 463.577 301.215 470.205 300.726 476.807C301.781 483.353 301.178 490.06 298.972 496.312C297.178 490.009 296.412 483.457 296.702 476.91Z" fill="#F9E6CF"/>
<path opacity="0.5" d="M227.479 77.61C232.843 95.7741 237.073 112.596 239.962 124.878C241.406 130.967 242.541 136.024 243.263 139.533C243.798 141.311 244.11 143.148 244.191 145.003C243.395 143.234 242.74 141.405 242.231 139.533L237.589 125.394C233.669 113.319 228.407 96.9093 222.217 79.0549C214.686 57.5883 208.806 41.3851 204.473 30.8582C201.926 25.6401 199.721 20.2622 197.87 14.7582C198.386 14.139 202.822 17.648 208.187 27.762C216.409 43.6275 222.878 60.3422 227.479 77.61Z" fill="#7D7A7C"/>
<path d="M214.996 44.0685C218.616 51.5088 220.82 59.5583 221.495 67.8056C217.061 60.8778 213.59 53.3781 211.178 45.5134C207.72 38.1144 204.957 30.4097 202.925 22.4987C208.566 28.6555 212.698 36.0398 214.996 44.0685Z" fill="#F9E6CF"/>
<path opacity="0.5" d="M206.949 182.569C212.168 187.31 216.934 192.528 221.186 198.153C223.107 200.417 224.736 202.914 226.034 205.584C225.518 205.584 216.234 196.089 203.544 186.904C198.088 182.745 191.99 179.503 185.49 177.306C181.261 176.171 178.785 176.584 178.475 175.758C178.166 174.932 179.92 172.662 185.49 172.455C193.654 173.031 201.307 176.639 206.949 182.569Z" fill="#7D7A7C"/>
<path d="M193.331 174.932C199.005 177.306 202.203 181.125 201.584 181.95C200.965 182.776 196.735 180.712 191.784 178.648C186.832 176.584 182.705 175.964 182.499 174.829C182.292 173.694 187.657 172.352 193.331 174.932Z" fill="#F9E6CF"/>
<path opacity="0.5" d="M96.4591 189.071C117.092 196.399 136.178 203.933 149.899 209.712L165.992 216.627C168.008 217.473 169.972 218.438 171.873 219.517C169.728 219.07 167.623 218.448 165.58 217.659L148.97 211.776C135.043 207.029 115.751 200.527 94.7053 194.128C69.1204 186.422 49.7598 181.021 36.6235 177.925C29.9054 176.837 23.257 175.356 16.7126 173.487C16.7126 172.765 22.9025 171.32 36.2108 173.487C56.7714 176.618 76.9588 181.839 96.4591 189.071Z" fill="#7D7A7C"/>
<path d="M56.4312 177.925C65.9473 179.854 75.0799 183.341 83.4604 188.246C73.9207 187.17 64.5384 184.988 55.5027 181.744C46.1168 179.904 36.8765 177.386 27.8545 174.21C37.535 173.435 47.2702 174.701 56.4312 177.925Z" fill="#F9E6CF"/>
<path opacity="0.5" d="M96.0466 210.125C115.029 214.976 132.154 220.446 144.534 224.367L159.287 229.321C161.092 229.871 162.851 230.561 164.548 231.385C162.663 231.217 160.798 230.872 158.977 230.353L144.225 226.741C131.535 223.748 114.1 219.517 95.1181 215.492C72.1123 210.641 54.6774 207.235 42.9166 205.171C36.9071 204.739 30.9401 203.842 25.0691 202.488C25.0691 201.766 30.3305 199.908 42.1945 200.217C60.4471 201.589 78.5005 204.91 96.0466 210.125Z" fill="#7D7A7C"/>
<path d="M60.0419 203.417C68.5575 204.144 76.856 206.491 84.492 210.332C76.0482 210.411 67.6274 209.44 59.4229 207.442C51.0338 206.62 42.7427 204.996 34.6633 202.591C43.0828 201.024 51.742 201.306 60.0419 203.417Z" fill="#F9E6CF"/>
<path opacity="0.5" d="M135.765 173.384C149.486 180.093 161.763 187.007 170.428 192.271C174.761 194.851 178.269 197.018 180.745 198.669C182.022 199.421 183.23 200.285 184.356 201.25C182.929 200.837 181.547 200.284 180.229 199.598L169.294 194.438C160.112 190.103 147.423 184.118 133.495 178.441C120.855 173.116 107.941 168.465 94.8086 164.509C90.1809 163.771 85.6486 162.525 81.2939 160.793C81.2939 160.174 85.5237 158.523 94.8086 159.658C109.101 162.036 122.925 166.669 135.765 173.384Z" fill="#7D7A7C"/>
<path d="M108.736 163.683C115.311 165.108 121.438 168.12 126.583 172.455C120.004 171.803 113.565 170.131 107.498 167.502C101.098 166.037 94.8725 163.892 88.9282 161.103C95.6418 160.071 102.51 160.966 108.736 163.683Z" fill="#F9E6CF"/>
<path opacity="0.5" d="M366.442 266.681C350.967 262.76 337.246 261.212 337.349 260.592C340.261 259.96 343.25 259.751 346.221 259.973C353.327 259.844 360.431 260.258 367.473 261.212C375.291 261.954 382.77 264.768 389.138 269.365C393.368 272.977 393.884 276.176 393.161 276.486C384.576 272.4 375.631 269.118 366.442 266.681Z" fill="#7D7A7C"/>
<path d="M380.782 269.984C375.623 267.92 371.187 266.062 371.497 264.927C371.806 263.792 376.655 263.998 381.813 266.269C386.971 268.539 390.995 272.564 390.066 273.39C389.138 274.215 385.94 271.945 380.782 269.984Z" fill="#F9E6CF"/>
<path opacity="0.5" d="M309.288 150.679C305.678 164.509 301.861 176.996 298.972 185.975L295.258 196.296C294.842 197.622 294.289 198.902 293.607 200.114C293.666 198.72 293.874 197.336 294.226 195.986C294.742 193.303 295.568 189.587 296.496 184.943C298.559 175.655 301.345 162.96 304.027 149.028C307.225 132.205 309.495 119.614 310.836 111.152C311.159 106.778 311.955 102.453 313.209 98.251C314.034 98.251 315.788 101.966 315.891 110.739C315.385 124.278 313.167 137.698 309.288 150.679Z" fill="#7D7A7C"/>
<path d="M313.931 124.362C313.599 130.611 311.796 136.693 308.669 142.113C307.942 135.96 308.397 129.725 310.01 123.743C310.367 117.608 311.618 111.558 313.724 105.785C315.54 111.834 315.612 118.274 313.931 124.362Z" fill="#F9E6CF"/>
<path opacity="0.5" d="M397.598 143.868C385.424 155.014 374.282 165.334 366.132 172.971C362.109 176.584 358.704 179.576 356.435 181.744C355.254 182.853 353.976 183.855 352.618 184.737C353.448 183.31 354.453 181.992 355.609 180.815L364.378 171.114C372.013 162.96 382.329 151.814 393.677 140.152C421.222 111.048 437.522 98.1478 438.554 98.8702C439.586 99.5927 428.65 114.557 397.598 143.868Z" fill="#7D7A7C"/>
<path d="M418.953 121.472C414.223 127.027 408.525 131.677 402.137 135.198C401.312 134.373 407.501 127.045 415.858 118.686C420.683 113.064 426.529 108.406 433.086 104.959C429.436 111.29 424.643 116.889 418.953 121.472Z" fill="#F9E6CF"/>
<path opacity="0.5" d="M417.096 178.854L376.449 199.495L363.966 205.997C362.47 206.895 360.878 207.622 359.22 208.164C360.54 207.014 361.955 205.979 363.45 205.068L375.211 197.431C385.527 191.032 399.042 182.466 414.517 173.591C428.489 165.219 443.159 158.071 458.362 152.227C468.678 148.409 474.662 148.099 474.765 148.821C474.868 149.544 470.535 151.505 461.25 156.149L417.096 178.854Z" fill="#7D7A7C"/>
<path d="M446.085 163.064C439.446 167.018 432.246 169.941 424.73 171.733C430.406 166.407 437.064 162.236 444.331 159.452C451.001 155.427 458.462 152.892 466.202 152.021C460.01 156.568 453.246 160.281 446.085 163.064Z" fill="#F9E6CF"/>
<path opacity="0.5" d="M200.037 162.96C207.092 170.736 213.705 178.902 219.844 187.42C222.459 190.861 224.772 194.521 226.756 198.36C223.424 195.473 220.32 192.333 217.472 188.968C212.004 183.189 204.37 175.139 195.704 166.882C187.982 159.317 179.818 152.218 171.254 145.622C165.58 141.287 162.175 139.843 162.381 139.017C162.588 138.191 166.302 137.778 172.698 141.081C183.115 146.574 192.393 153.999 200.037 162.96Z" fill="#7D7A7C"/>
<path d="M182.808 148.099C189.617 153.569 193.95 159.245 193.125 159.968C192.299 160.69 186.832 156.562 180.229 151.195C173.627 145.829 167.953 142.01 168.365 140.875C168.778 139.739 175.999 142.423 182.808 148.099Z" fill="#F9E6CF"/>
<path opacity="0.5" d="M104.506 134.27C121.838 144.59 137.003 154.91 147.835 162.651C153.303 166.469 158.152 169.669 160.628 172.043C162.255 173.134 163.775 174.378 165.167 175.758C163.361 174.958 161.634 173.991 160.009 172.868L146.494 164.715C135.043 157.8 119.362 148.409 101.824 139.533C86.0214 130.663 69.6908 122.771 52.9235 115.899C46.9795 114.163 41.1838 111.954 35.5918 109.294C35.5918 108.571 41.369 107.952 53.233 110.945C71.3205 116.309 88.5762 124.159 104.506 134.27Z" fill="#7D7A7C"/>
<path d="M70.6678 117.963C78.952 120.861 86.5913 125.349 93.1578 131.173C84.8078 128.941 76.7422 125.755 69.1204 121.679C61.0086 118.809 53.1134 115.36 45.4956 111.358C54.2872 111.56 62.9089 113.822 70.6678 117.963Z" fill="#F9E6CF"/>
<path opacity="0.5" d="M226.756 142.939C232.027 151.809 236.714 161.014 240.787 170.494C242.757 174.439 244.38 178.549 245.636 182.776C243.03 179.236 240.685 175.511 238.62 171.63C234.391 164.715 228.304 155.22 221.701 145.519C215.757 136.653 208.836 128.483 201.068 121.162C195.704 116.621 192.196 115.486 192.299 114.661C192.402 113.835 196.323 113.112 203.235 116.828C213.127 123.435 221.213 132.411 226.756 142.939Z" fill="#7D7A7C"/>
<path d="M211.694 125.188C217.781 131.689 221.082 138.088 220.154 138.707C219.225 139.327 214.583 134.166 208.806 128.387C203.029 122.607 197.664 118.066 197.973 117.447C198.283 116.828 206.124 118.892 211.694 125.188Z" fill="#F9E6CF"/>
<path opacity="0.5" d="M133.908 127.871C150.208 140.565 164.857 153.156 174.349 162.444C179.404 167.089 183.427 171.01 186.109 173.694C187.65 175.01 189.035 176.499 190.236 178.132C188.569 177.044 186.983 175.836 185.49 174.519L172.698 164.199C162.381 155.736 147.319 144.074 130.71 132.102C115.74 121.185 100.096 111.223 83.873 102.276C72.8343 96.4965 66.6444 95.258 66.7476 94.3292C66.8508 93.4003 72.9375 92.9875 84.6983 97.4253C102.48 105.152 119.054 115.407 133.908 127.871Z" fill="#7D7A7C"/>
<path d="M101.72 106.817C109.553 110.919 116.551 116.45 122.353 123.123C114.343 119.66 106.732 115.334 99.6572 110.223C87.1742 102.586 76.4451 98.251 76.7546 96.9093C85.7806 98.0451 94.3707 101.454 101.72 106.817Z" fill="#F9E6CF"/>
<path opacity="0.5" d="M171.976 116.209C183.324 129.212 192.609 141.597 199.934 150.679L208.084 161.619C209.152 162.911 210.053 164.332 210.766 165.85C209.477 164.772 208.27 163.599 207.155 162.341L198.077 152.021C190.339 143.661 179.816 131.999 167.849 119.718C153.509 105.166 142.368 94.3292 134.63 87.9305C130.424 84.7508 126.427 81.3035 122.663 77.61C122.663 76.7844 127.925 77.61 136.694 83.3895C149.809 92.7752 161.666 103.805 171.976 116.209Z" fill="#7D7A7C"/>
<path d="M148.867 93.8132C154.804 98.4451 159.692 104.284 163.207 110.945C156.838 107.096 151.068 102.332 146.081 96.8061C140.304 92.2029 134.984 87.0532 130.194 81.4286C137.388 83.8651 143.823 88.1333 148.867 93.8132Z" fill="#F9E6CF"/>
<path opacity="0.5" d="M262.967 73.2754C265.959 92.4716 267.919 110.12 269.054 123.02C269.673 129.419 270.086 134.682 270.395 138.398C270.553 140.287 270.553 142.185 270.395 144.074C269.869 142.243 269.456 140.382 269.157 138.501C268.538 134.889 267.61 129.729 266.475 123.433C264.412 110.636 261.317 93.194 257.706 74.3075C253.064 51.396 249.04 34.264 245.842 22.705C242.644 11.1461 239.858 6.19225 240.477 5.67622C241.096 5.1602 245.429 9.08199 249.969 20.0217C256.353 37.2082 260.715 55.0797 262.967 73.2754Z" fill="#7D7A7C"/>
<path d="M254.611 37.8761C257.343 45.9076 258.567 54.3751 258.222 62.8517C254.686 55.2389 252.188 47.1859 250.794 38.9082C248.213 30.9871 246.248 22.8786 244.914 14.655C250.012 21.4762 253.344 29.4538 254.611 37.8761Z" fill="#F9E6CF"/>
<path opacity="0.5" d="M207.258 104.856C213.654 117.86 218.71 130.038 222.217 139.533C223.971 144.074 225.312 147.686 226.241 149.854C226.82 151.174 227.236 152.56 227.479 153.982C226.531 152.736 225.799 151.341 225.312 149.854L219.947 139.533C215.511 131.07 209.631 118.892 202.306 106.92C196.04 95.5746 189.151 84.5838 181.673 73.9979C176.721 66.98 173.317 64.2967 173.626 63.6774C173.936 63.0582 178.475 63.6774 184.768 70.2825C194.106 80.4977 201.704 92.1776 207.258 104.856Z" fill="#7D7A7C"/>
<path d="M192.815 81.8414C196.851 86.7727 199.614 92.6203 200.862 98.8702C199.83 99.4895 195.188 92.5747 189.411 84.1119C185.419 79.3054 181.96 74.0802 179.094 68.528C180.126 67.2895 187.038 73.069 192.815 81.8414Z" fill="#F9E6CF"/>
<path opacity="0.5" d="M208.187 84.9376C217.162 106.611 224.28 126.839 228.82 141.597L234.494 159.245C235.211 161.409 235.797 163.615 236.248 165.85C235.151 163.866 234.219 161.795 233.462 159.658L226.756 142.526C220.876 128.077 212.726 108.365 203.028 87.2081C194.425 67.9137 184.462 49.2554 173.214 31.3743C165.476 19.6089 159.802 15.1711 160.215 14.5519C160.628 13.9327 167.23 16.3064 176.309 27.3493C189.542 44.9806 200.27 64.3609 208.187 84.9376Z" fill="#7D7A7C"/>
<path d="M188.07 46.6486C193.682 55.1644 197.766 64.5941 200.14 74.5139C194.187 66.3603 188.973 57.691 184.562 48.6095C176.515 34.1608 168.468 23.5307 169.087 22.8082C177.228 29.1239 183.737 37.2989 188.07 46.6486Z" fill="#F9E6CF"/>
<path opacity="0.5" d="M187.76 111.152C198.077 129.212 207.258 146.138 213.655 158.523C216.646 164.715 219.226 169.875 220.979 173.384C221.91 175.193 222.737 177.054 223.455 178.957C222.174 177.375 221.035 175.683 220.051 173.9L211.385 160.174C204.163 148.305 194.26 131.896 183.015 114.454C169.397 92.8844 158.771 77.61 151.24 67.2895C143.709 56.9691 139.066 52.428 139.479 51.7056C139.892 50.9832 145.463 53.5633 154.128 62.9549C166.983 77.8072 178.255 93.9602 187.76 111.152Z" fill="#7D7A7C"/>
<path d="M165.683 78.7453C171.45 85.8128 175.984 93.8029 179.094 102.379C172.727 95.9829 167.151 88.8451 162.485 81.119C156.868 74.0863 151.798 66.6338 147.319 58.8268C154.783 64.0883 161.043 70.8781 165.683 78.7453Z" fill="#F9E6CF"/>
<path opacity="0.5" d="M167.437 273.699C176.57 271.818 185.8 270.44 195.085 269.571C198.964 269.249 202.863 269.249 206.742 269.571C203.158 270.547 199.501 271.237 195.807 271.635C188.895 273.287 179.301 275.557 169.19 278.653C156.914 282.369 147.938 285.671 142.058 288.045C136.178 290.419 133.083 291.863 132.67 291.451C132.257 291.038 133.805 288.148 139.169 284.123C147.898 278.997 157.47 275.467 167.437 273.699Z" fill="#7D7A7C"/>
<path d="M148.351 280.201C155.676 277.311 161.969 276.589 162.278 277.621C162.588 278.653 156.811 281.13 149.899 283.917C146.288 285.258 143.296 286.703 140.82 287.322C138.344 287.942 137.106 288.767 136.693 288.251C136.281 287.735 137.416 286.497 139.479 284.845C142.272 283.002 145.245 281.446 148.351 280.201Z" fill="#F9E6CF"/>
<path opacity="0.5" d="M94.9117 289.387C110.726 285.413 126.739 282.278 142.883 279.995C149.176 279.066 154.232 278.447 157.739 278.137C159.592 277.97 161.457 277.97 163.31 278.137L157.945 279.582L143.399 282.885C131.123 285.671 114.307 289.593 96.356 295.063C80.0589 299.804 64.2403 306.058 49.1065 313.743C38.79 319.316 35.2824 323.547 34.5602 323.031C33.8381 322.515 36.2108 317.355 45.5989 310.337C60.5865 300.338 77.3119 293.232 94.9117 289.387Z" fill="#7D7A7C"/>
<path d="M61.6925 301.771C69.0528 297.917 77.1324 295.633 85.4205 295.063C78.4615 299.302 71.0579 302.762 63.3432 305.383C51.376 310.853 41.988 316.633 41.0595 315.91C40.1311 315.188 49.0032 307.344 61.6925 301.771Z" fill="#F9E6CF"/>
<path opacity="0.5" d="M90.0629 281.13C111.315 277.724 130.813 275.557 145.05 274.215L161.969 272.667H168.262C166.29 273.344 164.248 273.795 162.175 274.009L145.462 276.899C131.329 279.272 111.934 282.575 90.9913 287.219C65.7159 292.379 46.7336 296.817 34.2506 300.533C21.7677 304.248 15.8873 307.035 15.4746 306.415C15.062 305.796 19.4981 301.358 31.4652 296.095C50.3777 288.933 70.0329 283.913 90.0629 281.13Z" fill="#7D7A7C"/>
<path d="M51.3761 290.315C60.2577 287.388 69.572 285.992 78.9212 286.187C70.2878 289.928 61.2531 292.664 51.9951 294.34C43.1836 297.163 34.1865 299.37 25.0691 300.945C32.9858 295.577 41.9531 291.953 51.3761 290.315Z" fill="#F9E6CF"/>
<path opacity="0.5" d="M83.7698 235.926C104.403 238.197 122.457 240.674 135.352 242.738L151.24 245.318C153.233 245.551 155.202 245.966 157.12 246.556C155.13 246.738 153.127 246.738 151.137 246.556L135.043 245.421L82.7382 241.706C58.2881 240.158 39.8216 239.022 27.4418 238.61C21.1621 238.771 14.8803 238.391 8.66577 237.474C8.66577 236.752 14.0303 234.585 26.2038 233.759C45.4194 232.885 64.6743 233.61 83.7698 235.926Z" fill="#7D7A7C"/>
<path d="M45.8052 234.275C54.6766 233.928 63.5413 235.115 72.0091 237.784C63.2662 239.111 54.387 239.284 45.5989 238.3C36.8178 238.472 28.041 237.781 19.395 236.236C27.9806 233.833 36.9591 233.166 45.8052 234.275Z" fill="#F9E6CF"/>
<path opacity="0.5" d="M298.043 158.007C295.361 169.772 292.576 180.505 290.512 188.246C289.505 192.53 288.195 196.738 286.592 200.837C286.715 196.47 287.198 192.12 288.036 187.833C289.171 179.783 290.822 168.843 292.576 156.871C293.804 142.157 296.641 127.621 301.035 113.525C302.789 113.422 305.059 127.561 298.043 158.007Z" fill="#7D7A7C"/>
<path d="M301.035 135.508C299.797 144.177 297.631 150.886 296.496 150.679C295.313 145.517 295.313 140.154 296.496 134.992C296.751 129.699 298.048 124.508 300.313 119.718C301.964 119.821 302.376 126.942 301.035 135.508Z" fill="#F9E6CF"/>
<path opacity="0.5" d="M284.529 106.095C283.291 125.6 281.743 143.455 280.402 156.459C279.68 162.96 279.164 168.224 278.752 171.836C278.698 173.761 278.386 175.671 277.823 177.512C277.649 175.624 277.649 173.724 277.823 171.836C277.823 168.121 277.823 162.857 277.823 156.355C277.823 143.248 278.442 125.394 278.855 105.888C279.474 82.3575 279.783 64.6062 280.093 52.5312C279.787 46.4874 280.168 40.4283 281.228 34.4704C283.085 34.0576 288.036 55.7306 284.529 106.095Z" fill="#7D7A7C"/>
<path d="M284.735 69.5601C285.344 78.0743 284.471 86.6296 282.156 94.8453C280.523 86.5224 280.037 78.0149 280.712 69.5601C280.228 61.1001 280.748 52.6126 282.259 44.2749C284.7 52.4661 285.54 61.0508 284.735 69.5601Z" fill="#F9E6CF"/>
<path opacity="0.5" d="M298.972 100.625C296.186 120.027 293.298 137.778 290.925 150.576C289.997 156.975 288.655 162.238 288.655 165.85C288.316 167.732 287.868 169.593 287.314 171.423C287.065 169.539 287.065 167.631 287.314 165.747C287.314 162.032 288.14 156.768 288.759 150.266C290.1 137.262 291.853 119.305 293.814 100.005C296.083 76.4748 297.837 58.7235 299.075 46.7517C299.197 40.6557 300.028 34.5946 301.551 28.6909C303.305 28.4845 306.606 50.5703 298.972 100.625Z" fill="#7D7A7C"/>
<path d="M302.17 64.0903C302.099 72.6388 300.6 81.1153 297.734 89.169C296.65 80.7273 296.824 72.1714 298.25 63.7806C298.392 55.282 299.535 46.8298 301.654 38.5986C303.414 46.9893 303.589 55.6352 302.17 64.0903Z" fill="#F9E6CF"/>
<path opacity="0.5" d="M327.342 156.355C322.287 167.605 317.026 177.822 313.621 185.15C311.735 189.187 309.563 193.084 307.122 196.812C308.155 192.464 309.571 188.216 311.352 184.118C314.137 176.274 317.954 165.747 322.184 154.291C326.641 140.006 331.982 126.012 338.174 112.39C340.238 112.39 340.238 127.355 327.342 156.355Z" fill="#7D7A7C"/>
<path d="M334.667 134.476C331.778 142.835 328.374 149.234 327.342 148.821C327.338 143.43 328.536 138.106 330.85 133.237C333.739 124.981 336.111 118.376 337.246 118.582C337.909 124.018 337.015 129.529 334.667 134.476Z" fill="#F9E6CF"/>
<path opacity="0.5" d="M305.884 361.63C303.717 350.69 301.242 340.989 299.178 333.352C297.882 329.434 296.848 325.435 296.083 321.38C296.083 321.38 296.805 322.412 297.837 324.373C298.869 326.334 300.004 329.017 301.551 332.526C305.365 341.602 308.603 350.909 311.249 360.391C318.883 387.431 313.312 402.912 311.249 402.189C309.185 401.467 310.63 401.261 310.526 399.713C310.156 397.285 309.915 394.839 309.804 392.385C309.126 382.063 307.817 371.792 305.884 361.63Z" fill="#7D7A7C"/>
<path d="M310.114 382.065C309.016 377.241 309.016 372.233 310.114 367.409C311.248 367.409 313.415 373.499 314.24 381.652C315.066 389.805 313.518 396.616 312.383 396.513C310.812 391.861 310.045 386.975 310.114 382.065Z" fill="#F9E6CF"/>
<path opacity="0.5" d="M312.383 421.282L300.107 372.466C298.559 366.171 297.321 361.011 296.496 357.399C295.985 355.57 295.606 353.708 295.361 351.825C296.254 353.505 296.98 355.268 297.528 357.089C298.662 360.598 300.416 365.655 302.583 371.744C306.709 384.129 312.177 401.157 317.645 419.837C331.469 465.144 332.707 490.43 330.747 490.43C328.314 485.291 326.612 479.837 325.692 474.226C322.803 462.668 318.47 445.639 312.383 421.282Z" fill="#7D7A7C"/>
<path d="M322.081 456.372C319.518 448.284 318.095 439.878 317.851 431.396C321.925 438.886 324.682 447.02 326.001 455.443C328.672 463.555 329.792 472.098 329.302 480.625C325.922 472.863 323.497 464.719 322.081 456.372Z" fill="#F9E6CF"/>
<path opacity="0.5" d="M331.159 387.225C325.176 372.054 319.192 358.327 314.859 348.213L309.804 335.622C309.142 334.187 308.59 332.704 308.154 331.184C308.154 331.184 309.288 332.526 310.836 335.209L317.129 346.562C322.39 356.16 329.302 369.473 336.214 384.438C342.918 397.975 348.141 412.197 351.792 426.855C354.062 437.176 353.34 442.336 352.618 442.336C351.896 442.336 347.15 425.72 331.159 387.225Z" fill="#7D7A7C"/>
<path d="M343.126 414.677C340.099 408.154 338.148 401.184 337.349 394.036C341.86 399.651 345.13 406.158 346.943 413.129C349.993 419.569 351.444 426.65 351.173 433.77C347.73 427.754 345.028 421.343 343.126 414.677Z" fill="#F9E6CF"/>
<path opacity="0.5" d="M367.267 355.541C360.355 345.22 353.237 336.654 348.078 330.153C345.136 326.87 342.381 323.424 339.825 319.832C339.825 319.832 340.96 320.451 342.714 321.999C344.468 323.547 346.944 325.818 349.935 328.708C357.687 336.151 364.957 344.079 371.703 352.445C379.298 361.259 385.051 371.506 388.622 382.581C390.582 390.321 389.551 394.552 388.622 394.552C382.655 380.95 375.51 367.896 367.267 355.541Z" fill="#7D7A7C"/>
<path d="M380.163 374.221C376.139 366.584 372.632 360.288 373.56 359.669C374.489 359.05 379.441 364.416 383.877 372.363C388.313 380.31 389.138 387.947 388.003 388.154C386.869 388.36 384.289 381.858 380.163 374.221Z" fill="#F9E6CF"/>
<path opacity="0.5" d="M355.816 306.519C349.007 300.636 342.301 295.579 337.452 291.967C334.635 290.175 332.008 288.1 329.612 285.774C332.812 286.772 335.891 288.122 338.794 289.799C345.97 293.407 352.867 297.547 359.426 302.184C366.719 306.938 372.796 313.336 377.171 320.864C379.853 326.334 379.44 329.74 378.718 329.843C377.996 329.946 373.457 321.69 355.816 306.519Z" fill="#7D7A7C"/>
<path d="M368.505 317.252C364.275 312.504 360.768 308.583 361.49 307.654C362.212 306.725 366.958 309.511 371.806 314.568C376.655 319.626 378.203 324.889 377.171 325.508C376.139 326.127 372.838 321.896 368.505 317.252Z" fill="#F9E6CF"/>
<path opacity="0.5" d="M402.137 254.503C390.067 253.058 378.822 252.542 370.568 252.026C366.117 252.01 361.671 251.7 357.26 251.097C361.64 250.175 366.094 249.657 370.568 249.549C378.822 249.033 390.067 248.517 402.55 248.93C414.134 248.849 425.612 251.132 436.285 255.638C443.609 259.044 445.569 263.585 444.95 263.895C444.331 264.204 441.855 262.244 434.634 260.386C423.99 257.496 413.118 255.528 402.137 254.503Z" fill="#7D7A7C"/>
<path d="M424.42 256.774C416.064 254.916 409.049 253.471 409.152 252.336C414.481 250.879 420.124 251.059 425.349 252.852C434.221 254.606 440.514 259.147 439.895 260.076C434.65 259.43 429.472 258.325 424.42 256.774Z" fill="#F9E6CF"/>
<path opacity="0.5" d="M336.421 178.648C330.54 186.801 325.073 194.232 320.946 199.289C318.893 202.306 316.58 205.137 314.034 207.751C315.255 204.139 316.882 200.677 318.883 197.431C322.081 191.548 326.62 183.498 331.778 174.829C344.055 154.188 352.411 144.693 354.165 145.519C355.919 146.344 351.586 157.594 336.421 178.648Z" fill="#7D7A7C"/>
<path d="M346.015 162.548C342.095 168.533 338.174 172.868 337.246 172.352C336.317 171.836 338.69 166.366 342.611 160.38C346.531 154.394 350.451 150.06 351.38 150.576C352.308 151.092 349.935 156.562 346.015 162.548Z" fill="#F9E6CF"/>
<path opacity="0.5" d="M419.675 190.103L379.234 207.648L366.751 213.015C365.264 213.775 363.71 214.397 362.109 214.873C362.109 214.873 363.553 213.737 366.235 212.086L378.099 205.378C388.416 199.908 401.931 192.477 417.405 184.737C431.472 177.576 446.187 171.77 461.354 167.398C471.67 164.715 477.447 165.231 477.447 166.057C477.447 166.882 473.114 168.018 463.726 171.733C454.338 175.448 439.998 181.537 419.675 190.103Z" fill="#7D7A7C"/>
<path d="M448.664 176.996C442.149 180.202 435.196 182.428 428.031 183.601C433.859 178.901 440.554 175.395 447.736 173.281C454.482 169.865 461.942 168.097 469.504 168.121C462.937 171.903 455.941 174.882 448.664 176.996Z" fill="#F9E6CF"/>
<path opacity="0.5" d="M400.693 379.072C388.21 364.52 376.243 351.619 367.577 342.227L357.26 330.978C355.955 329.658 354.748 328.243 353.649 326.747C355.237 327.771 356.723 328.946 358.086 330.256L369.33 340.576C378.822 349.349 391.614 361.217 404.819 375.459C417.303 387.941 428.342 401.789 437.729 416.741C443.919 427.062 444.95 433.461 444.228 433.667C443.506 433.873 441.03 429.332 433.912 420.354C426.793 411.375 416.89 397.545 400.693 379.072Z" fill="#7D7A7C"/>
<path d="M424.317 405.802C418.715 399.554 413.931 392.618 410.081 385.161C416.978 389.986 422.895 396.08 427.515 403.118C433.27 409.299 437.539 416.711 439.998 424.791C434.261 418.901 429.016 412.55 424.317 405.802Z" fill="#F9E6CF"/>
<path opacity="0.5" d="M366.854 404.047C359.323 388.876 351.689 375.356 346.222 365.552L339.413 353.889C338.464 352.5 337.668 351.012 337.04 349.452C338.256 350.591 339.33 351.873 340.238 353.27C342.198 355.85 345.087 359.463 348.285 364.21C356.82 376.219 364.74 388.654 372.013 401.467C380.027 415.074 386.005 429.782 389.757 445.123C391.511 455.443 391.201 461.223 389.757 461.223C387.527 456.825 385.929 452.135 385.011 447.29C379.821 432.528 373.758 418.088 366.854 404.047Z" fill="#7D7A7C"/>
<path d="M380.679 432.325C377.481 425.768 375.124 418.833 373.663 411.684C378.496 417.307 382.02 423.935 383.98 431.087C385.753 436.044 387.2 441.112 388.313 446.258C388.313 450.386 388.313 452.863 388.313 452.966C388.313 453.069 386.868 450.696 385.63 446.98C384.392 443.265 382.845 438.002 380.679 432.325Z" fill="#F9E6CF"/>
<path opacity="0.5" d="M361.593 230.456C347.666 232.521 336.008 235.823 335.802 235.204C337.96 233.711 340.278 232.464 342.714 231.489C348.598 228.878 354.667 226.705 360.871 224.987C367.527 222.754 374.675 222.432 381.504 224.058C386.353 225.812 387.694 228.599 387.178 229.115C386.662 229.631 384.702 229.115 380.988 229.115C374.496 228.997 368.007 229.446 361.593 230.456Z" fill="#7D7A7C"/>
<path d="M374.282 228.083C369.433 228.083 365.204 228.083 364.997 226.948C364.791 225.812 368.814 224.161 374.179 224.058C379.544 223.955 384.495 226.225 383.361 227.257C382.226 228.289 379.131 227.773 374.282 228.083Z" fill="#F9E6CF"/>
<path opacity="0.5" d="M374.076 140.668L348.904 171.63L341.063 180.815C340.114 182.023 339.042 183.13 337.865 184.117C338.533 182.933 339.328 181.826 340.238 180.815L347.047 170.494L369.743 137.469C391.304 106.507 404.716 92.6779 405.954 93.6068C407.192 94.5356 399.042 109.397 374.076 140.668Z" fill="#7D7A7C"/>
<path d="M390.789 117.034C384.186 125.91 378.099 132.515 377.171 131.896C379.501 125.524 383 119.644 387.487 114.557C394.193 105.682 400.28 99.0766 401.208 99.6958C398.913 106.106 395.371 111.999 390.789 117.034Z" fill="#F9E6CF"/>
<path opacity="0.5" d="M345.19 117.86C336.524 135.198 328.477 151.092 322.7 162.754C319.708 168.43 317.232 173.075 315.581 176.377C314.722 178.087 313.758 179.741 312.693 181.331C313.191 179.489 313.847 177.694 314.653 175.964C315.994 172.559 317.954 167.605 320.43 161.722C325.588 149.853 332.501 133.341 340.238 115.486C358.911 72.4498 371.187 51.4992 372.735 52.1184C374.282 52.7377 367.37 72.9658 345.19 117.86Z" fill="#7D7A7C"/>
<path d="M359.736 84.7311C356.806 92.6397 352.626 100.027 347.356 106.611C348.995 98.3136 351.956 90.3339 356.125 82.9767C359.055 75.0363 363.235 67.6153 368.505 60.994C366.893 69.331 363.931 77.3489 359.736 84.7311Z" fill="#F9E6CF"/>
<path opacity="0.5" d="M390.067 286.91C382.041 282.946 373.771 279.498 365.307 276.589C361.778 275.534 358.33 274.223 354.99 272.667C356.019 272.552 357.057 272.552 358.085 272.667C360.856 272.938 363.611 273.352 366.339 273.906C375.316 275.621 384.121 278.143 392.646 281.44C402.031 284.826 410.358 290.629 416.786 298.262C418.137 300.451 419.343 302.727 420.397 305.074C420.397 306.828 420.397 307.757 420.397 307.963C411.396 299.468 401.172 292.372 390.067 286.91Z" fill="#7D7A7C"/>
<path d="M406.779 295.682C404.181 293.993 401.699 292.131 399.351 290.109C397.288 288.664 396.256 287.529 396.463 287.013C396.669 286.497 398.32 287.013 400.692 287.632C403.674 289.013 406.538 290.635 409.255 292.483C411.797 294.586 414.052 297.015 415.961 299.707C417.199 301.977 417.715 303.526 417.302 303.835C416.889 304.145 415.548 303.216 413.898 301.565C412.247 299.913 409.358 298.159 406.779 295.682Z" fill="#F9E6CF"/>
<path opacity="0.5" d="M439.07 280.821C421.532 276.899 405.232 274.112 393.471 272.151L379.337 269.778C377.592 269.529 375.868 269.15 374.179 268.642C375.93 268.507 377.689 268.507 379.441 268.642L393.677 269.674C405.748 270.706 422.254 272.255 440.102 275.351C456.67 277.664 472.803 282.43 487.97 289.49C498.287 294.65 501.588 299.81 501.072 300.533C500.556 301.255 496.739 297.953 486.938 294.34C471.34 288.65 455.34 284.13 439.07 280.821Z" fill="#7D7A7C"/>
<path d="M471.567 288.148C463.969 286.437 456.62 283.766 449.696 280.201C457.593 279.945 465.459 281.315 472.805 284.226C480.536 285.964 487.66 289.741 493.438 295.166C486.026 293.224 478.725 290.881 471.567 288.148Z" fill="#F9E6CF"/>
<path opacity="0.5" d="M338.072 104.65C330.85 124.671 323.938 143.042 318.677 156.252C315.994 162.857 313.828 168.224 312.383 171.939C311.739 173.94 310.837 175.848 309.701 177.616C310.139 175.591 310.69 173.592 311.352 171.63C312.487 167.708 314.24 162.238 316.304 155.427C320.637 141.803 326.62 123.123 332.81 102.895L350.554 47.2678C352.136 40.8299 354.455 34.5963 357.467 28.6909C359.22 28.8973 356.951 52.8409 338.072 104.65Z" fill="#7D7A7C"/>
<path d="M349.626 66.3607C347.541 75.443 344.061 84.1469 339.309 92.1619C340.315 82.9418 342.499 73.889 345.809 65.2254C347.907 56.2177 351.058 47.4885 355.197 39.2178C354.937 48.5212 353.051 57.7074 349.626 66.3607Z" fill="#F9E6CF"/>
<path opacity="0.5" d="M394.399 322.309C384.083 316.013 375.314 310.647 368.505 306.828C364.702 304.878 361.016 302.707 357.466 300.326C358.603 300.486 359.714 300.799 360.768 301.255C362.934 301.977 365.926 303.009 369.537 304.558C379.047 308.353 388.315 312.73 397.288 317.665C407.008 322.8 415.796 329.534 423.286 337.583C427.928 343.672 429.269 347.181 428.444 347.904C427.618 348.626 419.365 338.925 394.399 322.309Z" fill="#7D7A7C"/>
<path d="M412.453 334.074C405.851 328.914 400.693 324.476 401.312 323.754C401.931 323.031 408.224 325.715 414.929 330.978C417.713 333.345 420.301 335.934 422.667 338.718C424.317 341.195 425.04 342.847 424.627 343.156C424.214 343.466 422.667 342.537 420.707 340.783C418.747 339.028 415.755 336.654 412.453 334.074Z" fill="#F9E6CF"/>
<path opacity="0.5" d="M462.488 232.417C450.005 232.417 438.451 233.966 429.991 234.791C425.445 235.445 420.863 235.824 416.271 235.926C417.367 235.33 418.551 234.912 419.778 234.688L429.579 232.314C440.336 229.914 451.22 228.123 462.179 226.948C473.926 225.207 485.896 225.697 497.461 228.392C505.405 230.766 508.5 234.172 507.778 234.688C507.056 235.204 504.064 234.688 496.945 233.346C485.502 232.126 473.981 231.815 462.488 232.417Z" fill="#7D7A7C"/>
<path d="M485.907 231.282C480.392 231.618 474.864 230.918 469.607 229.218C474.812 227.012 480.536 226.332 486.113 227.257C495.398 227.773 502.619 230.869 502.207 232.005C496.764 232.395 491.294 232.153 485.907 231.282Z" fill="#F9E6CF"/>
<path opacity="0.5" d="M447.942 208.474L414.517 217.349L404.2 220.033C401.724 220.652 400.383 220.962 400.28 220.755C401.424 220.054 402.633 219.467 403.891 219.001L413.691 214.976C422.048 211.673 433.602 207.442 446.291 203.21C457.968 199.084 470.03 196.145 482.296 194.438C490.652 193.509 495.088 194.438 494.985 195.367C479.629 200.829 463.91 205.209 447.942 208.474Z" fill="#7D7A7C"/>
<path d="M471.773 201.456C466.239 203.512 460.329 204.357 454.441 203.933C459.285 200.527 464.875 198.333 470.741 197.534C476.356 195.498 482.42 195.034 488.279 196.193C483.113 198.865 477.533 200.645 471.773 201.456Z" fill="#F9E6CF"/>
<path opacity="0.5" d="M414.826 144.796C402.756 153.466 391.82 161.722 383.877 167.605L374.386 174.726C373.261 175.682 372.011 176.48 370.672 177.1C371.553 175.93 372.556 174.857 373.663 173.9L382.329 165.747C389.654 158.936 399.867 149.853 411.525 140.359C422.027 131.425 433.478 123.673 445.673 117.241C454.132 113.113 459.393 112.906 459.393 113.629C459.393 114.351 456.092 116.105 449.077 121.059C442.062 126.013 430.507 133.65 414.826 144.796Z" fill="#7D7A7C"/>
<path d="M436.903 127.974C431.894 132.151 426.159 135.369 419.984 137.469C419.365 136.54 425.761 130.554 434.634 124.568C439.716 120.316 445.842 117.501 452.378 116.415C452.894 117.447 445.672 121.988 436.903 127.974Z" fill="#F9E6CF"/>
<path opacity="0.5" d="M444.744 300.017C432.364 295.063 420.604 291.451 411.938 288.87L401.621 285.878L397.907 284.536C397.907 284.536 399.352 284.536 401.828 284.536C404.303 284.536 408.017 285.362 412.144 286.084C423.652 288.171 435.022 290.963 446.188 294.444C458.435 297.784 469.783 303.813 479.408 312.092C485.701 318.284 486.835 323.031 486.01 323.341C485.185 323.651 483.018 320.761 476.932 316.323C466.913 309.584 456.103 304.107 444.744 300.017Z" fill="#7D7A7C"/>
<path d="M467.647 309.408C459.393 304.661 452.378 301.255 452.894 300.12C458.908 300.379 464.716 302.388 469.607 305.899C478.273 310.75 483.431 317.458 482.399 318.181C477.294 315.585 472.366 312.654 467.647 309.408Z" fill="#F9E6CF"/>
<path opacity="0.5" d="M395.844 359.05C384.186 347.491 372.838 337.48 364.894 330.256L354.578 321.586C353.291 320.618 352.114 319.511 351.07 318.284C352.532 318.957 353.916 319.787 355.197 320.761C357.776 322.515 361.49 324.992 365.513 328.295C374.489 334.797 386.146 343.982 399.145 355.025C410.981 364.897 421.396 376.358 430.095 389.083C435.253 398.061 436.8 403.222 435.975 403.634C435.15 404.047 432.467 400.332 426.69 392.591C420.913 384.851 411.009 373.911 395.844 359.05Z" fill="#7D7A7C"/>
<path d="M417.818 380.413C410.08 371.641 403.787 364.416 404.613 363.591C405.438 362.765 412.969 368.854 420.81 377.833C424.134 381.734 427.168 385.873 429.888 390.218C431.745 393.623 432.467 395.997 432.055 396.307C431.642 396.616 429.991 394.759 427.618 391.869C425.246 388.979 421.635 384.851 417.818 380.413Z" fill="#F9E6CF"/>
<path opacity="0.5" d="M367.68 384.025C360.458 371.744 353.443 360.598 348.388 352.445L342.508 342.743C341.707 341.589 341.049 340.341 340.547 339.028C341.615 339.926 342.552 340.968 343.333 342.124C345.087 344.292 347.563 347.284 350.451 351C356.332 358.637 364.275 369.164 372.322 381.032C392.955 409.517 396.463 428.507 394.812 428.816C393.161 429.126 386.868 415.606 367.68 384.025Z" fill="#7D7A7C"/>
<path d="M382.123 406.421C378.498 401.319 375.873 395.576 374.385 389.495C375.314 388.876 380.472 395.481 385.63 404.46C389.294 409.648 391.567 415.688 392.233 422.005C391.098 422.418 387.178 415.193 382.123 406.421Z" fill="#F9E6CF"/>
<path opacity="0.5" d="M433.086 329.636C422.77 323.754 413.175 319.316 406.16 315.291C402.221 313.567 398.426 311.531 394.812 309.202C399.038 310.126 403.179 311.403 407.192 313.02C416.886 316.392 426.391 320.285 435.665 324.683C445.836 329.106 455.104 335.369 463.004 343.156C468.265 348.729 468.988 353.477 468.369 353.477C467.75 353.477 465.583 351.413 460.219 347.285C451.56 340.829 442.497 334.934 433.086 329.636Z" fill="#7D7A7C"/>
<path d="M452.481 340.163C445.569 335.416 439.998 331.391 440.617 329.843C441.236 328.295 447.633 331.391 454.751 336.345C461.869 341.299 466.099 347.181 465.067 347.904C464.036 348.626 459.29 344.808 452.481 340.163Z" fill="#F9E6CF"/>
<path opacity="0.5" d="M406.16 162.857L375.211 184.014L365.72 190.516C364.606 191.379 363.394 192.107 362.109 192.683C363.001 191.586 364.004 190.583 365.101 189.691L373.663 182.053C380.885 175.758 391.098 167.295 402.55 158.316C412.981 149.919 424.252 142.622 436.181 136.54C444.228 132.515 449.077 131.896 449.283 132.618C435.506 143.524 421.107 153.621 406.16 162.857Z" fill="#7D7A7C"/>
<path d="M427.722 146.964C419.159 152.537 411.937 157.284 411.215 155.839C410.493 154.394 416.889 149.234 425.555 143.558C430.467 139.47 436.378 136.762 442.681 135.714C438.293 140.201 433.249 143.994 427.722 146.964Z" fill="#F9E6CF"/>
<path opacity="0.5" d="M224.177 444.813L237.795 401.777L242.025 388.566C242.399 386.899 243.025 385.298 243.882 383.819C243.725 385.522 243.449 387.212 243.056 388.876C242.334 392.075 241.406 396.72 240.168 402.396C237.589 413.748 233.978 429.436 229.851 446.361C219.535 487.643 209.218 507.355 207.465 506.53C205.711 505.704 210.869 487.85 224.177 444.813Z" fill="#7D7A7C"/>
<path d="M215.615 476.291C217.298 468.835 220.153 461.694 224.074 455.134C223.878 462.783 222.306 470.334 219.432 477.426C217.717 484.776 214.713 491.765 210.56 498.067C210.994 490.573 212.703 483.209 215.615 476.291Z" fill="#F9E6CF"/>
<path opacity="0.5" d="M330.747 86.4856C325.692 102.379 320.43 116.725 316.716 127.148L311.971 139.533C311.45 141.068 310.794 142.553 310.01 143.971C310.18 142.466 310.49 140.98 310.939 139.533L314.343 126.736C317.232 116.415 321.152 101.244 325.382 85.4536C330.437 66.1543 334.151 51.7056 336.833 41.5915C337.623 36.2479 339.042 31.0167 341.063 26.0076C341.785 26.0076 342.92 30.755 341.785 40.6627C339.465 56.2331 335.771 71.5673 330.747 86.4856Z" fill="#7D7A7C"/>
<path d="M338.071 56.2467C337.081 63.5748 334.55 70.6097 330.644 76.8876C330.655 69.6577 331.839 62.4775 334.151 55.6274C335.304 48.5061 337.385 41.5667 340.341 34.9865C341.214 42.1536 340.438 49.4256 338.071 56.2467Z" fill="#F9E6CF"/>
<path opacity="0.5" d="M381.504 149.028C373.56 157.181 366.236 164.715 360.871 169.669C358.057 172.709 355.022 175.537 351.792 178.132C353.884 174.481 356.301 171.026 359.014 167.811C363.656 161.722 370.259 153.569 377.481 144.693C394.915 123.227 406.16 113.732 407.295 115.177C408.43 116.622 401.415 127.768 381.504 149.028Z" fill="#7D7A7C"/>
<path d="M394.606 132.515C389.138 138.604 384.289 142.836 383.258 142.319C382.226 141.803 386.146 136.024 391.614 129.832C397.082 123.639 401.93 119.511 402.859 120.13C403.787 120.75 399.97 126.426 394.606 132.515Z" fill="#F9E6CF"/>
<path opacity="0.5" d="M368.608 121.782L343.539 157.697L335.699 168.637C334.75 170.004 333.68 171.282 332.5 172.455C333.113 170.907 333.873 169.421 334.77 168.018L341.476 156.355C347.356 146.654 355.3 133.238 363.966 118.789C385.321 83.8024 398.836 67.1864 400.177 68.1152C401.518 69.0441 393.471 85.7633 368.608 121.782Z" fill="#7D7A7C"/>
<path d="M385.218 94.8452C381.644 101.437 376.888 107.314 371.187 112.184C373.431 105.116 376.925 98.5094 381.504 92.6779C384.914 86.0941 389.534 80.212 395.122 75.3395C392.985 82.3706 389.633 88.9725 385.218 94.8452Z" fill="#F9E6CF"/>
</g>
</svg>
